<svg width="2159" height="948" fill="none" xmlns="http://www.w3.org/2000/svg"><path d="M1119.66 139.766c580.27-174.135 856.43-119.145 921.98-69.883 79.9 72.556 211.17 149.47 14.01 69.882-235.56-95.086-458.14-34.941-556.2 26.923-98.06 61.863-63.82 178.331 83.02 131.173 158.95-51.052 379.27 2.673 473.18 28.64v108.834c-103.25-36.278-397.02-52.927-746.09 170.698C960.479 829.658 291.07 927.188 0 948V473.714c77.48-7.638 235.243-47.773 246.45-147.212C257.657 227.062 86.82 160.578 0 139.766V0c131.44 119.144 539.388 313.9 1119.66 139.766z" fill="#BFDDF9"/></svg>