<svg width="427" height="56" fill="none" xmlns="http://www.w3.org/2000/svg"><path fill-rule="evenodd" clip-rule="evenodd" d="M241.912 14.167l-.996-3.961c-.1-.404.381-.7.698-.428l.288.247a.433.433 0 00.7-.226l.446-1.855c.191-.791 1.316-.812 1.535-.029l.214.763c.103.37.608.427.793.089l.267-.487c.214-.388.808-.239.808.204v.584c0 .299.304.506.587.399l1.281-.49c.645-.247 1.292.345 1.102 1.003l-1.02 3.498a.429.429 0 01-.389.307l-6.314.382z" fill="#F4C446"/><path d="M241.917 14.433a.263.263 0 01-.257-.199l-.996-3.962a.676.676 0 01.31-.752.688.688 0 01.816.063l.288.247a.166.166 0 00.161.031.16.16 0 00.111-.118l.446-1.855a1.041 1.041 0 011.01-.804c.483-.013.906.298 1.038.767l.214.763c.026.097.108.115.143.12a.162.162 0 00.166-.084l.267-.484a.69.69 0 01.782-.338.683.683 0 01.523.668v.584c0 .079.05.12.071.136a.16.16 0 00.153.019l1.282-.488a1.1 1.1 0 011.138.215c.312.283.428.705.312 1.106l-1.02 3.498a.69.69 0 01-.626.495l-6.314.377c-.008-.005-.013-.005-.018-.005zm-.574-4.493a.17.17 0 00-.089.026.156.156 0 00-.074.18l.94 3.75 6.095-.364a.17.17 0 00.15-.118l1.02-3.498a.558.558 0 00-.161-.574.555.555 0 00-.589-.11l-1.281.488a.699.699 0 01-.642-.076.688.688 0 01-.301-.57v-.583c0-.116-.088-.15-.125-.16-.037-.008-.132-.021-.187.081l-.267.485a.693.693 0 01-.69.353.685.685 0 01-.589-.5l-.214-.762c-.082-.289-.317-.383-.52-.386a.512.512 0 00-.505.404l-.446 1.855a.684.684 0 01-.46.495.695.695 0 01-.668-.13l-.288-.247a.186.186 0 00-.109-.04z" fill="#000"/><path fill-rule="evenodd" clip-rule="evenodd" d="M171.11 46.404v3.453c0 .69-.457 1.248-1.02 1.248 0 0-3.358.33-3.241 0 .24-.679 1.886-1.85 1.886-1.85l.246-2.157 2.129-.694z" fill="#68C074"/><path d="M167.741 51.52c-.928 0-1.033-.133-1.089-.204a.31.31 0 01-.05-.293c.233-.66 1.501-1.625 1.886-1.908l.233-2.04a.26.26 0 01.18-.22l2.129-.695a.263.263 0 01.346.249v3.453c0 .833-.576 1.51-1.284 1.51-1.104.11-1.849.149-2.351.149zm-.521-.537c.513.042 1.768-.028 2.848-.133.444 0 .782-.443.782-.988V46.77l-1.622.53-.224 1.988a.258.258 0 01-.109.184c-.523.374-1.35 1.05-1.675 1.511z" fill="#000"/><path fill-rule="evenodd" clip-rule="evenodd" d="M190.66 47.19v3.454c0 .689-.457 1.247-1.02 1.247 0 0-3.358.33-3.242 0 .241-.679 1.887-1.85 1.887-1.85l.245-2.156 2.13-.694z" fill="#68C074"/><path d="M187.291 52.307c-.928 0-1.033-.134-1.089-.204a.31.31 0 01-.05-.294c.232-.66 1.501-1.624 1.886-1.907l.233-2.041a.26.26 0 01.179-.22l2.13-.695a.264.264 0 01.346.25v3.452c0 .834-.576 1.51-1.284 1.51-1.104.11-1.849.149-2.351.149zm-.521-.537c.513.042 1.768-.029 2.848-.134.444 0 .782-.443.782-.988v-3.091l-1.622.529-.225 1.989a.256.256 0 01-.108.183c-.523.375-1.35 1.05-1.675 1.512z" fill="#000"/><path fill-rule="evenodd" clip-rule="evenodd" d="M189.307 28.654c-2.311-8.249-4.808-16.075-8.261-16.345-2.586-.202-7.024 5.468-10.422 15.417-3.397 9.949-4.24 19.174-1.881 20.61 2.359 1.433 7.025-5.468 10.422-15.417.259-.755.5-1.504.727-2.248.193.78.399 1.572.623 2.369 2.869 10.24 7.165 17.557 9.593 16.347 2.43-1.214 2.071-10.494-.801-20.733z" fill="#46C0CF"/><path d="M189.555 49.781a1.97 1.97 0 01-.793-.18c-2.602-1.143-6.097-7.924-8.496-16.49a79.958 79.958 0 01-.397-1.466c-.148.463-.295.914-.449 1.36-2.821 8.263-6.647 14.701-9.302 15.652-.562.202-1.07.17-1.508-.097-2.497-1.517-1.72-10.703 1.77-20.916 3.167-9.273 7.672-15.823 10.694-15.593 3.643.283 6.098 7.984 8.494 16.536 2.584 9.215 3.537 19.604.666 21.037a1.545 1.545 0 01-.679.157zm-9.659-19.373h.008a.258.258 0 01.248.199c.204.828.407 1.6.621 2.36 2.325 8.294 5.775 15.085 8.203 16.151.388.17.721.181 1.017.032 1.062-.53 1.585-2.985 1.44-6.737-.151-3.896-.996-8.759-2.378-13.692-2.153-7.68-4.726-15.897-8.026-16.154-2.33-.18-6.689 5.097-10.153 15.24-3.297 9.654-4.211 18.953-1.994 20.3.298.18.644.199 1.054.052 1.176-.422 2.705-2.138 4.309-4.831 1.675-2.817 3.292-6.448 4.673-10.497.246-.72.484-1.454.724-2.24a.268.268 0 01.254-.183z" fill="#000"/><path fill-rule="evenodd" clip-rule="evenodd" d="M125.049 45.482s-.906 4.75-.066 5.4c.84.65 7.146 1.447 7.424.57.277-.879-3.118-1.078-4.539-2.055-1.421-.977-.43-3.886-.43-3.886l-2.389-.029z" fill="#9A7BF8"/><path d="M130.681 52.103c-2.074 0-5.223-.524-5.855-1.012-.898-.694-.251-4.504-.032-5.654a.264.264 0 01.259-.212h.003l2.388.029a.26.26 0 01.246.346c-.011.026-.912 2.732.33 3.587.587.403 1.577.678 2.452.922 1.062.296 1.902.529 2.145.974a.567.567 0 01.045.451c-.061.194-.233.333-.528.425-.333.1-.848.144-1.453.144zm-5.408-6.352c-.394 2.16-.55 4.599-.122 4.929.605.466 4.763 1.08 6.465.852.47-.063.549-.166.549-.166 0-.01 0-.018-.008-.034-.137-.248-1.072-.51-1.823-.718-.914-.254-1.952-.542-2.61-.995-1.273-.875-.856-3.005-.631-3.844l-1.82-.023z" fill="#000"/><path fill-rule="evenodd" clip-rule="evenodd" d="M156.646 40.54s2.425 4.193 3.489 4.145c1.065-.05 6.378-3.51 6.013-4.354-.364-.844-3.075 1.192-4.795 1.367-1.72.173-2.874-2.675-2.874-2.675l-1.833 1.517z" fill="#9A7BF8"/><path d="M160.124 44.952c-1.141 0-3.122-3.267-3.704-4.276a.262.262 0 01.061-.333l1.834-1.517a.264.264 0 01.412.105c.01.026 1.104 2.662 2.602 2.51.711-.07 1.643-.5 2.467-.88 1.002-.462 1.792-.826 2.267-.645a.577.577 0 01.33.314c.08.186.04.404-.124.663-.819 1.297-5.085 4.012-6.118 4.059h-.027zm-3.136-4.347c1.118 1.894 2.589 3.844 3.139 3.823.763-.034 4.327-2.25 5.469-3.522.314-.35.309-.48.309-.48a.08.08 0 00-.029-.02c-.267-.102-1.15.304-1.858.629-.861.395-1.838.846-2.636.927-1.54.155-2.621-1.732-2.999-2.512l-1.395 1.155z" fill="#000"/><path fill-rule="evenodd" clip-rule="evenodd" d="M303.732 48.5s4.537.799 5.147.002c.61-.796 1.3-6.715.462-6.967-.837-.248-.993 2.935-1.91 4.28-.917 1.343-3.699.445-3.699.445v2.24z" fill="#B52A4E"/><path d="M307.2 49.123c-1.292 0-2.853-.249-3.511-.364a.261.261 0 01-.219-.257l.003-2.24a.26.26 0 01.108-.212.265.265 0 01.238-.037c.026.008 2.605.82 3.397-.343.378-.553.629-1.483.851-2.306.272-1.003.486-1.795.911-2.03a.566.566 0 01.442-.048c.19.058.327.22.417.5.452 1.379-.153 6.103-.748 6.876-.261.348-1.014.461-1.889.461zm-3.202-.841c2.056.343 4.367.464 4.674.066.629-.82 1.102-6.158.581-6.564 0 .003-.005.003-.016.01-.23.129-.467 1.004-.658 1.709-.232.862-.496 1.837-.924 2.463-.819 1.2-2.838.846-3.654.644l-.003 1.672z" fill="#000"/><path fill-rule="evenodd" clip-rule="evenodd" d="M389.733 48.092s-.407 4.9.515 5.468c.922.569 7.384.705 7.569-.212.185-.917-3.271-.76-4.811-1.596-1.543-.838-.853-3.883-.853-3.883l-2.42.223z" fill="#EC6553"/><path d="M394.173 54.28c-1.757 0-3.564-.186-4.06-.493-1.007-.62-.708-4.865-.64-5.712a.262.262 0 01.238-.238l2.417-.226a.26.26 0 01.222.087.27.27 0 01.061.23c-.005.03-.626 2.864.724 3.598.637.346 1.67.521 2.581.673 1.104.186 1.979.333 2.272.755.092.134.124.288.092.448-.039.202-.198.359-.486.48-.642.277-2.015.398-3.421.398zm-4.19-5.943c-.164 2.227-.061 4.716.41 5.005.673.416 4.964.592 6.654.17.45-.113.518-.22.518-.223a.06.06 0 00-.013-.039c-.166-.238-1.141-.403-1.923-.535-.951-.16-2.032-.343-2.745-.73-1.382-.75-1.186-2.956-1.049-3.82l-1.852.172z" fill="#000"/><path fill-rule="evenodd" clip-rule="evenodd" d="M421.161 48.985s-1.905 1.813-1.712 2.332c.193.522 2.92 2.652 3.321 2.348.402-.304-1.133-1.352-1.5-2.18-.368-.828 1.006-1.813 1.006-1.813l-1.115-.687z" fill="#039618"/><path d="M422.666 53.963a.776.776 0 01-.232-.04c-.841-.24-3.01-1.93-3.226-2.51-.222-.594 1.017-1.891 1.775-2.612a.264.264 0 01.322-.034l1.118.689a.261.261 0 01.016.435c-.312.225-1.147.983-.919 1.496.142.322.515.713.845 1.059.446.469.769.81.742 1.129a.427.427 0 01-.169.304.442.442 0 01-.272.084zM421.2 49.32c-.838.82-1.522 1.695-1.498 1.92.135.354 2.108 1.92 2.803 2.165a6.839 6.839 0 00-.528-.6c-.36-.378-.767-.805-.944-1.208-.33-.744.362-1.507.796-1.89l-.629-.387z" fill="#000"/><path d="M29.398 21.452a32.952 32.952 0 002.227 9.598c-1.283-2.678-2.092-5.987-2.227-9.598z" fill="#fff"/><path d="M29.398 21.452c.135 3.608.946 6.92 2.227 9.598a32.786 32.786 0 01-2.227-9.598z" fill="#000"/><path fill-rule="evenodd" clip-rule="evenodd" d="M106.862 39.707v8.039c0 1.603-1.062 2.903-2.375 2.903 0 0-7.812.765-7.542 0 .557-1.58 4.391-4.307 4.391-4.307l.568-5.018 4.958-1.617z" fill="#CC4C71"/><path d="M98.996 51.26c-1.157 0-2.039-.09-2.237-.339a.36.36 0 01-.058-.35c.533-1.515 3.775-3.92 4.391-4.366l.554-4.902a.261.261 0 01.18-.22l4.959-1.62a.263.263 0 01.346.249v8.039c0 1.745-1.184 3.165-2.639 3.165-1.575.157-3.823.343-5.496.343zm-1.751-.637c.682.233 4.111.076 7.22-.228 1.189 0 2.138-1.187 2.138-2.644v-7.677l-4.452 1.451-.55 4.85a.256.256 0 01-.108.184c-.037.029-3.58 2.562-4.248 4.064z" fill="#000"/><path fill-rule="evenodd" clip-rule="evenodd" d="M109.829 39.707v8.039c0 1.603-1.062 2.903-2.375 2.903 0 0-7.812.765-7.543 0 .558-1.58 4.391-4.307 4.391-4.307l.568-5.018 4.959-1.617z" fill="#CC4C71"/><path d="M101.963 51.26c-1.157 0-2.04-.09-2.238-.339a.36.36 0 01-.058-.35c.534-1.515 3.776-3.92 4.391-4.366l.555-4.902a.26.26 0 01.18-.22l4.958-1.62a.266.266 0 01.238.037.26.26 0 01.108.212v8.039c0 1.745-1.183 3.165-2.639 3.165-1.574.157-3.82.343-5.495.343zm-1.749-.637c.682.233 4.111.076 7.22-.228 1.189 0 2.138-1.187 2.138-2.644v-7.677l-4.452 1.451-.549 4.85a.258.258 0 01-.109.184c-.039.029-3.582 2.562-4.248 4.064z" fill="#000"/><path fill-rule="evenodd" clip-rule="evenodd" d="M10.204 44.037s.954 5.934 0 6.733c-.954.8-8.05 1.696-8.349.598-.298-1.098 3.52-1.297 5.128-2.495 1.61-1.197.537-4.836.537-4.836h2.684z" fill="#FF5A3B"/><path d="M3.955 52.142c-.7 0-1.305-.055-1.71-.178-.362-.113-.578-.288-.642-.524-.235-.862 1.01-1.23 2.452-1.654.988-.29 2.106-.62 2.774-1.118 1.445-1.075.452-4.52.441-4.554a.258.258 0 01.043-.23.265.265 0 01.21-.106h2.685c.13 0 .24.095.262.22.163 1.017.927 6.124-.09 6.975-.687.572-4.095 1.169-6.425 1.169zm3.91-7.84c.23.965.731 3.708-.719 4.785-.742.553-1.91.896-2.94 1.2-.978.288-2.19.647-2.093 1.016.006.021.072.092.29.16 1.56.485 6.862-.246 7.633-.89.563-.47.312-3.873-.055-6.27H7.865z" fill="#000"/><path fill-rule="evenodd" clip-rule="evenodd" d="M115.472 28.052c-.92-9.962-5.778-17.94-10.563-18.124-3.511-.133-7.333 2.259-10.472 5.822-1.424-3.579-3.463-5.822-5.725-5.822-4.309 0-7.801 8.128-7.801 18.152 0 10.01 3.482 18.124 7.78 18.15 2.97.566 7.281-3.16 10.76-9.29 1.876 6.526 5.427 10.839 9.073 10.338 4.755-.657 7.867-9.265 6.948-19.226z" fill="#FEA795"/><path d="M107.947 47.583c-3.384 0-6.666-3.804-8.568-9.977-3.466 5.887-7.722 9.438-10.707 8.892-4.5-.054-8.018-8.132-8.018-18.411 0-4.884.819-9.477 2.306-12.938 1.519-3.532 3.564-5.476 5.76-5.476 2.232 0 4.287 1.983 5.809 5.594 3.352-3.684 7.125-5.72 10.398-5.594 5.049.194 9.899 8.429 10.813 18.362.93 10.082-2.29 18.833-7.175 19.506a4.456 4.456 0 01-.618.042zm-8.491-10.902a.263.263 0 01.254.191c1.878 6.537 5.405 10.612 8.781 10.15 4.61-.636 7.624-9.133 6.721-18.94-.877-9.514-5.598-17.707-10.309-17.885-3.204-.118-6.945 1.967-10.263 5.733a.264.264 0 01-.444-.076c-1.432-3.595-3.43-5.655-5.48-5.655-4.155 0-7.537 8.026-7.537 17.89 0 9.84 3.374 17.864 7.52 17.888.015 0 .03.003.047.005 2.85.543 7.064-3.139 10.48-9.162a.257.257 0 01.23-.14z" fill="#000"/><path fill-rule="evenodd" clip-rule="evenodd" d="M35.334 44.037s-.954 5.934 0 6.733c.953.8 8.05 1.696 8.348.598.298-1.098-3.52-1.297-5.128-2.495-1.609-1.197-.536-4.836-.536-4.836h-2.684z" fill="#FF5A3B"/><path d="M41.588 52.142c-2.33 0-5.738-.598-6.422-1.169-1.017-.851-.254-5.958-.09-6.974a.263.263 0 01.262-.22h2.684a.26.26 0 01.254.334c-.011.035-1.004 3.48.44 4.555.67.497 1.787.825 2.775 1.118 1.44.425 2.684.792 2.451 1.654-.063.236-.28.411-.642.524-.406.126-1.009.178-1.712.178zm-6.026-7.84c-.367 2.398-.618 5.801-.055 6.27.771.645 6.074 1.376 7.632.891.22-.068.285-.141.29-.16.101-.369-1.114-.728-2.092-1.016-1.03-.304-2.198-.647-2.94-1.2-1.45-1.08-.951-3.823-.718-4.785h-2.117z" fill="#000"/><path fill-rule="evenodd" clip-rule="evenodd" d="M45.045 29.864c0 .752-.029 1.493-.084 2.23a27.917 27.917 0 01-1.797 7.96c-1.561 3.361-3.995 5.52-6.726 5.52-4.716 0-8.539-6.438-8.539-14.38 0-3.046.563-5.874 1.525-8.2-2.217.896-4.822 1.412-7.609 1.412-2.016 0-3.936-.27-5.683-.757.806 2.193 1.271 4.779 1.271 7.546 0 7.941-3.823 14.379-8.538 14.379-2.732 0-5.165-2.159-6.727-5.52a27.959 27.959 0 01-1.796-7.96 29.578 29.578 0 01-.085-2.23c0-14.01 10.026-25.366 22.393-25.366s22.395 11.356 22.395 25.366z" fill="#F4C446"/><path d="M36.445 45.843c-4.853 0-8.803-6.569-8.803-14.641 0-2.76.457-5.421 1.323-7.743-2.182.797-4.636 1.213-7.143 1.213-1.818 0-3.588-.214-5.27-.639.734 2.177 1.12 4.643 1.12 7.166 0 8.073-3.95 14.641-8.803 14.641-2.753 0-5.292-2.067-6.964-5.675a28.219 28.219 0 01-1.82-8.051A30.42 30.42 0 010 29.868C0 15.738 10.163 4.241 22.657 4.241c12.493 0 22.656 11.497 22.656 25.627 0 .744-.029 1.499-.087 2.248a28.163 28.163 0 01-1.812 8.036c-1.68 3.621-4.22 5.691-6.97 5.691zM29.43 22.74c.07 0 .138.026.188.076a.266.266 0 01.058.285c-.985 2.385-1.503 5.186-1.503 8.102 0 7.784 3.712 14.117 8.274 14.117 2.536 0 4.901-1.957 6.486-5.369a27.636 27.636 0 001.773-7.87c.055-.737.084-1.478.084-2.21 0-13.841-9.925-25.103-22.128-25.103C10.454 4.765.528 16.027.528 29.868c0 .731.03 1.473.085 2.209a27.693 27.693 0 001.778 7.887c1.577 3.395 3.942 5.352 6.478 5.352 4.562 0 8.274-6.332 8.274-14.117 0-2.644-.433-5.222-1.255-7.457a.256.256 0 01.056-.267c.066-.073.169-.1.264-.073 1.778.495 3.664.746 5.611.746 2.658 0 5.255-.482 7.509-1.39a.355.355 0 01.102-.02z" fill="#000"/><path d="M11.043 18.94c-2.805 0-5.202-2.607-5.775-3.286.576-.678 2.972-3.285 5.775-3.285 2.803 0 5.2 2.607 5.775 3.286-.576.678-2.972 3.285-5.775 3.285z" fill="#fff"/><path d="M11.045 12.635c2.5 0 4.684 2.188 5.427 3.023-.743.836-2.93 3.024-5.427 3.024-2.499 0-4.684-2.188-5.426-3.024.742-.838 2.93-3.023 5.426-3.023zm0-.524c-3.379 0-6.116 3.547-6.116 3.547s2.74 3.548 6.116 3.548c3.38 0 6.116-3.548 6.116-3.548s-2.737-3.547-6.116-3.547z" fill="#000"/><path d="M34.886 18.94c-2.805 0-5.201-2.607-5.775-3.286.576-.678 2.972-3.285 5.775-3.285 2.806 0 5.202 2.607 5.776 3.286-.574.678-2.972 3.285-5.776 3.285z" fill="#fff"/><path d="M34.889 12.635c2.499 0 4.684 2.188 5.426 3.023-.742.836-2.93 3.024-5.426 3.024-2.5 0-4.684-2.188-5.427-3.024.743-.838 2.922-3.023 5.427-3.023zm0-.524c-3.38 0-6.116 3.547-6.116 3.547s2.74 3.548 6.116 3.548c3.376 0 6.116-3.548 6.116-3.548s-2.737-3.547-6.116-3.547zM10.627 16.47a.77.77 0 01-.772-.765.767.767 0 01.771-.768.77.77 0 01.772.766c0 .257-.13.492-.343.636a.755.755 0 01-.428.131z" fill="#000"/><path d="M10.631 15.206c.28 0 .507.225.507.503a.506.506 0 01-.507.506.505.505 0 110-1.009zm0-.524a1.037 1.037 0 00-1.036 1.03c0 .568.465 1.027 1.036 1.027.214 0 .412-.066.576-.173a1.029 1.029 0 00-.576-1.884zm24.254 1.788a.77.77 0 01-.772-.765.767.767 0 01.772-.768.77.77 0 01.77.766.765.765 0 01-.343.636.743.743 0 01-.427.131z" fill="#000"/><path d="M34.889 15.206c.28 0 .507.225.507.503a.506.506 0 01-.507.506.505.505 0 110-1.009zm0-.524a1.037 1.037 0 00-1.036 1.03c0 .568.465 1.027 1.036 1.027.214 0 .412-.066.576-.173a1.029 1.029 0 00-.576-1.884z" fill="#000"/><path d="M64.28 3.89h-1.244v6.168h1.245V3.89z" fill="#FF5A3B"/><path d="M64.285 10.327H63.04a.264.264 0 01-.265-.262v-6.17c0-.144.12-.262.265-.262h1.244c.145 0 .264.118.264.262v6.168a.264.264 0 01-.264.264zm-.98-.524h.716V4.157h-.716v5.646z" fill="#000"/><path d="M63.606 4.611c.774 0 1.4-.483 1.4-1.08 0-.595-.626-1.079-1.4-1.079-.773 0-1.4.484-1.4 1.08 0 .596.627 1.08 1.4 1.08z" fill="#FF5A3B"/><path d="M63.61 4.878c-.916 0-1.663-.603-1.663-1.342 0-.739.747-1.341 1.664-1.341.917 0 1.664.602 1.664 1.341 0 .74-.747 1.342-1.664 1.342zm0-2.16c-.625 0-1.135.368-1.135.818 0 .45.51.818 1.136.818.626 0 1.136-.367 1.136-.818 0-.45-.51-.817-1.136-.817z" fill="#000"/><path d="M179.773 6.846h-1.107v5.49h1.107v-5.49z" fill="#68C074"/><path d="M179.775 12.599h-1.107a.263.263 0 01-.264-.262v-5.49c0-.144.118-.262.264-.262h1.107c.145 0 .264.118.264.262v5.49a.264.264 0 01-.264.262zm-.843-.524h.579V7.109h-.579v4.966z" fill="#000"/><path d="M179.171 7.483c.687 0 1.244-.43 1.244-.962 0-.531-.557-.962-1.244-.962-.688 0-1.245.431-1.245.962 0 .531.557.962 1.245.962z" fill="#68C074"/><path d="M179.175 7.75c-.832 0-1.508-.548-1.508-1.224 0-.676.676-1.224 1.508-1.224s1.509.548 1.509 1.224c0 .676-.677 1.223-1.509 1.223zm0-1.921c-.531 0-.98.32-.98.7 0 .38.449.699.98.699.531 0 .98-.32.98-.7 0-.38-.449-.7-.98-.7z" fill="#000"/><path d="M320.582 5.795h-1.107v5.49h1.107v-5.49z" fill="#E85824"/><path d="M320.586 11.55h-1.107a.264.264 0 01-.264-.261v-5.49c0-.143.119-.261.264-.261h1.107c.145 0 .264.118.264.262v5.489a.264.264 0 01-.264.262zm-.843-.523h.579V6.062h-.579v4.965z" fill="#000"/><path d="M319.985 6.437c.687 0 1.244-.43 1.244-.962 0-.53-.557-.961-1.244-.961-.688 0-1.245.43-1.245.962 0 .53.557.961 1.245.961z" fill="#A93535"/><path d="M319.987 6.701c-.833 0-1.509-.548-1.509-1.224 0-.676.676-1.223 1.509-1.223.832 0 1.508.547 1.508 1.223s-.676 1.224-1.508 1.224zm0-1.92c-.531 0-.981.32-.981.699 0 .38.45.7.981.7.531 0 .98-.32.98-.7 0-.38-.449-.7-.98-.7z" fill="#000"/><path d="M339.339 5.795h-1.107v5.49h1.107v-5.49z" fill="#E85824"/><path d="M339.344 11.55h-1.107a.264.264 0 01-.264-.261v-5.49c0-.143.119-.261.264-.261h1.107c.145 0 .264.118.264.262v5.489a.264.264 0 01-.264.262zm-.843-.523h.579V6.062h-.579v4.965z" fill="#000"/><path d="M338.742 6.437c.687 0 1.244-.43 1.244-.962 0-.53-.557-.961-1.244-.961-.687 0-1.244.43-1.244.962 0 .53.557.961 1.244.961z" fill="#A93535"/><path d="M338.744 6.701c-.832 0-1.508-.548-1.508-1.224 0-.676.676-1.223 1.508-1.223s1.509.547 1.509 1.223-.677 1.224-1.509 1.224zm0-1.92c-.531 0-.98.32-.98.699 0 .38.449.7.98.7.531 0 .98-.32.98-.7 0-.38-.449-.7-.98-.7z" fill="#000"/><path fill-rule="evenodd" clip-rule="evenodd" d="M63.245 8.106c-5.86 0-11.12 3.514-13.587 8.741-1.44 3.05-1.583 6.545-1.75 9.86-.19 3.791-.208 7.719.416 11.473.517 3.126 1.165 6.42 2.982 9.1.85 1.255 2.111 2.486 3.741 2.486 3.205 0 5.94-4.857 7.001-11.683.396.032.795.047 1.2.047 8.358 0 15.135-6.72 15.135-15.01S71.603 8.106 63.245 8.106z" fill="#7E3E62"/><path d="M55.05 50.033c-1.438 0-2.806-.899-3.958-2.602-1.831-2.701-2.5-6.026-3.025-9.202-.677-4.082-.579-8.306-.418-11.528l.01-.236c.165-3.294.334-6.7 1.763-9.723 2.552-5.403 7.978-8.893 13.825-8.893 8.49 0 15.4 6.851 15.4 15.273 0 8.42-6.91 15.272-15.4 15.272-.322 0-.65-.01-.975-.031-1.15 7.098-3.973 11.67-7.223 11.67zm8.2-41.66c-5.644 0-10.885 3.372-13.347 8.591-1.385 2.93-1.551 6.283-1.712 9.527l-.01.236c-.162 3.196-.26 7.383.409 11.418.517 3.118 1.17 6.383 2.94 8.995.735 1.082 1.94 2.369 3.522 2.369 2.964 0 5.672-4.606 6.74-11.46a.264.264 0 01.282-.22c.39.03.787.047 1.178.047 8.2 0 14.871-6.616 14.871-14.75C78.121 14.99 71.45 8.374 63.25 8.374z" fill="#000"/><path d="M63.663 30.651c4.423 0 8.008-3.555 8.008-7.941 0-4.386-3.585-7.942-8.008-7.942-4.422 0-8.007 3.556-8.007 7.942s3.585 7.941 8.008 7.941z" fill="#fff"/><path d="M63.664 17.52c2.885 0 5.233 2.329 5.233 5.19s-2.349 5.19-5.233 5.19c-2.885 0-5.234-2.329-5.234-5.19s2.346-5.19 5.234-5.19zm0-5.503c-5.955 0-10.782 4.787-10.782 10.693s4.827 10.693 10.782 10.693c5.954 0 10.781-4.787 10.781-10.693s-4.827-10.693-10.781-10.693z" fill="#000"/><path d="M63.66 26.249c-.214-.034-.772-1.297-.772-3.954 0-.658.04-1.31.114-1.89.193-1.53.552-2.048.66-2.064.212.031.772 1.294.772 3.954 0 1.378-.166 2.654-.444 3.414-.18.482-.322.537-.33.54z" fill="#000"/><path d="M63.667 18.777c.222.477.507 1.693.507 3.522 0 1.35-.161 2.591-.428 3.322a2.42 2.42 0 01-.082.2c-.222-.478-.507-1.693-.507-3.522 0-.647.037-1.29.111-1.858.111-.89.277-1.404.399-1.663zm-.003-.694c-.401 0-.75.933-.922 2.293a15.281 15.281 0 00-.113 1.92c0 2.327.465 4.216 1.035 4.216.214 0 .412-.265.576-.713.278-.757.46-2.043.46-3.503 0-2.324-.465-4.213-1.036-4.213z" fill="#000"/><path d="M91.788 17.964a1.823 1.823 0 01-1.828-1.813 1.82 1.82 0 011.828-1.813c1.007 0 1.828.812 1.828 1.813a1.81 1.81 0 01-.811 1.507 1.818 1.818 0 01-1.017.306z" fill="#fff"/><path d="M91.792 14.606a1.56 1.56 0 011.564 1.551c0 .517-.259.999-.695 1.29-.259.17-.557.261-.869.261a1.56 1.56 0 01-1.564-1.55c0-.25.058-.488.172-.708a1.562 1.562 0 011.392-.844zm0-.524a2.09 2.09 0 00-1.86 1.13 2.03 2.03 0 00-.23.945c0 1.145.938 2.075 2.093 2.075a2.083 2.083 0 002.09-2.075 2.084 2.084 0 00-2.093-2.075z" fill="#000"/><path d="M85.513 17.964a1.823 1.823 0 01-1.828-1.813 1.82 1.82 0 011.828-1.813c1.007 0 1.829.812 1.829 1.813a1.81 1.81 0 01-.811 1.507 1.818 1.818 0 01-1.018.306z" fill="#fff"/><path d="M85.518 14.606a1.56 1.56 0 011.564 1.551c0 .517-.26.999-.695 1.29-.259.17-.558.261-.87.261a1.56 1.56 0 01-1.563-1.55c0-.25.058-.488.171-.708a1.56 1.56 0 011.393-.844zm0-.524a2.09 2.09 0 00-1.86 1.13 2.03 2.03 0 00-.23.945c0 1.145.938 2.075 2.092 2.075a2.086 2.086 0 002.09-2.075 2.084 2.084 0 00-2.092-2.075z" fill="#000"/><path d="M85.198 16.926a.78.78 0 01-.781-.775.777.777 0 01.78-.773.773.773 0 11.003 1.549z" fill="#000"/><path d="M85.203 15.643c.285 0 .518.231.518.514a.519.519 0 01-1.036 0 .518.518 0 01.518-.514zm0-.524a1.045 1.045 0 00-1.046 1.035 1.04 1.04 0 001.046 1.038c.214 0 .415-.066.581-.176.28-.186.465-.503.465-.862a1.04 1.04 0 00-1.046-1.035zm6.27 1.807a.78.78 0 01-.782-.775.777.777 0 01.78-.773.78.78 0 01.782.775.773.773 0 01-.78.773z" fill="#000"/><path d="M91.477 15.643c.286 0 .518.231.518.514a.519.519 0 01-1.035 0 .518.518 0 01.518-.514zm0-.524a1.045 1.045 0 00-1.046 1.035 1.04 1.04 0 001.046 1.038c.214 0 .415-.066.581-.176.28-.186.465-.503.465-.862a1.04 1.04 0 00-1.046-1.035z" fill="#000"/><path d="M65.426 20.241a.713.713 0 01-.322.598.733.733 0 01-.405.12.723.723 0 01-.647-1.048.722.722 0 01.645-.39.727.727 0 01.729.72z" fill="#fff"/><path d="M99.488 36.956a.265.265 0 01-.236-.385l4.92-9.231a.264.264 0 01.467.244l-4.919 9.23a.26.26 0 01-.232.142z" fill="#000"/><path d="M94.395 15.944s2.035 5.185 2.629 7.155l-2.629-7.155z" fill="#fff"/><path d="M97.028 23.368a.265.265 0 01-.254-.186c-.584-1.94-2.602-7.085-2.623-7.137a.26.26 0 01.15-.339.265.265 0 01.341.15c.022.052 2.045 5.22 2.637 7.176a.259.259 0 01-.251.336z" fill="#000"/><path fill-rule="evenodd" clip-rule="evenodd" d="M88.205 24.991s-2.695 9.456-.88 12.034c1.815 2.578.177-2.148.88-4.8.703-2.649 2.46-5.586 2.46-5.586" fill="#FEA795"/><path d="M88.056 38.035c-.277 0-.565-.322-.943-.859-1.865-2.649.73-11.864.84-12.254a.264.264 0 01.507.141c-.026.095-2.639 9.365-.916 11.812.193.272.322.43.41.521.012-.288-.035-.83-.075-1.284-.103-1.163-.246-2.756.072-3.953.705-2.655 2.414-5.534 2.488-5.655a.264.264 0 01.362-.091.26.26 0 01.093.359c-.019.028-1.747 2.937-2.431 5.52-.293 1.108-.156 2.65-.058 3.773.11 1.24.161 1.805-.225 1.944a.293.293 0 01-.124.026zm.04-.518h.002-.002z" fill="#000"/><path fill-rule="evenodd" clip-rule="evenodd" d="M84.221 24.343s-2.695 9.456-.88 12.034c1.815 2.579.177-2.148.88-4.8.703-2.649 2.46-5.586 2.46-5.586" fill="#FEA795"/><path d="M84.072 37.39c-.277 0-.565-.322-.943-.859-1.865-2.649.73-11.864.84-12.254a.264.264 0 01.507.141c-.026.095-2.639 9.365-.916 11.812.193.272.322.43.41.521.012-.288-.035-.83-.075-1.284-.103-1.163-.245-2.756.072-3.953.705-2.655 2.414-5.534 2.488-5.655a.264.264 0 01.455.268c-.019.028-1.747 2.937-2.43 5.52-.294 1.108-.157 2.65-.059 3.773.11 1.24.161 1.805-.225 1.944a.286.286 0 01-.124.027zm.04-.518h.003-.003zm4.533-17.238c-.713 0-1.358-.532-1.6-1.326a.264.264 0 01.505-.155c.176.572.617.957 1.095.957.481 0 .92-.385 1.097-.957a.264.264 0 01.33-.172c.14.041.22.188.174.327-.243.791-.887 1.326-1.6 1.326z" fill="#000"/><path d="M146.815 29.366c-2.264-.668-4.462-1.098-6.485-1.302a38.948 38.948 0 004.631-4.213c6.126-6.514 9.17-13.834 6.803-16.352-2.367-2.518-9.255.72-15.379 7.231a40.747 40.747 0 00-2.945 3.498c-1.303-6.029-3.694-10.069-6.428-10.069-4.127 0-7.474 9.202-7.474 20.55 0 11.347 3.345 20.55 7.474 20.55 3.03 0 5.64-4.963 6.813-12.093 2.423 1.798 5.828 3.464 9.744 4.622 8.345 2.469 15.838 1.685 16.736-1.745.895-3.427-5.144-8.209-13.49-10.677z" fill="#0085D1"/><path d="M127.016 49.53c-4.338 0-7.738-9.142-7.738-20.812 0-11.67 3.398-20.812 7.738-20.812 2.716 0 5.152 3.621 6.563 9.721a42.161 42.161 0 012.618-3.065c4.668-4.963 9.883-8.17 13.283-8.17 1.062 0 1.897.314 2.481.938 2.499 2.657-.489 9.996-6.803 16.709a39.922 39.922 0 01-4.153 3.846c1.91.233 3.889.647 5.892 1.24 8.609 2.543 14.614 7.375 13.666 10.996-.233.888-.861 1.622-1.868 2.188-3.009 1.684-8.974 1.582-15.199-.257-3.627-1.072-6.974-2.63-9.479-4.41-1.278 7.342-3.944 11.888-7.001 11.888zm0-41.102c-1.849 0-3.685 2.13-5.035 5.845-1.4 3.855-2.174 8.982-2.174 14.442 0 5.46.771 10.588 2.174 14.443 1.35 3.715 3.186 5.845 5.035 5.845 2.795 0 5.366-4.661 6.552-11.872a.27.27 0 01.161-.202.267.267 0 01.257.035c2.488 1.847 5.92 3.474 9.661 4.58 6.092 1.8 11.899 1.92 14.789.3.877-.49 1.422-1.115 1.617-1.86.861-3.29-5.109-7.938-13.307-10.362-2.195-.65-4.362-1.085-6.438-1.292a.264.264 0 01-.228-.188.265.265 0 01.093-.28 38.64 38.64 0 004.599-4.185c6.024-6.404 9.075-13.578 6.803-15.993-.481-.511-1.186-.77-2.095-.77-3.212 0-8.396 3.217-12.897 8.004a41.233 41.233 0 00-2.928 3.474.268.268 0 01-.269.1.266.266 0 01-.203-.202c-1.311-6.084-3.675-9.862-6.167-9.862z" fill="#000"/><path fill-rule="evenodd" clip-rule="evenodd" d="M295.32 34.494s2.138-3.037 5.437-1.593c1.546.676 3.44 1.705 3.929 1.218.491-.487-1.229-1.218-4.174-2.68-.457-.228 3.915 1.81 4.174.974.261-.843-5.21-2.727-4.42-2.436 2.639.974 4.076 1.006 4.174.73.296-.822-8.76-5.143-11.975-.998-5.078 6.545 2.855 4.785 2.855 4.785z" fill="#B52A4E"/><path d="M293.333 34.974c-1.007 0-2.103-.191-2.581-.938-.6-.935-.106-2.4 1.511-4.483 2.436-3.139 8.092-1.74 11.085-.12 1.54.833 1.403 1.22 1.35 1.367a.406.406 0 01-.23.234c-.179.08-.47.107-.848.078.832.459 1.458.957 1.326 1.381a.502.502 0 01-.282.312c-.135.06-.344.107-.745.055.75.422 1.064.697 1.117 1.006a.504.504 0 01-.153.443c-.534.529-1.841-.076-3.358-.773-.293-.134-.584-.27-.864-.39-3.059-1.337-5.032 1.388-5.114 1.503a.263.263 0 01-.159.105c-.079.016-1.02.22-2.055.22zm3.434-6.77c-1.506 0-3.086.377-4.087 1.669-1.424 1.834-1.936 3.175-1.482 3.883.621.967 2.996.707 3.976.506.396-.5 2.56-2.969 5.696-1.599.283.123.579.26.874.396.933.43 2.492 1.148 2.764.878h.002c-.108-.296-1.513-.985-2.998-1.714l-1.11-.545c-.256-.126-.166-.338-.155-.361.108-.231.332-.137.48-.074 2.949 1.255 3.596 1.14 3.707 1.093-.153-.427-2.264-1.365-3.543-1.858a21.55 21.55 0 01-.708-.249c-.214-.078-.293-.202-.235-.361.048-.134.214-.202.351-.158.014.006.32.108.774.275 1.794.598 2.727.645 3.054.606-.446-.49-2.776-1.777-5.619-2.235a10.835 10.835 0 00-1.741-.152zm-172.154-15.89c-.108 0-.198-.102-.198-.228 0-.04.008-.076.024-.11a.192.192 0 01.172-.118c.108 0 .198.102.198.228a.235.235 0 01-.095.194.185.185 0 01-.101.034z" fill="#000"/><path d="M124.617 11.598a.455.455 0 00-.409.267.524.524 0 00-.05.223c0 .27.206.49.462.49a.44.44 0 00.256-.084.5.5 0 00.204-.409c-.003-.267-.209-.487-.463-.487zm3.132.91c-.108 0-.198-.102-.198-.228 0-.04.008-.076.024-.11a.192.192 0 01.172-.118c.108 0 .198.102.198.228a.235.235 0 01-.095.194.16.16 0 01-.101.034z" fill="#000"/><path d="M127.753 11.795a.455.455 0 00-.409.267.524.524 0 00-.05.223c0 .27.206.49.462.49a.44.44 0 00.256-.084.5.5 0 00.204-.41.478.478 0 00-.463-.486zm20.016-2.426c-.108 0-.198-.102-.198-.228 0-.04.008-.076.024-.11a.192.192 0 01.172-.118c.108 0 .198.102.198.228a.235.235 0 01-.095.194.157.157 0 01-.101.034z" fill="#000"/><path d="M147.774 8.656a.456.456 0 00-.41.267.524.524 0 00-.05.223c0 .27.206.49.462.49a.443.443 0 00.257-.084.499.499 0 00.203-.409.476.476 0 00-.462-.487zm2.674 2.384c-.109 0-.198-.101-.198-.227 0-.04.007-.076.023-.11a.194.194 0 01.172-.118c.108 0 .198.102.198.228a.232.232 0 01-.095.194.17.17 0 01-.1.034z" fill="#000"/><path d="M150.449 10.322a.455.455 0 00-.409.267.524.524 0 00-.05.223c0 .27.206.49.462.49a.44.44 0 00.256-.084.497.497 0 00.204-.409.478.478 0 00-.463-.487z" fill="#000"/><path fill-rule="evenodd" clip-rule="evenodd" d="M126.869 15.9c-1.751 0-2.863-.897-3.275-1.387l.184.079c.642.277 1.715.741 2.999.741h.211c1.284 0 2.357-.464 2.999-.741.061-.027.124-.055.185-.079-.412.493-1.525 1.386-3.276 1.386h-.027z" fill="#A93535"/><path d="M126.903 16.165h-.029c-2.132 0-3.271-1.234-3.48-1.483a.263.263 0 01.307-.409l.187.081c.624.27 1.665.72 2.893.72h.214c1.226 0 2.267-.45 2.89-.72l.188-.081a.262.262 0 01.306.409c-.206.249-1.347 1.483-3.476 1.483zm-1.107-.65a4.48 4.48 0 001.078.126h.029c.362 0 .7-.042 1.014-.116-.293.048-.6.074-.922.074h-.209a5.688 5.688 0 01-.99-.084z" fill="#000"/><path fill-rule="evenodd" clip-rule="evenodd" d="M147.594 12.681c-1.078-.569-1.632-1.562-1.783-2.238-.045-.204-.037-.317-.024-.35.064.036.169.178.293.342.325.435.872 1.166 1.736 1.622l.069.037c.021.01.042.024.066.037.864.456 1.738.48 2.264.492.201.006.375.01.433.04h.003c-.019.031-.098.107-.28.194-.597.28-1.678.408-2.753-.163l-.024-.013z" fill="#A93535"/><path d="M149.208 13.358a3.652 3.652 0 01-1.71-.43l-.023-.013c-1.158-.613-1.755-1.682-1.916-2.413-.034-.152-.063-.364-.013-.497a.256.256 0 01.159-.155.262.262 0 01.221.021c.106.06.201.183.373.414.314.42.837 1.119 1.648 1.548l.138.074c.808.427 1.646.448 2.145.46.296.009.444.014.55.072l.015.008a.265.265 0 01.093.351c-.071.13-.256.235-.396.3a3.15 3.15 0 01-1.284.26zm-1.485-.906l.024.013c.57.301 1.138.393 1.624.367a4.421 4.421 0 01-1.537-.47l-.135-.07a4.518 4.518 0 01-1.17-.907 3.32 3.32 0 001.194 1.067z" fill="#000"/><path d="M179.456 19.294c2.814 0 5.096-2.262 5.096-5.054 0-2.791-2.282-5.054-5.096-5.054-2.815 0-5.096 2.263-5.096 5.054 0 2.792 2.281 5.054 5.096 5.054z" fill="#68C074"/><path d="M179.46 19.56c-2.956 0-5.36-2.384-5.36-5.316s2.404-5.316 5.36-5.316c2.956 0 5.361 2.384 5.361 5.316s-2.405 5.317-5.361 5.317zm0-10.108c-2.663 0-4.832 2.149-4.832 4.792 0 2.644 2.167 4.792 4.832 4.792 2.666 0 4.832-2.148 4.832-4.792 0-2.643-2.166-4.792-4.832-4.792z" fill="#000"/><path d="M176.642 14.222a.212.212 0 01-.214-.212.19.19 0 01.024-.094.21.21 0 01.19-.116.212.212 0 01.119.388.242.242 0 01-.119.034z" fill="#000"/><path d="M176.647 13.54a.482.482 0 00-.426.256.466.466 0 00-.053.215.476.476 0 00.745.393.474.474 0 00.212-.393.48.48 0 00-.478-.471zm5.508.682a.213.213 0 01-.214-.212.19.19 0 01.024-.094.21.21 0 01.19-.116.212.212 0 01.119.388.23.23 0 01-.119.034z" fill="#000"/><path d="M182.16 13.54a.482.482 0 00-.426.256.476.476 0 00.693.608.475.475 0 00.211-.393.476.476 0 00-.478-.471z" fill="#000"/><path fill-rule="evenodd" clip-rule="evenodd" d="M182.037 15.493c0 1.774-1.234 3.21-2.758 3.21-1.522 0-2.758-1.44-2.758-3.21h5.516z" fill="#A93535"/><path d="M179.28 18.966c-1.667 0-3.022-1.559-3.022-3.472 0-.144.119-.262.264-.262h5.516c.146 0 .265.118.265.262 0 1.916-1.356 3.472-3.023 3.472zm-2.483-3.21c.114 1.504 1.184 2.686 2.483 2.686 1.3 0 2.373-1.184 2.484-2.686h-4.967z" fill="#000"/><path d="M202.802 53c4.193 0 7.593-8.862 7.593-19.795 0-10.932-3.4-19.795-7.593-19.795-4.194 0-7.593 8.863-7.593 19.795 0 10.933 3.399 19.795 7.593 19.795z" fill="#B52A4E"/><path d="M202.803 53.26c-4.406 0-7.856-8.808-7.856-20.056 0-11.248 3.45-20.057 7.856-20.057 4.407 0 7.857 8.809 7.857 20.057s-3.453 20.057-7.857 20.057zm0-39.587c-4.042 0-7.328 8.762-7.328 19.533 0 10.772 3.286 19.533 7.328 19.533 4.043 0 7.329-8.761 7.329-19.533 0-10.771-3.289-19.533-7.329-19.533z" fill="#000"/><path d="M221.527 49.695c10.065 0 18.224-8.092 18.224-18.073 0-9.982-8.159-18.074-18.224-18.074-10.064 0-18.223 8.092-18.223 18.074 0 9.981 8.159 18.073 18.223 18.073z" fill="#B52A4E"/><path d="M221.532 49.962c-10.195 0-18.488-8.225-18.488-18.336 0-10.111 8.293-18.336 18.488-18.336s18.488 8.225 18.488 18.336c0 10.111-8.293 18.336-18.488 18.336zm0-36.145c-9.902 0-17.96 7.989-17.96 17.812 0 9.82 8.055 17.811 17.96 17.811 9.904 0 17.959-7.989 17.959-17.811 0-9.823-8.057-17.812-17.959-17.812z" fill="#000"/><path d="M221.53 40.662c5.831 0 10.557-4.688 10.557-10.47 0-5.783-4.726-10.47-10.557-10.47-5.83 0-10.557 4.687-10.557 10.47 0 5.782 4.727 10.47 10.557 10.47z" fill="#000"/><path d="M221.532 40.925c-5.968 0-10.821-4.816-10.821-10.732 0-5.916 4.856-10.732 10.821-10.732s10.821 4.816 10.821 10.732c0 5.916-4.853 10.732-10.821 10.732zm0-20.94c-5.675 0-10.293 4.58-10.293 10.208S215.857 40.4 221.532 40.4c5.675 0 10.293-4.58 10.293-10.208s-4.616-10.208-10.293-10.208z" fill="#000"/><path fill-rule="evenodd" clip-rule="evenodd" d="M214.151 37.68s2.603-3.33 6.436-3.33c3.833 0 7.207-.399 9.714 1.666 0 0-2.943 4.997-8.824 4.622-5.878-.38-7.326-2.958-7.326-2.958z" fill="#9A7BF8"/><path d="M222.105 40.923c-.209 0-.423-.008-.64-.021-5.954-.38-7.479-2.98-7.539-3.09a.263.263 0 01.021-.288c.108-.139 2.726-3.432 6.644-3.432.542 0 1.075-.008 1.598-.016 3.25-.05 6.058-.092 8.283 1.743.1.08.124.222.058.332-.024.05-2.872 4.772-8.425 4.772zm-7.619-3.223c.169.22.565.663 1.31 1.124.972.605 2.753 1.365 5.704 1.554 4.998.32 7.846-3.41 8.454-4.303-2.053-1.561-4.703-1.522-7.757-1.477-.525.008-1.062.015-1.606.015-3.207.003-5.556 2.458-6.105 3.087z" fill="#000"/><path d="M221.673 37.216c3.115 0 5.64-2.505 5.64-5.594 0-3.09-2.525-5.594-5.64-5.594-3.115 0-5.64 2.505-5.64 5.594 0 3.09 2.525 5.594 5.64 5.594z" fill="#9A7BF8"/><path d="M221.678 37.482c-3.255 0-5.905-2.628-5.905-5.856 0-3.228 2.65-5.856 5.905-5.856 3.254 0 5.904 2.628 5.904 5.856 0 3.23-2.65 5.856-5.904 5.856zm0-11.188c-2.965 0-5.377 2.392-5.377 5.332s2.412 5.332 5.377 5.332c2.964 0 5.376-2.392 5.376-5.332s-2.412-5.332-5.376-5.332z" fill="#000"/><path d="M225.61 32.13c-1.017 0-1.992-.278-2.475-.44.396-.516 1.342-1.588 2.362-1.588 1.03 0 1.952 1.098 2.319 1.604a6.136 6.136 0 01-2.206.424z" fill="#fff"/><path d="M225.5 30.366c.718 0 1.442.67 1.894 1.218a5.812 5.812 0 01-1.781.288c-.768 0-1.516-.165-2.029-.314.473-.545 1.205-1.192 1.916-1.192zm0-.524c-1.501 0-2.78 1.978-2.78 1.978s1.393.574 2.893.574c1.501 0 2.603-.574 2.603-.574S227 29.842 225.5 29.842z" fill="#000"/><path d="M218.895 32.13c-1.014 0-1.992-.278-2.475-.44.396-.516 1.342-1.588 2.362-1.588 1.03 0 1.952 1.098 2.319 1.604a6.126 6.126 0 01-2.206.424z" fill="#fff"/><path d="M218.784 30.366c.719 0 1.443.67 1.895 1.218a5.818 5.818 0 01-1.781.288c-.769 0-1.516-.165-2.029-.314.473-.545 1.205-1.192 1.915-1.192zm0-.524c-1.5 0-2.779 1.978-2.779 1.978s1.392.574 2.893.574 2.602-.574 2.602-.574-1.215-1.978-2.716-1.978z" fill="#000"/><path d="M219.357 31.342a.192.192 0 01-.173-.278.196.196 0 01.173-.107.193.193 0 01.107.354.214.214 0 01-.107.03z" fill="#000"/><path d="M219.363 30.696a.462.462 0 00-.46.456c0 .252.206.456.46.456a.474.474 0 00.256-.076.458.458 0 00-.256-.836zm6.71.646a.192.192 0 01-.173-.281.196.196 0 01.173-.107.192.192 0 01.107.354.198.198 0 01-.107.034z" fill="#000"/><path d="M226.079 30.696a.462.462 0 00-.46.456c0 .252.206.456.46.456a.474.474 0 00.256-.076.45.45 0 00.204-.38.458.458 0 00-.46-.456z" fill="#000"/><path fill-rule="evenodd" clip-rule="evenodd" d="M222.252 32.34l-.579 1.147h1.012l-.433-1.148z" fill="#B52A4E"/><path d="M222.689 33.754h-1.012a.263.263 0 01-.224-.124.256.256 0 01-.011-.254l.579-1.147a.259.259 0 01.251-.145.26.26 0 01.232.17l.433 1.148a.267.267 0 01-.029.241.273.273 0 01-.219.11zm-.584-.524h.204l-.088-.231-.116.23z" fill="#000"/><path fill-rule="evenodd" clip-rule="evenodd" d="M220.292 34.603h3.92s-1.02 1.478-1.96 1.557c-.941.079-1.96-1.556-1.96-1.556z" fill="#000"/><path d="M222.19 36.428c-1.038 0-2.011-1.506-2.119-1.682a.262.262 0 01.225-.398h3.92c.098 0 .188.055.233.139a.262.262 0 01-.016.27c-.111.162-1.12 1.582-2.156 1.669l-.087.002zm-1.384-1.558c.367.469.953 1.074 1.429 1.032.489-.04 1.067-.59 1.445-1.032h-2.874z" fill="#000"/><path fill-rule="evenodd" clip-rule="evenodd" d="M256.815 33.033c-.468 2.993-.909 6.032-1.181 9.192-.132 1.582-.225 3.196-.193 4.9.016.851.066 1.726.188 2.651.124.925.306 1.9.679 2.977a3.806 3.806 0 004.842 2.324c1.921-.669 2.93-2.767 2.354-4.703l-.013-.048a7.999 7.999 0 01-.251-1.425 19.552 19.552 0 01-.069-1.842c.008-1.3.114-2.688.267-4.095.153-1.407.357-2.84.581-4.287.228-1.444.465-2.903.716-4.37.5-2.943 1.044-5.911 1.488-9 .216-1.551.414-3.126.51-4.824a23.24 23.24 0 00-.003-2.73 12.863 12.863 0 00-.204-1.62l-.097-.455a24.11 24.11 0 00-.138-.498 2.805 2.805 0 00-.087-.265l-.1-.275a6.23 6.23 0 00-.259-.592c-.053-.105-.093-.197-.159-.31a10.092 10.092 0 00-.206-.337l-.108-.165c-.037-.055-.071-.108-.122-.17a8.75 8.75 0 00-.288-.357 5.414 5.414 0 00-.713-.694c-.069-.055-.132-.11-.203-.163-.077-.052-.153-.107-.23-.157a6.793 6.793 0 00-.481-.288 6.265 6.265 0 00-1.038-.422 8.208 8.208 0 00-.515-.12c-.088-.019-.175-.032-.262-.048l-.129-.02-.114-.016a9.405 9.405 0 00-.468-.027 5.242 5.242 0 00-.409 0c-.193.011-.367.019-.573.043a7.022 7.022 0 00-1.67.385c-.127.047-.251.1-.375.152a4.56 4.56 0 00-.378.18c-.127.069-.251.134-.375.213a6.18 6.18 0 00-1.371 1.155c-.383.44-.692.92-.906 1.36-.436.893-.59 1.64-.695 2.277a13.02 13.02 0 00-.135 1.648c-.021.961.024 1.742.037 2.44.016.69.013 1.288-.034 1.747-.043.458-.426.964-.801 1.037-.042.01-.092.019-.145.027-.095.013-.19.028-.285.039a5.01 5.01 0 01-.214.02c-.127.006-.243.022-.378.022l-.198.008c-.069.005-.114-.003-.172-.003-.111-.003-.219-.005-.33-.003-.103-.005-.193-.023-.291-.031-.047-.005-.098-.005-.143-.013a1.947 1.947 0 00-.24-.05l-.061-.01-.047-.019c-.064-.023-.135-.039-.198-.057a.889.889 0 00-.162-.069c-.05-.023-.087-.052-.137-.07-.05-.018-.077-.058-.124-.079a1.795 1.795 0 01-.484-.524c-.351-.508-.663-1.462-.805-2.562a13.86 13.86 0 01-.119-1.743c-.006-.301 0-.602.01-.904l.021-.442.014-.21c.002-.055.013-.155.005-.142.394-2.04-.956-4.011-3.014-4.401-2.058-.39-4.045.948-4.439 2.99l-.087.413-.069.349c-.042.228-.079.45-.111.676a25.45 25.45 0 00-.15 1.341 19.93 19.93 0 00-.029 2.76c.063.942.187 1.92.446 2.928a12.34 12.34 0 001.239 3.095 10.091 10.091 0 002.47 2.858c.265.194.523.401.804.569.28.165.562.338.85.482.291.134.584.262.877.385.294.108.587.2.883.291l.222.068.216.05.434.094.435.09c.143.023.28.036.42.054.281.032.566.069.838.087l.806.023c.132 0 .274.008.396.003l.37-.013c.243-.005.502-.029.753-.047.256-.021.52-.055.782-.09.272-.044.536-.078.819-.14a10.644 10.644 0 001.738-.501h.003c.039.01.594.152.272 2.043z" fill="#9A7BF8"/><path d="M259.897 55.558a4.085 4.085 0 01-1.762-.403 4.01 4.01 0 01-2.074-2.311c-.415-1.192-.586-2.243-.69-3.026a24.876 24.876 0 01-.19-2.683c-.034-1.89.085-3.624.193-4.926.275-3.213.732-6.325 1.184-9.21v-.003c.2-1.184.037-1.585-.045-1.705a11.21 11.21 0 01-1.651.463c-.22.05-.431.082-.637.113l-.19.029c-.275.034-.545.068-.803.089l-.188.013a11.23 11.23 0 01-.581.034l-.365.013a5.017 5.017 0 01-.28 0l-.938-.026c-.23-.016-.457-.042-.681-.068l-.304-.037c-.103-.013-.206-.023-.309-.042l-1.102-.235-.021-.006-.296-.091c-.269-.084-.547-.17-.822-.273a25.93 25.93 0 01-.898-.395c-.267-.134-.52-.286-.766-.433l-.108-.065c-.227-.137-.439-.296-.645-.448l-.18-.134a10.317 10.317 0 01-2.541-2.94 12.473 12.473 0 01-1.265-3.16 16.39 16.39 0 01-.455-2.976 20.066 20.066 0 01.029-2.796c.04-.458.09-.917.151-1.36.034-.228.071-.456.113-.686l.154-.768c.42-2.175 2.549-3.608 4.747-3.194 2.188.414 3.633 2.51 3.231 4.68 0 .031-.003.06-.003.081l-.037.705c-.01.285-.015.587-.01.888.003.55.042 1.124.119 1.711.132 1.02.422 1.96.761 2.45.134.204.256.343.401.448a.51.51 0 01.085.058c.037.015.079.039.121.062l.024.014c.053.018.106.039.156.065l.037.01c.053.014.106.03.156.048l.055.013.135.023c.037.008.077.016.116.027.016.002.032.002.048.002.024.003.05.003.071.005.042.003.093.008.143.016.045.005.087.01.135.013a14.1 14.1 0 01.47.005l.206-.007c.087 0 .158-.006.23-.014.047-.002.097-.007.145-.01a5.579 5.579 0 00.473-.06c.042-.005.082-.013.116-.021.248-.047.571-.435.605-.807.042-.412.053-.957.034-1.716-.002-.2-.01-.404-.015-.619-.016-.534-.035-1.14-.022-1.834a13.31 13.31 0 01.138-1.68c.116-.694.28-1.456.718-2.352.238-.49.566-.98.944-1.415.406-.461.9-.878 1.431-1.205a7.605 7.605 0 01.79-.412 15.1 15.1 0 01.381-.154c.116-.045.224-.076.335-.11l.04-.014a7.552 7.552 0 011.839-.314l.111-.005a4.8 4.8 0 01.433 0c.161.005.322.013.481.026l.264.031a9.04 9.04 0 01.803.173c.412.129.777.278 1.094.443a7.284 7.284 0 01.74.464c.071.052.129.102.192.152l.027.024c.222.186.531.46.75.733.098.116.198.239.293.362a1.794 1.794 0 01.132.186l.109.165c.074.115.145.233.211.348.053.092.09.168.13.25l.037.075c.134.275.216.467.272.621l.1.273c.037.102.071.201.093.285.047.163.095.33.137.5l.1.467c.106.553.175 1.093.209 1.656.056.875.058 1.727.003 2.762-.098 1.726-.304 3.35-.513 4.847-.338 2.353-.737 4.659-1.123 6.886-.124.71-.245 1.417-.364 2.122-.233 1.36-.468 2.788-.716 4.368a96.772 96.772 0 00-.581 4.273c-.172 1.588-.259 2.916-.267 4.07-.003.71.018 1.304.068 1.818a7.6 7.6 0 00.241 1.375l.013.047c.626 2.11-.481 4.318-2.52 5.026a3.755 3.755 0 01-1.345.243zm-2.816-22.478c-.449 2.875-.904 5.977-1.178 9.17-.109 1.29-.228 3.006-.193 4.871.018.941.076 1.798.185 2.623.1.758.266 1.777.665 2.924a3.495 3.495 0 001.805 2.01c.85.409 1.809.461 2.7.152 1.772-.616 2.734-2.542 2.187-4.383l-.013-.048c-.116-.388-.209-.925-.262-1.475-.05-.53-.074-1.14-.071-1.868.005-1.169.095-2.518.27-4.121.14-1.277.325-2.642.583-4.297a349 349 0 01.716-4.376c.119-.705.243-1.412.365-2.125.386-2.224.785-4.525 1.12-6.87.206-1.486.412-3.094.51-4.803a22.215 22.215 0 00-.003-2.698c-.034-.543-.1-1.061-.2-1.586l-.096-.45a13.93 13.93 0 00-.132-.48 2.858 2.858 0 00-.082-.249l-.1-.275a6.261 6.261 0 00-.248-.566l-.04-.078a3.168 3.168 0 00-.111-.215 7.607 7.607 0 00-.201-.328l-.105-.162a3.224 3.224 0 00-.106-.152 6.97 6.97 0 00-.283-.348 4.943 4.943 0 00-.681-.663l-.027-.021c-.053-.045-.105-.09-.163-.131a8.07 8.07 0 00-.682-.427 6.008 6.008 0 00-.991-.401 7.641 7.641 0 00-.486-.113c-.084-.016-.166-.032-.251-.045l-.227-.028a8.479 8.479 0 00-.452-.027 4.241 4.241 0 00-.375 0l-.121.008a7.062 7.062 0 00-1.712.29l-.04.014c-.1.032-.201.063-.304.102a8.21 8.21 0 00-.362.147c-.105.045-.222.1-.356.173-.122.065-.244.128-.362.202a5.879 5.879 0 00-1.311 1.105 6 6 0 00-.866 1.3c-.431.88-.574 1.601-.674 2.206a12.565 12.565 0 00-.129 1.612c-.014.678.005 1.278.021 1.805.005.215.013.422.016.62.018.782.007 1.348-.037 1.78-.053.582-.526 1.174-1.012 1.268-.035.01-.093.018-.156.029-.098.016-.196.029-.293.042-.072.008-.146.018-.225.023l-.137.01c-.085.006-.167.014-.259.014l-.19.008c-.048.002-.09 0-.133 0l-.05-.003c-.113-.002-.219-.005-.325-.002a2.509 2.509 0 01-.19-.019c-.04-.005-.079-.01-.121-.013l-.061-.005a1.33 1.33 0 01-.103-.01l-.029-.006a1.355 1.355 0 00-.217-.044l-.061-.01a.32.32 0 01-.053-.014l-.047-.018c-.034-.013-.069-.021-.103-.032l-.077-.02c-.018-.006-.034-.014-.053-.022a.582.582 0 00-.111-.047l-.042-.016c-.024-.01-.045-.023-.066-.036-.013-.008-.026-.016-.042-.021a.544.544 0 01-.143-.081c-.018-.008-.031-.019-.047-.03a2.072 2.072 0 01-.552-.597c-.386-.558-.703-1.559-.846-2.672a14.218 14.218 0 01-.121-1.774c-.006-.31 0-.618.01-.914l.04-.726.002-.032a.277.277 0 01.003-.076c.365-1.897-.893-3.733-2.806-4.095-1.912-.364-3.764.886-4.129 2.783l-.153.76c-.04.222-.077.442-.108.665-.061.432-.111.878-.148 1.326a19.313 19.313 0 00-.027 2.722c.069 1.059.214 2.002.439 2.88a12.035 12.035 0 001.212 3.029 9.72 9.72 0 002.405 2.782l.179.134c.204.152.394.296.597.416l.109.066c.237.141.483.288.723.409.278.128.571.256.862.38.253.091.512.175.787.259l.283.086 1.072.228c.087.013.183.026.278.037l.301.037c.216.026.436.05.644.065l.925.026c.085.003.169.006.243 0l.373-.013c.182-.005.37-.018.557-.034l.188-.013c.248-.02.51-.052.768-.086l.185-.03a7.48 7.48 0 00.611-.11 10.889 10.889 0 001.704-.487.271.271 0 01.158-.01c.249.042.801.375.468 2.33z" fill="#000"/><path d="M259.995 18.734c1.748 0 3.165-.795 3.165-1.774 0-.98-1.417-1.774-3.165-1.774s-3.165.794-3.165 1.774 1.417 1.774 3.165 1.774z" fill="#fff"/><path d="M259.998 15.45c1.218 0 2.314.988 2.808 1.512-.497.524-1.593 1.511-2.808 1.511-1.218 0-2.315-.987-2.809-1.511.497-.524 1.593-1.512 2.809-1.512zm0-.524c-1.939 0-3.509 2.036-3.509 2.036s1.572 2.035 3.509 2.035c1.936 0 3.508-2.035 3.508-2.035s-1.569-2.036-3.508-2.036z" fill="#000"/><path d="M260.442 18.252c-.338 0-.716-.532-.716-1.295 0-.22.032-.437.095-.629.13-.403.376-.665.621-.665.338 0 .716.532.716 1.294 0 .448-.14.875-.364 1.114-.077.084-.201.18-.352.18z" fill="#000"/><path d="M260.447 15.929c.156 0 .451.4.451 1.032 0 .459-.15.786-.293.935-.058.06-.116.097-.158.097-.156 0-.452-.4-.452-1.032 0-.194.029-.383.082-.55.108-.333.28-.482.37-.482zm0-.524c-.381 0-.711.343-.872.846a2.306 2.306 0 00-.108.71c0 .86.438 1.556.98 1.556.2 0 .388-.097.547-.262.261-.28.435-.754.435-1.294-.002-.86-.441-1.556-.982-1.556z" fill="#000"/><path d="M244.249 18.17c-1.001 0-1.886-.86-2.214-1.224.331-.364 1.213-1.223 2.214-1.223 1.002 0 1.887.86 2.214 1.223-.327.365-1.21 1.224-2.214 1.224z" fill="#fff"/><path d="M244.252 15.987c.766 0 1.474.581 1.852.961-.378.38-1.086.962-1.852.962s-1.474-.582-1.852-.962c.38-.38 1.086-.961 1.852-.961zm0-.524c-1.414 0-2.56 1.485-2.56 1.485s1.146 1.486 2.56 1.486c1.413 0 2.56-1.486 2.56-1.486s-1.144-1.485-2.56-1.485z" fill="#000"/><path d="M243.783 18.34c-.214 0-.452-.374-.452-.872 0-.155.024-.304.066-.438.085-.262.241-.437.386-.437.214 0 .452.374.452.872 0 .31-.096.603-.246.765-.048.053-.122.11-.206.11z" fill="#000"/><path d="M243.79 16.872c.069.063.188.273.188.6 0 .294-.096.5-.175.587l-.013.013c-.069-.063-.188-.272-.188-.6 0-.126.019-.249.053-.359a.578.578 0 01.135-.24zm-.003-.537c-.277 0-.518.252-.636.618a1.66 1.66 0 00-.08.52c0 .625.32 1.134.716 1.134a.55.55 0 00.399-.191c.19-.205.317-.55.317-.944 0-.629-.319-1.137-.716-1.137z" fill="#000"/><path fill-rule="evenodd" clip-rule="evenodd" d="M289.888 39.438c-.824 0-1.635.023-2.428.07a1.137 1.137 0 01-1.188-1.351l.045-.236a.729.729 0 01.705-.595c6.956-.189 12.478-2.968 12.478-6.372s-5.522-6.184-12.478-6.372a.736.736 0 01-.705-.595c-.019-.1-.037-.2-.059-.299a.728.728 0 01.719-.867c7.305 0 13.225-2.859 13.225-6.383s-5.92-6.382-13.225-6.382c-4.895 0-9.175 1.59-11.463 3.498-3.487 2.434-5.997 9.136-5.997 17.402 0 7.617 2.14 14.165 5.202 17.052 2.256 2.45 8.195 4.2 15.167 4.2 8.911 0 16.136-2.858 16.136-6.382 0-3.524-7.223-6.388-16.134-6.388z" fill="#FF5A3B"/><path d="M289.893 52.472c-6.829 0-13.003-1.721-15.363-4.284-3.196-3.013-5.27-9.778-5.27-17.227 0-8.112 2.399-15.026 6.108-17.618 2.576-2.148 7.141-3.545 11.613-3.545 7.44 0 13.49 2.982 13.49 6.645 0 3.663-6.053 6.644-13.49 6.644a.469.469 0 00-.459.556c.021.1.039.2.058.301a.472.472 0 00.452.383c7.141.191 12.734 3.107 12.734 6.634s-5.593 6.443-12.734 6.634a.466.466 0 00-.452.383l-.045.238a.868.868 0 00.911 1.038 41.982 41.982 0 012.444-.074c9.197 0 16.401 2.92 16.401 6.645 0 3.726-7.202 6.647-16.398 6.647zm-2.909-42.15c-4.356 0-8.789 1.35-11.294 3.438-3.537 2.47-5.902 9.377-5.902 17.201 0 7.313 2.011 13.929 5.12 16.86 2.277 2.474 8.296 4.127 14.985 4.127 8.752 0 15.872-2.746 15.872-6.12 0-3.375-7.12-6.121-15.872-6.121-.806 0-1.617.023-2.412.07a1.403 1.403 0 01-1.142-.47 1.384 1.384 0 01-.322-1.193l.045-.233a.991.991 0 01.956-.81c6.853-.183 12.222-2.869 12.222-6.11s-5.369-5.927-12.222-6.11a.991.991 0 01-.956-.81c-.018-.1-.037-.196-.058-.296a.98.98 0 01.209-.82 1 1 0 01.771-.361c7.146 0 12.961-2.746 12.961-6.121 0-3.375-5.815-6.12-12.961-6.12z" fill="#000"/><path d="M298.831 17.056a.296.296 0 01-.267-.427.301.301 0 01.265-.162.296.296 0 01.163.542.276.276 0 01-.161.047z" fill="#000"/><path d="M298.836 16.733c.018 0 .034.016.034.034a.03.03 0 01-.016.027c-.008.005-.013.005-.018.005a.035.035 0 01-.035-.034l.003-.016c.005-.002.013-.016.032-.016zm0-.524a.554.554 0 00-.56.558.56.56 0 001.122 0 .559.559 0 00-.562-.558zm-1.767-2.299a.296.296 0 11-.003-.591.294.294 0 01.164.54.269.269 0 01-.161.052z" fill="#000"/><path d="M297.073 13.587c.019 0 .035.016.035.034a.03.03 0 01-.016.026c-.008.005-.013.005-.019.005a.035.035 0 01-.034-.034l.003-.015c.005-.003.013-.016.031-.016zm0-.524a.562.562 0 00-.56.558.56.56 0 001.123 0 .562.562 0 00-.563-.558zm-1.914 1.224s-4.425 4.68 2.04 4.46c-2.241-3.024-2.04-4.46-2.04-4.46z" fill="#000"/><path d="M296.785 19.02c-1.77 0-2.855-.408-3.225-1.217-.671-1.465 1.326-3.598 1.41-3.69a.265.265 0 01.307-.057.26.26 0 01.148.27c-.003.026-.124 1.417 1.992 4.27.058.08.068.181.024.27a.268.268 0 01-.23.147c-.146.005-.288.008-.426.008zm-1.828-4.076c-.563.726-1.26 1.892-.917 2.644.27.587 1.184.898 2.653.912-1.194-1.704-1.601-2.883-1.736-3.556z" fill="#000"/><path fill-rule="evenodd" clip-rule="evenodd" d="M394.567 33.451c-1.918-8.9-6.068-11.992-9.466-12.228-3.925-.273-9.339 5.285-14.53 10.742 3.699-16.768-3.722-21.223-7.529-21.223-4.304 0-7.794 9.325-7.794 20.83 0 9.01.568 16.5 3.699 19.258 2.378 2.096 5.019 2.358 6.869 2.358 4.755 0 8.602-5.824 14.35-12.788a55.894 55.894 0 002.576-3.37c2.013 8.38 6.069 14.495 9.271 13.816 3.328-.707 4.472-8.494 2.554-17.395z" fill="#FBF162"/><path d="M365.82 53.455c-1.844 0-4.578-.252-7.043-2.424-3.329-2.934-3.788-11.083-3.788-19.454 0-11.827 3.54-21.092 8.057-21.092.788 0 3.54.225 5.881 3.107 2.079 2.563 4.09 7.667 2.098 17.521 4.792-5.03 10.102-10.428 14.097-10.148 2.145.15 7.381 1.662 9.706 12.436 1.979 9.18.766 16.957-2.758 17.704a2.6 2.6 0 01-.552.057c-3.184 0-6.88-5.573-8.893-13.506a54.783 54.783 0 01-2.251 2.913 287.48 287.48 0 00-2.47 3.042c-4.422 5.5-7.915 9.844-12.084 9.844zm-2.774-42.446c-4.15 0-7.529 9.225-7.529 20.568 0 8.248.438 16.266 3.609 19.061 2.33 2.055 4.935 2.293 6.694 2.293 3.913 0 7.339-4.255 11.675-9.645.79-.982 1.609-1.999 2.472-3.047a54.557 54.557 0 002.563-3.354.268.268 0 01.476.089c1.862 7.753 5.595 13.664 8.522 13.664.148 0 .291-.015.434-.044 3.128-.663 4.205-8.487 2.354-17.084-1.559-7.234-5.009-11.727-9.226-12.02-3.918-.278-9.688 5.79-14.319 10.66a.263.263 0 01-.449-.235c2.261-10.25.269-15.443-1.802-17.992-1.746-2.149-3.973-2.914-5.474-2.914z" fill="#000"/><path d="M359.079 15.194c1.532 0 2.774-1.231 2.774-2.75 0-1.52-1.242-2.752-2.774-2.752s-2.774 1.232-2.774 2.751c0 1.52 1.242 2.751 2.774 2.751z" fill="#fff"/><path d="M359.084 15.463c-1.675 0-3.038-1.352-3.038-3.013 0-1.662 1.363-3.014 3.038-3.014 1.675 0 3.038 1.352 3.038 3.014 0 1.66-1.363 3.013-3.038 3.013zm0-5.503a2.502 2.502 0 00-2.51 2.49c0 1.373 1.125 2.489 2.51 2.489 1.384 0 2.51-1.117 2.51-2.49 0-1.372-1.126-2.489-2.51-2.489z" fill="#000"/><path d="M364.628 13.36c1.532 0 2.774-1.231 2.774-2.75 0-1.52-1.242-2.752-2.774-2.752s-2.774 1.232-2.774 2.751c0 1.52 1.242 2.751 2.774 2.751z" fill="#fff"/><path d="M364.632 13.629c-1.675 0-3.038-1.352-3.038-3.013 0-1.661 1.363-3.013 3.038-3.013 1.675 0 3.038 1.352 3.038 3.013 0 1.66-1.363 3.013-3.038 3.013zm0-5.502c-1.384 0-2.51 1.116-2.51 2.489 0 1.373 1.126 2.489 2.51 2.489s2.51-1.116 2.51-2.49c0-1.372-1.126-2.488-2.51-2.488z" fill="#000"/><path fill-rule="evenodd" clip-rule="evenodd" d="M362.91 13.883l-.792 1.834h2.113l-1.321-1.834z" fill="#EC6553"/><path d="M364.236 15.986h-2.114a.26.26 0 01-.219-.118.25.25 0 01-.021-.246l.793-1.834a.261.261 0 01.213-.157.267.267 0 01.244.107l1.321 1.834a.26.26 0 01.021.273.271.271 0 01-.238.141zm-1.712-.524h1.199l-.75-1.04-.449 1.04zm-2.782-.789a2.105 2.105 0 002.114-2.096 2.105 2.105 0 00-2.114-2.096 2.105 2.105 0 00-2.113 2.096c0 1.157.946 2.096 2.113 2.096z" fill="#000"/><path d="M359.744 14.939c-1.31 0-2.378-1.059-2.378-2.358 0-1.3 1.068-2.359 2.378-2.359s2.378 1.059 2.378 2.359-1.068 2.358-2.378 2.358zm0-4.193c-1.02 0-1.849.823-1.849 1.835 0 1.01.829 1.834 1.849 1.834s1.849-.823 1.849-1.834a1.843 1.843 0 00-1.849-1.835zm5.544 2.09a2.105 2.105 0 002.113-2.096 2.105 2.105 0 00-2.113-2.096 2.105 2.105 0 00-2.114 2.096c0 1.158.947 2.096 2.114 2.096z" fill="#000"/><path d="M365.292 13.104a2.371 2.371 0 01-2.377-2.358 2.37 2.37 0 012.377-2.358c1.311 0 2.378 1.059 2.378 2.358 0 1.3-1.067 2.358-2.378 2.358zm0-4.192c-1.02 0-1.849.823-1.849 1.834 0 1.012.829 1.835 1.849 1.835s1.85-.823 1.85-1.835c0-1.011-.83-1.834-1.85-1.834z" fill="#000"/><path fill-rule="evenodd" clip-rule="evenodd" d="M360.27 22.009s2.642 30.394-1.585 31.442c-4.227 1.048-8.718-.787-4.491-2.096 4.227-1.31 3.699-22.272 2.642-26.988" fill="#FBF162"/><path d="M356.082 54.026c-1.931 0-3.59-.495-3.82-1.31-.121-.433.101-1.064 1.857-1.606 3.881-1.203 3.612-21.559 2.463-26.681a.264.264 0 01.515-.113c1.051 4.69 1.68 25.9-2.822 27.294-1.207.375-1.564.755-1.506.964.185.655 2.951 1.347 5.855.626 2.94-.728 2.441-19.037 1.387-31.163a.262.262 0 01.24-.283.262.262 0 01.286.238c.008.076.663 7.695.792 15.346.18 10.544-.663 15.9-2.578 16.373-.875.213-1.799.315-2.669.315z" fill="#000"/><path d="M407.029 8.382l2.167-2.809a1.287 1.287 0 012.174.22l1.672 3.443" fill="#7CE464"/><path d="M413.047 9.505a.264.264 0 01-.238-.15l-1.672-3.443a1.008 1.008 0 00-.814-.565 1.014 1.014 0 00-.914.39l-2.167 2.809a.265.265 0 01-.369.05.26.26 0 01-.051-.367l2.167-2.81c.33-.426.848-.649 1.387-.594a1.537 1.537 0 011.236.862l1.673 3.443a.258.258 0 01-.125.348.248.248 0 01-.113.027z" fill="#000"/><path d="M416.657 11.156l2.502-.838c.879-.294 1.775.409 1.688 1.326l-.389 4.074" fill="#7CE464"/><path d="M420.463 15.987h-.024a.263.263 0 01-.238-.286l.389-4.074a1.01 1.01 0 00-.383-.888 1.026 1.026 0 00-.959-.165l-2.502.838a.267.267 0 01-.336-.165.262.262 0 01.167-.333l2.501-.838a1.548 1.548 0 012.037 1.598l-.388 4.075a.265.265 0 01-.264.238z" fill="#000"/><path d="M421.589 18.455l2.032.346c.903.155 1.358 1.171.866 1.937l-1.484 2.316" fill="#7CE464"/><path d="M423.007 23.323a.264.264 0 01-.225-.404l1.485-2.316a.984.984 0 00.071-.95 1 1 0 00-.758-.588l-2.031-.346a.263.263 0 01-.217-.301.265.265 0 01.304-.215l2.031.346a1.533 1.533 0 011.044 2.337l-1.485 2.316a.259.259 0 01-.219.12z" fill="#000"/><path d="M423.729 26.293l1.717.959c.716.4.874 1.354.325 1.96l-1.305 1.438" fill="#7CE464"/><path d="M424.47 30.921a.255.255 0 01-.177-.068.26.26 0 01-.019-.37l1.308-1.438a.995.995 0 00.249-.838 1.016 1.016 0 00-.505-.718l-1.717-.959a.261.261 0 01-.101-.356.266.266 0 01.36-.1l1.717.96a1.526 1.526 0 01.391 2.363l-1.308 1.438a.28.28 0 01-.198.086z" fill="#000"/><path fill-rule="evenodd" clip-rule="evenodd" d="M401.405 49.638s-1.905 1.813-1.712 2.332c.195.521 2.919 2.651 3.321 2.348.401-.304-1.134-1.352-1.501-2.18-.367-.828 1.007-1.813 1.007-1.813l-1.115-.687z" fill="#039618"/><path d="M402.91 54.615a.784.784 0 01-.233-.04c-.84-.243-3.009-1.93-3.226-2.51-.221-.594 1.018-1.891 1.776-2.612a.264.264 0 01.322-.034l1.118.69a.264.264 0 01.124.212.267.267 0 01-.109.222c-.311.226-1.146.983-.919 1.496.143.323.515.713.845 1.059.447.469.769.81.743 1.13a.431.431 0 01-.169.303.442.442 0 01-.272.084zm-1.464-4.643c-.837.82-1.522 1.693-1.498 1.92.135.354 2.108 1.921 2.803 2.165a6.833 6.833 0 00-.528-.6c-.359-.377-.766-.804-.943-1.208-.331-.744.362-1.507.795-1.89l-.629-.387z" fill="#000"/><path fill-rule="evenodd" clip-rule="evenodd" d="M420.839 16.604a11.695 11.695 0 00-1.329-2.516c-.547-.851-1.104-1.504-1.659-1.925-2.8-2.657-6.874-4.127-11.186-3.653-7.315.802-12.533 6.888-11.658 13.593.731 5.61 5.497 9.87 11.317 10.646a42.87 42.87 0 00-1.955 2.947c-4.38 7.253-5.722 14.254-2.995 15.637 2.726 1.384 8.488-3.372 12.868-10.624.18-.296.351-.592.521-.886 1.767 6.731 4.348 11.272 6.625 11.023 3.094-.34 4.457-9.396 3.041-20.227-.724-5.589-2.05-10.562-3.59-14.015z" fill="#67CB7E"/><path d="M402.453 51.838c-.436 0-.835-.087-1.192-.267-.642-.325-1.091-.925-1.336-1.78-.846-2.923.853-8.64 4.227-14.224a42.359 42.359 0 011.717-2.617c-5.86-.957-10.404-5.348-11.117-10.809-.41-3.138.478-6.275 2.502-8.83 2.219-2.803 5.643-4.645 9.389-5.056 4.251-.467 8.401.885 11.386 3.712.568.435 1.144 1.1 1.71 1.984.547.786 1.004 1.65 1.35 2.557 1.619 3.637 2.903 8.639 3.614 14.083.57 4.376.711 8.566.404 12.113-.304 3.519-1.02 6.079-2.069 7.402-.475.6-1.017.938-1.608 1.003-2.315.255-4.872-3.793-6.745-10.6-.066.112-.135.225-.204.34-3.965 6.56-8.919 10.989-12.028 10.989zm5.839-43.15c-.526 0-1.057.028-1.591.086-3.606.395-6.898 2.166-9.03 4.86-1.936 2.444-2.787 5.442-2.393 8.44.7 5.357 5.26 9.644 11.093 10.42.092.013.172.07.209.157a.258.258 0 01-.029.256 41.817 41.817 0 00-1.942 2.93c-3.303 5.468-4.98 11.017-4.172 13.813.206.71.566 1.2 1.07 1.457 2.558 1.297 8.29-3.521 12.523-10.525.177-.294.348-.587.515-.88a.264.264 0 01.486.063c1.717 6.534 4.182 10.836 6.19 10.836.05 0 .1-.002.15-.008.447-.05.867-.32 1.253-.807 2.05-2.586 2.689-10.451 1.556-19.124-.706-5.397-1.976-10.35-3.577-13.944l-.006-.013a11.45 11.45 0 00-1.299-2.46c-.542-.844-1.078-1.47-1.601-1.866-.008-.005-.016-.013-.022-.018-2.501-2.377-5.854-3.674-9.383-3.674z" fill="#000"/><path fill-rule="evenodd" clip-rule="evenodd" d="M415.425 20.94c.568 4.428-2.758 8.42-7.429 8.921-4.671.5-8.919-2.683-9.487-7.108-.568-4.428 4.169.16 8.84-.34 4.671-.501 7.508-5.899 8.076-1.473z" fill="#A93535"/><path d="M407.037 30.18c-4.404 0-8.24-3.144-8.787-7.389-.132-1.02 0-1.65.414-1.986.661-.535 1.842-.134 3.335.375 1.54.524 3.455 1.176 5.326.974 1.912-.204 3.511-1.26 4.795-2.109 1.159-.768 1.999-1.32 2.684-1.011.475.215.75.794.887 1.876.275 2.146-.325 4.273-1.69 5.99-1.451 1.823-3.572 2.968-5.971 3.225a8.48 8.48 0 01-.993.055zm-7.535-9.105c-.211 0-.383.042-.502.139-.251.204-.328.712-.225 1.514.55 4.279 4.677 7.368 9.197 6.88 2.256-.24 4.251-1.317 5.614-3.028 1.278-1.606 1.839-3.595 1.582-5.6-.108-.846-.303-1.338-.584-1.464-.417-.189-1.231.348-2.171.97-1.332.88-2.988 1.975-5.03 2.192-1.987.213-3.963-.458-5.554-1-.932-.318-1.77-.603-2.327-.603zm-1.516-1.584c.906 0 1.641-.673 1.641-1.504 0-.83-.735-1.504-1.641-1.504s-1.641.674-1.641 1.504.735 1.504 1.641 1.504z" fill="#000"/><path d="M397.988 19.76c-.949 0-1.775-.66-1.892-1.554a1.665 1.665 0 01.357-1.257 1.95 1.95 0 011.313-.71c1.041-.113 1.989.576 2.116 1.543.058.448-.069.896-.357 1.258a1.948 1.948 0 01-1.537.72zm.003-3.01c-.056 0-.111.002-.17.01a1.405 1.405 0 00-.953.511c-.198.252-.288.56-.249.867.09.684.777 1.174 1.535 1.088.383-.042.729-.228.954-.511a1.16 1.16 0 00.248-.868c-.081-.634-.676-1.097-1.365-1.097zm14.029 1.012c.906 0 1.641-.673 1.641-1.504 0-.83-.735-1.504-1.641-1.504s-1.64.673-1.64 1.504c0 .83.734 1.504 1.64 1.504z" fill="#000"/><path d="M412.022 18.028c-.948 0-1.775-.66-1.892-1.554a1.665 1.665 0 01.357-1.257 1.95 1.95 0 011.313-.71c1.038-.113 1.989.576 2.116 1.543.058.448-.068.896-.356 1.258a1.952 1.952 0 01-1.538.72zm.003-3.008c-.056 0-.111.003-.167.01a1.409 1.409 0 00-.953.511 1.15 1.15 0 00-.249.868c.09.684.777 1.171 1.535 1.087.383-.042.729-.228.954-.51.201-.252.288-.562.248-.868-.084-.634-.679-1.098-1.368-1.098z" fill="#000"/><path d="M336.494 29.606s-4.193-.346-8.863-.79a57.024 57.024 0 00-.428-4.785c4.549.078 8.234.335 8.234.335l1.057 5.24z" fill="#E85824"/><path d="M336.496 29.873h-.022c-.042-.003-4.248-.351-8.866-.791a.261.261 0 01-.238-.25 56.316 56.316 0 00-.425-4.763.266.266 0 01.063-.21.253.253 0 01.201-.086c4.505.079 8.211.333 8.248.336a.264.264 0 01.241.21l1.056 5.24a.259.259 0 01-.06.225.277.277 0 01-.198.089zm-8.61-1.294c3.759.356 7.201.65 8.282.738l-.949-4.703a183.81 183.81 0 00-7.714-.317 58.33 58.33 0 01.381 4.282z" fill="#000"/><path d="M332.142 28.032a63.052 63.052 0 00-.105 4.976c-3.831-.783-6.729-1.512-6.729-1.512l-.103-5.345s3.123.828 6.937 1.881z" fill="#E85824"/><path d="M332.039 33.275c-.019 0-.035-.003-.053-.006a172.342 172.342 0 01-6.74-1.514.258.258 0 01-.198-.249l-.103-5.345a.27.27 0 01.101-.212.271.271 0 01.232-.047c.032.008 3.168.84 6.94 1.88a.263.263 0 01.193.268 63.117 63.117 0 00-.106 4.955.263.263 0 01-.095.207.282.282 0 01-.171.063zm-6.468-1.981c.69.17 3.128.76 6.198 1.394-.002-.27-.005-.543-.005-.818 0-1.226.034-2.45.103-3.64-2.964-.817-5.5-1.495-6.391-1.734l.095 4.798z" fill="#000"/><path d="M320.189 53.975c4.295 0 7.777-9.898 7.777-22.106 0-12.21-3.482-22.106-7.777-22.106-4.296 0-7.778 9.897-7.778 22.106 0 12.209 3.482 22.106 7.778 22.106z" fill="#FF8834"/><path d="M320.193 54.24c-4.51 0-8.042-9.825-8.042-22.367 0-12.543 3.532-22.368 8.042-22.368 4.509 0 8.042 9.825 8.042 22.368s-3.533 22.368-8.042 22.368zm0-44.211c-1.929 0-3.842 2.295-5.25 6.299-1.458 4.147-2.264 9.668-2.264 15.545 0 5.877.803 11.397 2.264 15.545 1.408 4.004 3.321 6.299 5.25 6.299 1.928 0 3.841-2.295 5.249-6.299 1.458-4.148 2.264-9.668 2.264-15.545 0-5.877-.803-11.398-2.264-15.545-1.408-4.004-3.321-6.3-5.249-6.3z" fill="#000"/><path d="M339.537 53.975c4.296 0 7.778-9.898 7.778-22.106 0-12.21-3.482-22.106-7.778-22.106-4.295 0-7.777 9.897-7.777 22.106 0 12.209 3.482 22.106 7.777 22.106z" fill="#FF8834"/><path d="M339.542 54.24c-4.51 0-8.042-9.825-8.042-22.367 0-12.543 3.532-22.368 8.042-22.368 4.509 0 8.041 9.825 8.041 22.368s-3.532 22.368-8.041 22.368zm0-44.211c-1.929 0-3.842 2.295-5.25 6.299-1.458 4.147-2.264 9.668-2.264 15.545 0 5.877.803 11.397 2.264 15.545 1.408 4.004 3.321 6.299 5.25 6.299 1.928 0 3.841-2.295 5.249-6.299 1.458-4.148 2.264-9.668 2.264-15.545 0-5.877-.803-11.398-2.264-15.545-1.408-4.004-3.321-6.3-5.249-6.3z" fill="#000"/><path d="M320.188 15.123c3.406 0 6.166-1.095 6.166-2.445 0-1.35-2.76-2.444-6.166-2.444-3.405 0-6.166 1.094-6.166 2.444 0 1.35 2.761 2.445 6.166 2.445z" fill="#60222E"/><path d="M320.193 15.39c-3.607 0-6.431-1.19-6.431-2.707s2.824-2.707 6.431-2.707c3.606 0 6.43 1.19 6.43 2.707s-2.827 2.707-6.43 2.707zm0-4.892c-3.53 0-5.902 1.13-5.902 2.182 0 1.054 2.372 2.183 5.902 2.183 3.529 0 5.901-1.13 5.901-2.183s-2.372-2.182-5.901-2.182z" fill="#000"/><path fill-rule="evenodd" clip-rule="evenodd" d="M323.982 11.172c0 1.818-7.397 1.818-7.397 0 0-1.819 1.656-3.294 3.698-3.294 2.043 0 3.699 1.475 3.699 3.294z" fill="#60222E"/><path d="M320.288 12.803c-.996 0-1.929-.126-2.626-.354-1.105-.362-1.337-.89-1.337-1.27 0-1.96 1.778-3.556 3.963-3.556 2.184 0 3.962 1.595 3.962 3.555 0 1.198-2.134 1.625-3.962 1.625zm0-4.656c-1.895 0-3.435 1.36-3.435 3.031 0 .618 1.509 1.1 3.435 1.1 1.925 0 3.434-.484 3.434-1.1 0-1.671-1.54-3.031-3.434-3.031z" fill="#000"/><path d="M339.062 15.217c3.406 0 6.166-1.094 6.166-2.444 0-1.35-2.76-2.445-6.166-2.445-3.405 0-6.166 1.095-6.166 2.445 0 1.35 2.761 2.444 6.166 2.444z" fill="#60222E"/><path d="M339.067 15.484c-3.607 0-6.431-1.19-6.431-2.707s2.824-2.707 6.431-2.707c3.606 0 6.43 1.19 6.43 2.707s-2.824 2.707-6.43 2.707zm0-4.892c-3.53 0-5.902 1.13-5.902 2.182 0 1.054 2.372 2.183 5.902 2.183 3.529 0 5.902-1.13 5.902-2.183s-2.373-2.182-5.902-2.182z" fill="#000"/><path fill-rule="evenodd" clip-rule="evenodd" d="M342.856 11.266c0 1.819-7.397 1.819-7.397 0 0-1.818 1.656-3.293 3.698-3.293 2.043 0 3.699 1.475 3.699 3.293z" fill="#60222E"/><path d="M339.162 12.897c-.996 0-1.929-.125-2.626-.353-1.105-.362-1.337-.891-1.337-1.271 0-1.96 1.778-3.556 3.963-3.556s3.963 1.596 3.963 3.556c0 1.197-2.135 1.624-3.963 1.624zm0-4.656c-1.894 0-3.435 1.36-3.435 3.032 0 .618 1.509 1.103 3.435 1.103 1.926 0 3.434-.485 3.434-1.103 0-1.674-1.54-3.032-3.434-3.032zm-18.211 10.442a.267.267 0 01-.238-.144c-.277-.548-.586-.836-.919-.857-.547-.031-1.11.63-1.281.886a.268.268 0 01-.367.073.262.262 0 01-.074-.364c.031-.047.797-1.174 1.754-1.119.533.034.99.42 1.358 1.145a.26.26 0 01-.119.351.245.245 0 01-.114.03zm20.678.564a.267.267 0 01-.238-.145c-.277-.547-.584-.835-.916-.856-.534-.037-1.107.629-1.282.885a.265.265 0 01-.441-.293c.032-.047.8-1.174 1.754-1.119.534.034.991.42 1.358 1.145a.26.26 0 01-.119.351.209.209 0 01-.116.032zm-4.174-.189a.267.267 0 01-.238-.144c-.135-.268-.354-.59-.634-.608-.372-.024-.787.463-.901.634a.268.268 0 01-.367.073.263.263 0 01-.074-.364c.063-.094.637-.912 1.374-.867.425.026.787.327 1.072.896a.26.26 0 01-.118.35.218.218 0 01-.114.03zm-12.615-.375a.266.266 0 01-.238-.144c-.135-.267-.354-.59-.634-.608-.37-.02-.777.45-.904.637a.265.265 0 01-.367.07.261.261 0 01-.074-.36c.063-.095.642-.915 1.374-.868.425.026.787.327 1.072.896a.258.258 0 01-.229.377zm13.381 2.969c-1.081 0-1.897-1.15-1.931-1.2a.262.262 0 01.066-.365.267.267 0 01.367.066c.008.01.713.993 1.524.975.447-.013.869-.336 1.258-.962a.266.266 0 01.364-.086.262.262 0 01.087.361c-.488.786-1.059 1.195-1.696 1.21h-.039zm-16.313-.567c-1.081 0-1.897-1.15-1.932-1.2a.263.263 0 01.066-.364.268.268 0 01.368.066c.008.01.721.995 1.524.974.447-.013.869-.335 1.258-.961a.266.266 0 01.364-.087.262.262 0 01.087.362c-.488.786-1.059 1.195-1.696 1.21h-.039z" fill="#000"/><path d="M316.942 34.845c-1.773.257-3.247.27-4.454.094-6.164-.89-5.292-6.634-1.094-9.264.362-.226.832-.425 1.392-.598a57.29 57.29 0 00-.314 4.03c-1.607.76-1.131 1.913-.286 2.332.529.262 1.652 0 2.378 0 5.812 0 6.237 2.845 2.378 3.406z" fill="#E85824"/><path d="M314.23 35.323c-.634 0-1.229-.039-1.778-.12-3.44-.498-4.341-2.369-4.571-3.44-.465-2.175.922-4.769 3.374-6.304.375-.233.864-.443 1.456-.627a.266.266 0 01.245.048.271.271 0 01.096.23 56.322 56.322 0 00-.312 4.012.261.261 0 01-.151.225c-.586.278-.909.631-.914 1-.003.326.251.672.632.86.287.144.898.084 1.437.029.296-.029.573-.058.824-.058 3.693 0 5.086 1.09 5.154 2.023.066.907-1.009 1.653-2.737 1.905-.985.147-1.907.217-2.755.217zm-1.746-9.862a5.018 5.018 0 00-.944.44c-2.269 1.423-3.558 3.787-3.138 5.754.346 1.62 1.812 2.696 4.129 3.032 1.234.18 2.708.147 4.378-.095 1.622-.235 2.322-.864 2.287-1.346-.044-.619-1.315-1.538-4.625-1.538a8.16 8.16 0 00-.772.055c-.639.063-1.3.128-1.725-.082-.565-.28-.93-.804-.925-1.333.003-.39.199-.94 1.07-1.397.053-1.19.143-2.358.265-3.49z" fill="#000"/><path d="M349.196 34.479c-.499.201-1.162.325-1.952.387.048-.98.071-1.983.071-3 0-.123 0-.249-.002-.372 2.591-.615 3.368-2.607.314-3.154a14.58 14.58 0 01-.415-.082c-5.323-1.084-5.637-3.906-1.836-3.78a22.47 22.47 0 011.506.1c9.268.966 7.551 7.797 2.314 9.9z" fill="#E85824"/><path d="M347.248 35.132a.273.273 0 01-.185-.073.255.255 0 01-.079-.202c.048-.972.072-1.978.072-2.987 0-.12 0-.246-.003-.367a.261.261 0 01.203-.26c1.393-.33 2.106-1.029 2.09-1.545-.013-.49-.674-.899-1.762-1.095a9.593 9.593 0 01-.423-.084c-3.336-.679-4.71-2.002-4.589-3.01.08-.666.862-1.353 2.817-1.287.52.018 1.033.052 1.524.1 3.984.416 6.462 2.01 6.797 4.375.333 2.332-1.524 4.868-4.411 6.029-.508.204-1.173.338-2.032.406h-.019zm.336-3.43v.17c0 .915-.019 1.824-.058 2.712.655-.068 1.183-.183 1.574-.34 2.666-1.072 4.386-3.372 4.087-5.471-.298-2.107-2.607-3.54-6.33-3.927a23.903 23.903 0 00-1.487-.1c-1.498-.05-2.222.38-2.275.825-.071.6.999 1.79 4.172 2.437.135.029.269.055.409.081 1.95.349 2.185 1.232 2.196 1.596.026.836-.885 1.632-2.288 2.017z" fill="#000"/><path fill-rule="evenodd" clip-rule="evenodd" d="M125.628 7.291l3.308-2.53-.521-.771-3.308 2.53a.989.989 0 00-.203 1.324l1.376 2.033c.143.212.423.26.624.108a.491.491 0 00.1-.663l-1.376-2.03z" fill="#9A7BF8"/><path d="M126.649 10.343a.708.708 0 01-.584-.312l-1.376-2.033a1.251 1.251 0 01.261-1.677l3.308-2.533a.27.27 0 01.203-.053c.072.01.138.053.177.113l.521.77a.261.261 0 01-.058.354l-3.113 2.382 1.239 1.828a.758.758 0 01-.158 1.014.672.672 0 01-.42.147zm1.709-5.971l-3.083 2.36a.725.725 0 00-.145.97l1.376 2.033a.174.174 0 00.119.079.155.155 0 00.124-.034c.09-.068.111-.21.043-.31l-1.377-2.033a.261.261 0 01.058-.353l3.112-2.382-.227-.33z" fill="#000"/><path d="M131.027 6.15c1.019-.578 1.191-2.18.384-3.58-.806-1.4-2.285-2.066-3.304-1.489-1.018.577-1.19 2.18-.384 3.58.806 1.399 2.286 2.066 3.304 1.488z" fill="#9A7BF8"/><path d="M130.226 6.618a2.46 2.46 0 01-.362-.03c-.827-.133-1.63-.694-2.201-1.535-.98-1.446-.93-3.27.111-4.063.418-.32.941-.443 1.509-.352.827.134 1.63.695 2.2 1.536.981 1.446.93 3.27-.11 4.064-.328.251-.719.38-1.147.38zm-1.302-5.487c-.312 0-.595.092-.827.27-.825.631-.822 2.135.005 3.356.483.713 1.173 1.203 1.847 1.31.42.068.8-.018 1.099-.249.824-.631.821-2.135-.006-3.356-.483-.713-1.173-1.203-1.846-1.31a1.947 1.947 0 00-.272-.021z" fill="#000"/><path fill-rule="evenodd" clip-rule="evenodd" d="M133.215.88l-3.503 2.133a.428.428 0 00-.133.607l.006.006c.15.222.465.256.66.07l2.97-2.816z" fill="#9A7BF8"/><path d="M129.944 4.08c-.027 0-.051 0-.077-.005a.696.696 0 01-.293-1.283l3.503-2.133a.269.269 0 01.349.063.257.257 0 01-.027.348l-2.972 2.817a.698.698 0 01-.483.194zm1.294-1.687l-1.387.847a.17.17 0 00-.053.236.17.17 0 00.127.078.168.168 0 00.135-.044l1.178-1.117z" fill="#000"/><path d="M133.342 1.268a.49.49 0 00.476-.503.49.49 0 00-.476-.503.49.49 0 00-.476.503.49.49 0 00.476.503z" fill="#9A7BF8"/><path d="M133.349 1.537a.723.723 0 01-.608-.328.791.791 0 01.167-1.058.721.721 0 011.043.176.789.789 0 01-.166 1.058.706.706 0 01-.436.152zm-.003-1.009a.193.193 0 00-.116.04c-.103.078-.124.238-.05.35.034.05.082.084.137.092a.19.19 0 00.145-.04c.103-.078.125-.238.051-.35a.205.205 0 00-.138-.092h-.029z" fill="#000"/><path fill-rule="evenodd" clip-rule="evenodd" d="M91.518 3.1l-.005-.009a.527.527 0 00-.41-.212h-6.012a.523.523 0 00-.41.212.777.777 0 00.01.94l2.851 3.42.22.27v4.009c0 .26.174.471.39.471.217 0 .391-.21.391-.471V7.72l2.97-3.686a.777.777 0 00.005-.936zm-3.307 3.81L85.63 3.82h4.94l-2.36 3.09z" fill="#B52A4E"/><path d="M88.157 12.463c-.362 0-.655-.328-.655-.734V7.815l-.161-.197-2.848-3.417a1.039 1.039 0 01-.016-1.268.783.783 0 01.615-.312h6.013c.236 0 .46.113.616.312l-.2.17.208-.162c.282.36.28.899-.005 1.255l-2.912 3.616v3.917c.003.406-.293.734-.655.734zm-3.062-9.315a.259.259 0 00-.2.11.516.516 0 00.005.61l3.07 3.69a.267.267 0 01.058.165v4.009c0 .12.068.21.126.21.059 0 .127-.09.127-.21v-4.01c0-.06.021-.117.058-.162l2.97-3.686a.52.52 0 00.002-.608s0-.003-.002-.003l-.005-.007a.263.263 0 00-.199-.108h-6.01zm3.12 4.03a.263.263 0 01-.203-.094L85.43 3.992a.255.255 0 01-.035-.278.262.262 0 01.238-.15h4.94c.1 0 .193.056.238.145a.26.26 0 01-.026.275l-2.36 3.092a.27.27 0 01-.206.104c-.002-.002-.005-.002-.005-.002zm-2.02-3.09l2.01 2.409 1.836-2.408h-3.847z" fill="#000"/><path fill-rule="evenodd" clip-rule="evenodd" d="M225.041 8.022h-.861v3.05h-4.304v-3.05h-.861v3.05c0 .471.386.854.861.854h1.723v4.939a.43.43 0 00.431.427c.237 0 .43-.191.43-.427v-4.942h1.723a.858.858 0 00.861-.854l-.003-3.047z" fill="#FF5A3B"/><path d="M222.031 17.558a.693.693 0 01-.695-.689v-4.68h-1.458a1.12 1.12 0 01-1.125-1.115V8.026c0-.144.119-.262.264-.262h.861c.145 0 .264.118.264.262v2.788h3.776V8.026c0-.144.118-.262.264-.262h.861c.145 0 .264.118.264.262v3.05c0 .616-.504 1.116-1.125 1.116h-1.459v4.677a.688.688 0 01-.692.69zm-2.747-9.27v2.788c0 .328.267.592.597.592h1.722c.146 0 .264.118.264.262v4.94c0 .091.074.164.167.164a.165.165 0 00.166-.165v-4.941c0-.144.119-.262.265-.262h1.722c.33 0 .597-.265.597-.592V8.288h-.333v2.788a.264.264 0 01-.264.262h-4.304a.264.264 0 01-.264-.262V8.288h-.335z" fill="#000"/><path d="M219.382 8.751c.771 0 1.395-.436 1.395-.975 0-.538-.624-.974-1.395-.974-.77 0-1.395.436-1.395.974 0 .539.625.975 1.395.975z" fill="#FF5A3B"/><path d="M219.387 9.02c-.93 0-1.659-.545-1.659-1.237 0-.692.729-1.237 1.659-1.237s1.659.545 1.659 1.237c0 .692-.729 1.237-1.659 1.237zm0-1.952c-.613 0-1.131.327-1.131.712 0 .386.518.713 1.131.713s1.13-.327 1.13-.713c0-.385-.517-.712-1.13-.712z" fill="#000"/><path d="M224.666 8.751c.771 0 1.395-.436 1.395-.975 0-.538-.624-.974-1.395-.974-.77 0-1.395.436-1.395.974 0 .539.625.975 1.395.975z" fill="#FF5A3B"/><path d="M224.671 9.02c-.93 0-1.659-.545-1.659-1.237 0-.692.729-1.237 1.659-1.237s1.659.545 1.659 1.237c0 .692-.729 1.237-1.659 1.237zm0-1.952c-.613 0-1.131.327-1.131.712 0 .386.518.713 1.131.713s1.131-.327 1.131-.713c0-.385-.518-.712-1.131-.712z" fill="#000"/><path d="M227.345 35.67s1.289.96 3.548-.319c2.256-1.279 1.933-5.437 1.933-5.437s-1.611.96-2.256.96c1.612-1.28 2.579-3.84 1.29-5.757-.288.571-1.29 1.598-2.257 1.918.323-.64 1.29-2.877-.967-4.798 0 3.2-1.933 1.279-5.481.64-3.548-.64-3.548 2.877-3.226 1.598.322-1.279 0-3.519 0-3.519s-2.901 1.279-2.579 3.519c-1.611-2.238-3.87-.959-3.87-.959s.645.959 1.612 2.238c0 0-.645 5.436-2.579 6.076-1.86.615-3.358-.131-3.358-.131s1.424 3.967 4.65 3.647c3.226-.32 1.934.64 1.934.64s-1.715 1.33-5.263.688c.323 1.279 3.033 5.547 10.304 3.145l1.585-.787s4.383 5.317 10.831-2.358c-2.906.967-5.851-1.003-5.851-1.003z" fill="#FF8834"/><path d="M226.348 41.098h-.027c-2.166-.01-3.579-1.279-4.018-1.732l-1.405.697a.2.2 0 01-.035.013c-3.899 1.29-6.427.63-7.862-.15-1.815-.987-2.613-2.512-2.782-3.177a.264.264 0 01.304-.322c3.371.607 5.038-.627 5.054-.64a.61.61 0 00.135-.139c-.106-.052-.513-.17-1.881-.034-1.414.139-2.716-.482-3.768-1.802-.776-.975-1.141-1.976-1.157-2.018a.262.262 0 01.367-.32c.014.006 1.43.687 3.157.116 1.422-.47 2.191-4.216 2.389-5.754a52.847 52.847 0 01-1.556-2.167.251.251 0 01-.037-.204.263.263 0 01.126-.168c.022-.013 2.064-1.137 3.736.477.267-1.934 2.626-2.998 2.737-3.045a.266.266 0 01.37.202c.011.066.169 1.187.143 2.303.573-.506 1.49-.854 2.866-.605 1.036.186 1.95.485 2.684.726.988.322 1.77.576 2.122.325.245-.176.364-.645.364-1.431a.264.264 0 01.436-.2c1.847 1.57 1.675 3.368 1.303 4.466.681-.417 1.305-1.09 1.513-1.507a.265.265 0 01.455-.029c1.138 1.695.629 3.873-.566 5.335a13.36 13.36 0 001.176-.616.265.265 0 01.399.204c.013.176.309 4.34-2.066 5.683-.713.404-1.337.598-1.865.669 1.072.377 2.525.657 3.952.186a.268.268 0 01.301.1.258.258 0 01-.016.313c-2.361 2.817-4.734 4.245-7.048 4.245zm-3.981-2.316a.26.26 0 01.203.097c.013.016 1.429 1.69 3.762 1.698h.016c1.976 0 4.029-1.156 6.105-3.438-2.465.406-4.731-.917-5.178-1.197a.588.588 0 01-.084-.055.26.26 0 01-.056-.362.266.266 0 01.362-.065l.09.055c.296.165 1.397.623 3.181-.386 1.677-.95 1.823-3.702 1.815-4.765-.542.296-1.496.778-2.008.778a.264.264 0 01-.248-.176.26.26 0 01.084-.29c1.427-1.133 2.312-3.313 1.445-5.047-.454.608-1.3 1.378-2.164 1.664a.265.265 0 01-.282-.076.256.256 0 01-.037-.288c.452-.894.94-2.555-.494-4.09-.064.639-.241 1.04-.558 1.265-.573.411-1.421.134-2.597-.252-.755-.246-1.611-.526-2.612-.707-1.012-.183-1.815-.031-2.383.448-.212.178-.36.375-.46.553a4.332 4.332 0 01-.079.4c-.048.19-.135.543-.431.475-.132-.029-.272-.139-.198-.495.034-.165.1-.357.201-.55.113-.889.021-2.026-.043-2.602-.71.398-2.33 1.488-2.1 3.073a.258.258 0 01-.164.28.266.266 0 01-.314-.091c-1.165-1.617-2.663-1.245-3.263-1.006.254.367.769 1.098 1.432 1.975.04.055.058.12.05.189-.008.058-.169 1.396-.573 2.837-.56 2-1.294 3.163-2.187 3.456a5.107 5.107 0 01-2.954.076c.512 1.033 1.86 3.158 4.132 2.935 1.95-.194 2.33.063 2.449.367.143.367-.251.684-.33.744-.066.052-1.702 1.281-5.025.81.325.723 1.104 1.758 2.383 2.452 1.918 1.045 4.486 1.085 7.421.118l1.569-.778a.261.261 0 01.122-.03z" fill="#000"/><path fill-rule="evenodd" clip-rule="evenodd" d="M216.762 35.37c0 1.013-.994 1.834-2.22 1.834-1.225 0-2.219-.944-2.219-1.958s.994-1.71 2.219-1.71c1.226 0 2.22.822 2.22 1.833z" fill="#FEA795"/><path d="M214.547 37.472c-1.324 0-2.484-1.037-2.484-2.219 0-1.124 1.068-1.973 2.484-1.973 1.368 0 2.483.94 2.483 2.096 0 1.156-1.115 2.096-2.483 2.096zm0-3.668c-1.115 0-1.955.624-1.955 1.45 0 .9.914 1.694 1.955 1.694 1.078 0 1.955-.704 1.955-1.572 0-.867-.877-1.572-1.955-1.572z" fill="#000"/><path d="M216.742 35.638h-2.829a.264.264 0 01-.265-.262c0-.145.119-.262.265-.262h2.829c.145 0 .264.117.264.262a.264.264 0 01-.264.262z" fill="#000"/><path fill-rule="evenodd" clip-rule="evenodd" d="M226.642 35.37c0 1.013.993 1.834 2.219 1.834s2.219-.944 2.219-1.958-.993-1.71-2.219-1.71-2.219.822-2.219 1.833z" fill="#FEA795"/><path d="M228.866 37.472c-1.369 0-2.484-.94-2.484-2.096 0-1.155 1.115-2.096 2.484-2.096 1.416 0 2.483.85 2.483 1.973 0 1.182-1.16 2.22-2.483 2.22zm0-3.668c-1.078 0-1.955.705-1.955 1.572 0 .868.877 1.572 1.955 1.572 1.041 0 1.955-.79 1.955-1.695 0-.828-.841-1.449-1.955-1.449z" fill="#000"/><path d="M229.5 35.638h-2.83a.264.264 0 01-.264-.262c0-.145.119-.262.264-.262h2.83c.145 0 .264.117.264.262a.264.264 0 01-.264.262z" fill="#000"/><path fill-rule="evenodd" clip-rule="evenodd" d="M221.982 40.348h-1.353c-2.679 0-4.871-2.175-4.871-4.832v-3.553c0-1.729 1.426-3.144 3.17-3.144h4.755c1.744 0 3.17 1.415 3.17 3.144v3.553c0 2.66-2.192 4.832-4.871 4.832z" fill="#FEA795"/><path d="M221.986 40.616h-1.352c-2.832 0-5.136-2.284-5.136-5.093V31.97c0-1.879 1.54-3.406 3.434-3.406h4.756c1.894 0 3.434 1.527 3.434 3.406v3.553c0 2.809-2.304 5.093-5.136 5.093zm-3.054-11.528c-1.603 0-2.906 1.292-2.906 2.882v3.553c0 2.52 2.066 4.57 4.608 4.57h1.352c2.542 0 4.608-2.05 4.608-4.57V31.97c0-1.59-1.303-2.882-2.906-2.882h-4.756z" fill="#000"/><path d="M225.008 37.731c.73 0 1.321-.528 1.321-1.179 0-.65-.591-1.179-1.321-1.179-.729 0-1.321.528-1.321 1.18 0 .65.592 1.178 1.321 1.178zm-7.132 0c.729 0 1.321-.528 1.321-1.179 0-.65-.592-1.179-1.321-1.179-.73 0-1.321.528-1.321 1.18 0 .65.591 1.178 1.321 1.178z" fill="#FE717B"/><path d="M224.476 35.63c.875 0 1.585-.703 1.585-1.572 0-.868-.71-1.572-1.585-1.572-.876 0-1.585.704-1.585 1.573 0 .868.709 1.572 1.585 1.572z" fill="#fff"/><path d="M224.48 35.9a1.843 1.843 0 01-1.849-1.834c0-1.012.829-1.834 1.849-1.834s1.849.822 1.849 1.834a1.843 1.843 0 01-1.849 1.834zm0-3.144c-.729 0-1.321.587-1.321 1.31 0 .723.592 1.31 1.321 1.31s1.321-.587 1.321-1.31c0-.724-.592-1.31-1.321-1.31z" fill="#000"/><path fill-rule="evenodd" clip-rule="evenodd" d="M224.218 33.803c0 .736.512 1.357 1.204 1.525.391-.283.645-.744.645-1.263 0-.736-.512-1.357-1.205-1.525a1.556 1.556 0 00-.644 1.263z" fill="#000"/><path d="M225.45 35.47l-.061-.015a1.697 1.697 0 01-1.305-1.654c0-.54.262-1.053.7-1.367l.05-.037.061.016a1.697 1.697 0 01.605 3.02l-.05.037zm-.56-2.787a1.43 1.43 0 00.502 2.5 1.434 1.434 0 00-.502-2.5z" fill="#000"/><path d="M218.664 35.63c.875 0 1.585-.703 1.585-1.572 0-.868-.71-1.572-1.585-1.572s-1.585.704-1.585 1.573c0 .868.71 1.572 1.585 1.572z" fill="#fff"/><path d="M218.668 35.9a1.844 1.844 0 01-1.849-1.834c0-1.012.83-1.834 1.849-1.834 1.02 0 1.85.822 1.85 1.834 0 1.011-.83 1.834-1.85 1.834zm0-3.144c-.729 0-1.321.587-1.321 1.31 0 .723.592 1.31 1.321 1.31.73 0 1.321-.587 1.321-1.31 0-.724-.591-1.31-1.321-1.31z" fill="#000"/><path fill-rule="evenodd" clip-rule="evenodd" d="M218.405 33.803c0 .736.513 1.357 1.205 1.525.391-.283.645-.744.645-1.263 0-.736-.513-1.357-1.205-1.525a1.557 1.557 0 00-.645 1.263z" fill="#000"/><path d="M219.637 35.47l-.06-.015a1.698 1.698 0 01-1.306-1.654c0-.54.262-1.053.701-1.367l.05-.037.061.016a1.698 1.698 0 011.305 1.653 1.69 1.69 0 01-.7 1.368l-.051.036zm-.56-2.787a1.432 1.432 0 00.502 2.5 1.43 1.43 0 00-.502-2.5z" fill="#000"/><path fill-rule="evenodd" clip-rule="evenodd" d="M221.57 34.517l.792 1.24h-1.585l.793-1.24z" fill="#FEA795"/><path d="M222.367 36.023h-1.586a.27.27 0 01-.232-.136.262.262 0 01.008-.267l.792-1.24c.098-.152.349-.152.447 0l.792 1.24a.255.255 0 01.008.267.26.26 0 01-.229.136zm-1.105-.524h.624l-.312-.487-.312.487z" fill="#000"/><path fill-rule="evenodd" clip-rule="evenodd" d="M219.72 36.854v.7c0 .576.476 1.048 1.057 1.048s1.057-.472 1.057-1.048v-.524l-2.114-.176z" fill="#FE717B"/><path d="M220.781 38.869a1.316 1.316 0 01-1.321-1.31v-.7a.27.27 0 01.085-.194.259.259 0 01.201-.068l2.113.176c.138.01.243.125.243.262v.524c0 .72-.591 1.31-1.321 1.31zm-.792-1.724v.414a.792.792 0 001.585 0v-.283l-1.585-.131zm5.548-5.699a.333.333 0 01-.084-.013l-.793-.262a.26.26 0 01-.166-.333.264.264 0 01.335-.165l.793.262a.261.261 0 01.166.332.267.267 0 01-.251.179zm-7.661.524a.266.266 0 01-.238-.144.26.26 0 01.119-.351l1.056-.524a.262.262 0 01.354.118.26.26 0 01-.118.35l-1.057.525a.302.302 0 01-.116.026z" fill="#000"/><path d="M216.55 25.413c-1.056-.262-3.453.335-4.227 3.406-.264 1.048-.396 4.323 3.567 6.42 1.321-1.049 1.981-4.848 1.717-6.158 1.585 0 4.623 1.703 5.284 2.358 1.981-.655 3.17-3.93-.529-6.026" fill="#FF8834"/><path d="M215.894 35.507a.266.266 0 01-.124-.032c-3.754-1.986-4.092-5.153-3.699-6.715.45-1.782 1.406-2.678 2.127-3.113.938-.566 1.865-.62 2.42-.484a.262.262 0 01.193.317.266.266 0 01-.32.191c-.911-.228-3.165.27-3.907 3.215-.04.152-.885 3.736 3.273 6.037 1.126-1.109 1.739-4.583 1.496-5.788a.265.265 0 01.258-.314c1.591 0 4.46 1.569 5.342 2.318.832-.34 1.443-1.171 1.538-2.117.074-.744-.122-2.17-2.256-3.38a.258.258 0 01-.098-.356.265.265 0 01.359-.097c1.749.99 2.666 2.408 2.521 3.888-.119 1.2-.938 2.25-2.04 2.615a.26.26 0 01-.269-.063c-.603-.597-3.253-2.072-4.793-2.261.132 1.59-.547 5.041-1.857 6.079a.258.258 0 01-.164.06z" fill="#000"/><path d="M220.993 30.481a.26.26 0 01-.219-.115.259.259 0 01.068-.362c.027-.018.597-.437.597-1.572a.264.264 0 01.529 0c0 1.434-.795 1.981-.83 2.005a.255.255 0 01-.145.044zm1.07.611a.27.27 0 01-.206-.097.257.257 0 01.037-.367c.026-.02.602-.51.602-1.412a.264.264 0 01.528 0c0 1.158-.763 1.79-.795 1.816a.244.244 0 01-.166.06z" fill="#000"/></svg>