<svg width="105" height="107" fill="none" xmlns="http://www.w3.org/2000/svg"><path fill-rule="evenodd" clip-rule="evenodd" d="M15.147 15.286l1.796 76.428h71.114l1.796-76.428H15.147zM12.572 0C5.512 0-.164 5.89.004 13.041l1.915 81.524C2.082 101.48 7.661 107 14.488 107h76.024c6.827 0 12.406-5.52 12.569-12.435l1.915-81.524C105.164 5.89 99.488 0 92.428 0H12.572z" fill="#282361"/><path fill-rule="evenodd" clip-rule="evenodd" d="M53.757 45.857c-6.747 0-11.315 5.05-11.315 10.19s4.568 10.191 11.315 10.191c6.748 0 11.315-5.05 11.315-10.19s-4.567-10.19-11.315-10.19zm-26.401 10.19c0-14.558 12.319-25.476 26.401-25.476 14.083 0 26.402 10.918 26.402 25.477 0 14.558-12.32 25.476-26.402 25.476S27.356 70.606 27.356 56.048z" fill="#282361"/><path d="M87.702 24.202c0 3.518-2.814 6.37-6.286 6.37-3.472 0-6.286-2.852-6.286-6.37 0-3.517 2.814-6.369 6.286-6.369 3.472 0 6.286 2.852 6.286 6.37z" fill="#282361"/></svg>