<svg width="72" height="118" fill="none" xmlns="http://www.w3.org/2000/svg"><path d="M29.143 0h37.714C69.697 0 72 2.348 72 5.244v13.717c0 2.896-2.302 5.244-5.143 5.244H53.143c-2.84 0-5.143 2.348-5.143 5.245v10.69c0 2.897 2.303 5.245 5.143 5.245h13.714c2.84 0 5.143 2.348 5.143 5.244v10.69c0 2.897-2.302 5.245-5.143 5.245H53.143c-2.84 0-5.143 2.348-5.143 5.245v40.947c0 2.896-2.303 5.244-5.143 5.244H29.143c-2.84 0-5.143-2.348-5.143-5.244V71.808c0-2.896-2.302-5.244-5.143-5.244H5.143C2.303 66.564 0 64.216 0 61.32V50.63c0-2.897 2.303-5.245 5.143-5.245h13.714c2.84 0 5.143-2.348 5.143-5.245V5.244C24 2.348 26.302 0 29.143 0z" fill="#282361"/></svg>