<svg width="112" height="84" fill="none" xmlns="http://www.w3.org/2000/svg"><path d="M14.287 2.862L1.664 12.424a4.213 4.213 0 00-.948 5.703L43.728 82.15A4.175 4.175 0 0047.193 84h15.613c2.309 0 4.18-1.88 4.18-4.2v-9.142c0-3.549 4.109-5.498 6.836-3.244l16.854 13.928a4.167 4.167 0 005.875-.563l7.018-8.506a4.214 4.214 0 00-.414-5.795L84.913 49.896a4.214 4.214 0 01-.16-6.077l26.03-26.29a4.215 4.215 0 00.255-5.643l-6.766-8.2a4.168 4.168 0 00-6.283-.178L74.231 29.22c-2.586 2.798-7.245.96-7.245-2.857V4.2c0-2.32-1.871-4.2-4.18-4.2H49.152c-2.309 0-4.18 1.88-4.18 4.2v27.032c0 4.3-5.668 5.821-7.804 2.096L20.426 4.12a4.17 4.17 0 00-6.14-1.258z" fill="#282361"/></svg>