<svg width="378" height="138" fill="none" xmlns="http://www.w3.org/2000/svg"><path d="M182.215 118.655c-101.213 25.939-149.51 18.256-161.006 11.172-14.025-10.452-37.028-21.481-2.511-10.137 41.238 13.554 80.068 4.57 97.143-4.526 17.074-9.096 10.985-25.978-14.624-18.965-27.723 7.593-66.261.032-82.691-3.637l-.1-15.811c18.07 5.156 69.407 7.25 130.185-25.623C209.39 18.255 326.246 3.345 377.077 0l.314 49.68.122 19.223c-13.529 1.195-41.053 7.2-42.92 21.658-1.866 14.459 28.04 23.929 43.227 26.856l.128 20.305c-23.072-17.164-94.519-45.006-195.733-19.067z" fill="#BFDDF9"/></svg>