<svg width="355" height="63" fill="none" xmlns="http://www.w3.org/2000/svg"><path fill-rule="evenodd" clip-rule="evenodd" d="M329.024 11.426l-.327.85-3.2-1.704-3.202-1.7 3.53.854 3.527.851-.328.85z" fill="#F4C446"/><path d="M328.701 12.541a.257.257 0 01-.124-.031l-6.402-3.404a.262.262 0 01.188-.484l7.056 1.706a.267.267 0 01.172.133.26.26 0 01.013.215l-.655 1.698a.262.262 0 01-.248.167zm-4.444-2.924l4.306 2.29.22-.57.219-.572-4.745-1.148z" fill="#000"/><path d="M322.617 9.065c.16-.415 0-.86-.357-.996s-.776.09-.936.505c-.16.415-.001.862.356.997.357.136.776-.09.937-.506z" fill="#F4C446"/><path d="M321.916 9.875a.907.907 0 01-.309-.055.895.895 0 01-.526-.55 1.126 1.126 0 01.019-.784c.211-.548.785-.844 1.276-.655.491.186.721.786.51 1.333-.169.435-.568.71-.97.71zm.148-1.58c-.187 0-.383.146-.473.377a.603.603 0 00-.013.422.38.38 0 00.217.236c.219.083.486-.076.594-.354.109-.278.016-.574-.203-.658a.272.272 0 00-.122-.023z" fill="#000"/><path fill-rule="evenodd" clip-rule="evenodd" d="M335.713 11.426l.328.85 3.202-1.704 3.199-1.7-3.527.854-3.529.851.327.85z" fill="#F4C446"/><path d="M336.045 12.541a.257.257 0 01-.245-.168l-.328-.848-.327-.85a.264.264 0 01.185-.348l7.056-1.705a.262.262 0 01.187.484l-6.401 3.404a.28.28 0 01-.127.031zm-.081-1.205l.219.571 4.306-2.29-4.745 1.148.22.571z" fill="#000"/><path d="M343.043 9.59c.357-.135.517-.58.357-.996-.16-.415-.58-.641-.937-.506-.357.136-.516.582-.356.997.16.415.579.641.936.506z" fill="#F4C446"/><path d="M342.827 9.872a.942.942 0 01-.451-.118 1.138 1.138 0 01-.516-.595 1.13 1.13 0 01-.018-.783.893.893 0 01.526-.55c.494-.187 1.064.107 1.278.654.101.26.106.538.019.784a.895.895 0 01-.838.608zm-.267-1.56a.365.365 0 00-.216.237.615.615 0 00.013.421.62.62 0 00.275.323c.108.057.222.07.322.031a.37.37 0 00.217-.236.603.603 0 00-.013-.422c-.111-.277-.378-.437-.598-.353z" fill="#000"/><path d="M205.804 4.745h-1.107v5.489h1.107v-5.49z" fill="#FF5A3B"/><path d="M205.808 10.502h-1.107a.264.264 0 01-.264-.262V4.748c0-.144.119-.262.264-.262h1.107c.145 0 .264.118.264.262v5.49a.264.264 0 01-.264.264zm-.843-.524h.579V5.01h-.579v4.968z" fill="#000"/><path d="M205.204 5.387c.687 0 1.244-.43 1.244-.962 0-.53-.557-.961-1.244-.961-.687 0-1.244.43-1.244.961 0 .531.557.962 1.244.962z" fill="#FF5A3B"/><path d="M205.208 5.653c-.832 0-1.508-.548-1.508-1.224 0-.676.676-1.223 1.508-1.223.833 0 1.509.547 1.509 1.223s-.676 1.224-1.509 1.224zm0-1.923c-.531 0-.98.32-.98.7 0 .38.449.699.98.699.531 0 .981-.32.981-.7 0-.38-.45-.7-.981-.7z" fill="#000"/><path d="M227.203 4.484h-1.107v5.489h1.107v-5.49z" fill="#FF5A3B"/><path d="M227.208 10.24h-1.107a.264.264 0 01-.264-.261V4.487c0-.144.119-.262.264-.262h1.107c.145 0 .264.118.264.262v5.49a.264.264 0 01-.264.264zm-.843-.523h.579V4.749h-.579v4.968z" fill="#000"/><path d="M226.606 5.128c.687 0 1.244-.43 1.244-.962 0-.531-.557-.962-1.244-.962-.687 0-1.244.431-1.244.962 0 .531.557.962 1.244.962z" fill="#FF5A3B"/><path d="M226.608 5.391c-.832 0-1.509-.547-1.509-1.223s.677-1.224 1.509-1.224c.832 0 1.508.548 1.508 1.224 0 .676-.676 1.223-1.508 1.223zm0-1.923c-.531 0-.98.32-.98.7 0 .38.449.7.98.7.531 0 .98-.32.98-.7 0-.38-.449-.7-.98-.7z" fill="#000"/><path d="M284.378 29.95a1.823 1.823 0 001.831-1.816 1.823 1.823 0 00-1.831-1.815c-1.011 0-1.83.813-1.83 1.815 0 1.003.819 1.816 1.83 1.816z" fill="#fff"/><path d="M284.383 30.217a2.09 2.09 0 01-2.095-2.078 2.09 2.09 0 012.095-2.078 2.09 2.09 0 012.095 2.078 2.09 2.09 0 01-2.095 2.078zm0-3.632c-.864 0-1.567.697-1.567 1.554 0 .857.703 1.553 1.567 1.553s1.567-.696 1.567-1.553-.703-1.554-1.567-1.554z" fill="#000"/><path d="M283.922 37.895a1.824 1.824 0 001.831-1.816c0-1.003-.82-1.816-1.831-1.816a1.823 1.823 0 00-1.831 1.816c0 1.003.819 1.816 1.831 1.816z" fill="#fff"/><path d="M283.926 38.161a2.09 2.09 0 01-2.095-2.078 2.09 2.09 0 012.095-2.078 2.09 2.09 0 012.095 2.078 2.09 2.09 0 01-2.095 2.078zm0-3.632c-.864 0-1.567.697-1.567 1.554 0 .857.703 1.554 1.567 1.554s1.567-.697 1.567-1.554c0-.856-.703-1.553-1.567-1.553z" fill="#000"/><path d="M284.527 51.019l-1.11 7.182s-5.844.668-5.529 1.85c.211.79 4.427-.383 4.427-.383s-3.801.914-3.228 1.897c.571.982 4.536-1.284 4.536-1.284s-2.319 2.007-1.44 2.342c.88.336 1.955-.906 3.031-2.15 1.373-1.588 2.702-14.537 2.702-14.537l-3.292.519c0 .002-.021 2.059-.097 4.564z" fill="#004B7C"/><path d="M282.499 62.95c-.134 0-.272-.024-.404-.076a.54.54 0 01-.359-.412c-.058-.325.203-.767.549-1.19-.195.09-.398.182-.607.268-1.596.666-2.491.718-2.814.163a.655.655 0 01-.037-.606c.085-.194.267-.377.507-.545-.612.063-1.151.053-1.431-.105a.54.54 0 01-.265-.322.643.643 0 01.103-.537c.074-.11.856-1.066 5.451-1.617l1.078-6.97c.073-2.467.097-4.519.097-4.54a.26.26 0 01.222-.256l3.292-.52a.263.263 0 01.304.286c-.056.532-1.353 13.049-2.764 14.68-1.019 1.177-1.989 2.299-2.922 2.299zm-.245-.58s.01.006.029.014c.71.27 1.786-.977 2.734-2.075 1.049-1.213 2.201-10.245 2.605-14.052l-2.732.43c-.008.597-.034 2.334-.095 4.344l-.002.031-1.11 7.182a.262.262 0 01-.23.22c-1.804.207-4.835.773-5.273 1.415-.042.06-.034.092-.029.107.193.215 1.767.027 3.516-.411.267-.076.481-.131.595-.157a.262.262 0 01.132.508 16 16 0 01-.547.144c-1.081.312-2.351.815-2.531 1.232-.021.052-.021.089.008.136.259.445 2.409-.37 4.177-1.378a.266.266 0 01.346.076.258.258 0 01-.042.348c-.872.752-1.623 1.67-1.551 1.887z" fill="#000"/><path d="M288.066 16.632l-2.264-6.91s4.92-3.204 4.101-4.115c-.547-.613-3.781 2.316-3.781 2.316s2.98-2.51 2.024-3.134c-.957-.623-3.472 3.17-3.472 3.17s1.163-2.827.225-2.732c-.938.094-1.334 1.682-1.731 3.272-.507 2.03 4.177 14.188 4.177 14.188l2.706-1.93c-.003-.006-.917-1.85-1.985-4.125z" fill="#004B7C"/><path d="M287.345 22.946a.264.264 0 01-.249-.168c-.193-.5-4.708-12.257-4.187-14.345.43-1.727.837-3.356 1.96-3.469a.549.549 0 01.51.207c.195.26.166.763.055 1.287.899-1.138 2.114-2.372 2.856-1.887a.652.652 0 01.307.524c.013.212-.069.456-.206.713.52-.33 1.017-.558 1.329-.545.198.01.317.1.38.17a.63.63 0 01.151.527c-.019.13-.28 1.336-4.135 3.875l2.198 6.705c1.052 2.237 1.963 4.08 1.971 4.098a.263.263 0 01-.082.327l-2.705 1.931a.267.267 0 01-.153.05zm-2.399-17.463h-.022c-.752.076-1.149 1.666-1.5 3.073-.389 1.554 2.679 10.135 4.045 13.714l2.245-1.604a294.815 294.815 0 01-1.897-3.95l-2.266-6.91a.266.266 0 01.105-.301c1.519-.99 3.968-2.846 4.071-3.616.011-.073-.01-.097-.023-.107-.27-.108-1.593.765-2.954 1.936-.203.188-.37.33-.46.403a.267.267 0 01-.37-.026.259.259 0 01.022-.367c.084-.076.232-.21.422-.372.825-.76 1.733-1.776 1.704-2.23A.128.128 0 00288 5.01c-.434-.283-1.984 1.404-3.105 3.094a.264.264 0 01-.343.09.262.262 0 01-.122-.331c.436-1.059.69-2.211.526-2.374 0-.005-.002-.005-.01-.005z" fill="#000"/><path fill-rule="evenodd" clip-rule="evenodd" d="M297.633 36.609c2.161-1.473 4.457-3.286 6.737-5.372 7.828-7.163 10.76-13.904 8.671-16.15-2.087-2.243-8.404.862-16.232 8.026a72.702 72.702 0 00-1.749 1.66c-1.886-9.398-6.721-15.982-9.785-14.308-5.379 2.935.65 11.555.005 23.615-.409 12.071-5.477 20.833-3.046 22.416 4.467 2.905 8.948-1.934 11.495-9.826a51.817 51.817 0 003.556 4.252c6.504 6.994 12.279 8.448 14.54 6.378 2.262-2.07.159-6.88-6.348-13.874-2.636-2.835-5.373-5.174-7.844-6.817z" fill="#9A7BF8"/><path d="M309.254 58.428c-.954 0-2.04-.223-3.2-.671-2.824-1.09-5.923-3.39-8.961-6.653a52.224 52.224 0 01-3.268-3.87c-1.833 5.432-4.494 9.103-7.339 10.1-1.485.522-2.964.315-4.393-.615-1.385-.901-.685-3.597.378-7.677.99-3.807 2.348-9.02 2.549-14.966.267-5.012-.637-9.493-1.366-13.095-1.049-5.19-1.804-8.94 1.495-10.74.722-.393 1.57-.388 2.449.018 3.06 1.412 6.164 7.13 7.627 13.994a65.24 65.24 0 011.409-1.328c3.851-3.527 7.426-6.147 10.329-7.583 2.994-1.478 5.163-1.624 6.275-.427 1.141 1.226.935 3.543-.576 6.524-1.57 3.095-4.449 6.642-8.111 9.993-2.126 1.947-4.293 3.687-6.446 5.175 2.497 1.703 5.107 3.993 7.569 6.642 3.234 3.477 5.424 6.453 6.51 8.853 1.109 2.456 1.051 4.269-.177 5.393-.677.62-1.625.933-2.753.933zm-15.521-12.016c.082 0 .161.039.211.107a50.955 50.955 0 003.538 4.229c3.767 4.048 6.845 5.78 8.763 6.521 2.338.902 4.309.844 5.405-.157 1.041-.954 1.059-2.565.053-4.792-1.062-2.348-3.221-5.277-6.415-8.712-2.541-2.733-5.238-5.075-7.796-6.778a.254.254 0 01-.116-.218.26.26 0 01.114-.217c2.235-1.522 4.491-3.323 6.705-5.348 3.616-3.309 6.456-6.807 7.996-9.844 1.385-2.732 1.628-4.897.661-5.934-.938-1.009-2.893-.82-5.651.542-2.861 1.412-6.388 4.004-10.206 7.496a66.213 66.213 0 00-1.74 1.654.266.266 0 01-.447-.134c-1.548-7.716-4.909-12.93-7.429-14.096-.732-.338-1.395-.349-1.971-.034-2.961 1.614-2.272 5.023-1.231 10.179.732 3.629 1.646 8.146 1.374 13.221-.203 5.997-1.569 11.246-2.565 15.074-.97 3.723-1.67 6.411-.6 7.108 1.284.836 2.607 1.024 3.928.56 2.772-.971 5.385-4.708 7.17-10.247a.262.262 0 01.209-.178l.04-.002z" fill="#000"/><path d="M307.693 54.072a1.26 1.26 0 011.662-.246c1.952 1.286 6.166 4.255 5.389 5.39-1.006 1.464-3.495 4.215-4.039 3.356-.544-.86 2.216-3.178 1.693-3.812-.354-.43-2.827-1.916-4.377-2.827a1.238 1.238 0 01-.328-1.86z" fill="#004B7C"/><path d="M311.013 63H311a.601.601 0 01-.515-.285c-.378-.598.253-1.465.919-2.385.275-.374.914-1.255.793-1.402-.238-.29-1.85-1.323-4.307-2.766a1.494 1.494 0 01-.399-2.251 1.519 1.519 0 012.011-.299c2.401 1.585 5.318 3.752 5.58 5.086.05.254.01.48-.119.668-.666.975-2.838 3.634-3.95 3.634zm-2.349-9.115a.989.989 0 00-.974 1.153c.05.283.221.526.47.673 2.657 1.559 4.153 2.531 4.446 2.885.378.458-.156 1.192-.774 2.04-.433.598-1.091 1.5-.901 1.798.019.029.032.04.077.04h.005c.634 0 2.46-1.869 3.514-3.404.031-.045.068-.12.037-.275-.172-.875-2.175-2.652-5.355-4.75a1.007 1.007 0 00-.545-.16z" fill="#000"/><path d="M309.958 18.856c.407.493 1.125.6 1.661.247 1.953-1.287 6.167-4.256 5.39-5.39-1.007-1.465-3.495-4.216-4.04-3.356-.544.859 2.217 3.178 1.694 3.812-.354.43-2.827 1.915-4.378 2.827-.66.39-.816 1.27-.327 1.86z" fill="#004B7C"/><path d="M310.929 19.579a1.53 1.53 0 01-1.173-.55 1.497 1.497 0 01.399-2.251c2.457-1.441 4.068-2.476 4.306-2.767.121-.147-.518-1.027-.793-1.402-.668-.917-1.299-1.784-.919-2.384a.604.604 0 01.515-.286h.013c1.115 0 3.284 2.66 3.953 3.634a.852.852 0 01.118.671c-.264 1.334-3.18 3.5-5.579 5.086-.259.165-.55.249-.84.249zm-.764-.886a.994.994 0 001.311.197c3.18-2.099 5.183-3.876 5.355-4.75.029-.153-.008-.231-.037-.276-1.054-1.538-2.877-3.403-3.514-3.403h-.005c-.045 0-.061.013-.077.039-.19.299.468 1.2.901 1.797.618.85 1.152 1.583.774 2.041-.293.354-1.789 1.326-4.446 2.885a.977.977 0 00-.47.674.972.972 0 00.208.796zm-25.786 10.089a.65.65 0 01-.653-.644.65.65 0 01.653-.645c.359 0 .65.291.65.645a.649.649 0 01-.65.644z" fill="#000"/><path d="M284.383 27.757c.214 0 .388.173.388.383a.387.387 0 01-.774 0c0-.21.172-.383.386-.383zm0-.524a.91.91 0 00-.914.907c0 .5.409.906.914.906a.913.913 0 00.917-.906.915.915 0 00-.917-.907zm-.004 9.489a.651.651 0 01-.653-.647c0-.356.293-.644.653-.644.359 0 .65.29.65.644a.648.648 0 01-.65.647z" fill="#000"/><path d="M284.383 35.698c.214 0 .388.172.388.382a.387.387 0 01-.774 0c0-.21.172-.382.386-.382zm0-.524a.91.91 0 00-.914.906c0 .5.409.907.914.907a.913.913 0 00.917-.907.917.917 0 00-.917-.906z" fill="#000"/><path d="M58.842 33.954c8.427-.506 15.109-3.41 14.92-6.488-.187-3.076-7.172-5.162-15.6-4.658-2.023.12-3.946.382-5.698.749-.317-2.969-.859-5.686-1.57-8.007 1.71.136 3.557.157 5.48.042 8.428-.506 15.109-3.41 14.921-6.488-.187-3.076-7.172-5.161-15.6-4.658-5.828.348-10.819 1.847-13.283 3.754-3.546 2.513-6.159 11.204-6.159 21.543 0 11.18 3.057 20.432 7.041 22.03 2.623 1.67 7.86 2.607 13.82 2.25 8.427-.505 15.109-3.408 14.921-6.487-.188-3.076-7.173-5.161-15.6-4.658a39.763 39.763 0 00-5.435.694c.82-2.78 1.398-6.1 1.649-9.729a38.3 38.3 0 006.193.11z" fill="#7CE464"/><path d="M54.616 54.37c-4.824 0-9.067-.858-11.44-2.356-4.163-1.698-7.182-11.052-7.182-22.264 0-10.192 2.578-19.137 6.269-21.755 2.584-2.001 7.73-3.46 13.42-3.801 8.706-.522 15.683 1.632 15.88 4.902.099 1.606-1.46 3.191-4.387 4.465-2.846 1.236-6.676 2.054-10.782 2.3-1.751.105-3.474.1-5.133-.013.65 2.211 1.133 4.698 1.437 7.402a39.918 39.918 0 015.45-.697c8.708-.524 15.683 1.632 15.88 4.902.098 1.606-1.46 3.192-4.387 4.465-2.846 1.237-6.676 2.054-10.782 2.3-2.055.123-4.06.097-5.965-.08-.243 3.285-.766 6.416-1.52 9.102a39.731 39.731 0 015.047-.616c8.705-.522 15.682 1.632 15.88 4.902.098 1.606-1.461 3.191-4.388 4.465-2.846 1.236-6.676 2.054-10.782 2.3-.848.053-1.69.076-2.515.076zm3.511-49.726c-.79 0-1.593.024-2.412.074-5.587.335-10.623 1.753-13.135 3.7-3.57 2.53-6.058 11.3-6.058 21.335 0 10.85 2.956 20.217 6.877 21.786a.246.246 0 01.045.024c2.684 1.708 7.917 2.555 13.66 2.209 4.048-.244 7.813-1.043 10.603-2.256 2.67-1.16 4.155-2.602 4.07-3.951-.174-2.88-7.193-4.9-15.32-4.413a39.184 39.184 0 00-5.397.692.267.267 0 01-.248-.078.258.258 0 01-.058-.252c.827-2.812 1.395-6.157 1.638-9.674a.275.275 0 01.092-.183.271.271 0 01.198-.06 38.99 38.99 0 006.15.105l.017.262-.016-.262c4.047-.244 7.812-1.043 10.602-2.256 2.67-1.161 4.155-2.602 4.07-3.952-.174-2.879-7.193-4.9-15.32-4.412-1.96.118-3.865.367-5.659.744a.26.26 0 01-.208-.044.263.263 0 01-.108-.184c-.315-2.934-.84-5.612-1.562-7.957a.257.257 0 01.048-.241.267.267 0 01.227-.097c1.749.139 3.58.152 5.442.042 4.047-.244 7.812-1.046 10.602-2.259 2.671-1.16 4.156-2.601 4.071-3.95-.158-2.597-5.852-4.492-12.91-4.492z" fill="#000"/><path d="M45.41 27.294c1.533 0 2.775-1.232 2.775-2.751 0-1.52-1.242-2.751-2.774-2.751s-2.774 1.232-2.774 2.751c0 1.52 1.242 2.751 2.774 2.751z" fill="#fff"/><path d="M45.41 27.56a3.026 3.026 0 01-1.971-.723 2.991 2.991 0 01-1.054-2.057c-.13-1.656 1.123-3.11 2.792-3.238 1.67-.129 3.136 1.113 3.266 2.77a2.977 2.977 0 01-.722 2.192 3.022 3.022 0 01-2.074 1.046c-.076.008-.155.01-.237.01zm.008-5.502c-.066 0-.13.003-.196.008-1.379.107-2.415 1.307-2.306 2.675a2.498 2.498 0 002.695 2.287 2.502 2.502 0 001.711-.864 2.454 2.454 0 00.595-1.81c-.1-1.303-1.205-2.296-2.5-2.296z" fill="#000"/><path d="M45.548 33.49c1.532 0 2.774-1.231 2.774-2.75 0-1.52-1.242-2.752-2.774-2.752s-2.774 1.232-2.774 2.751c0 1.52 1.242 2.751 2.774 2.751z" fill="#fff"/><path d="M45.55 33.757c-1.57 0-2.904-1.203-3.028-2.78-.13-1.656 1.123-3.11 2.792-3.239a3.037 3.037 0 012.212.715c.615.524.99 1.253 1.054 2.057.13 1.656-1.123 3.11-2.793 3.239-.08.005-.158.008-.238.008zm-2.5-2.82a2.503 2.503 0 002.698 2.288c1.379-.108 2.414-1.308 2.306-2.675a2.475 2.475 0 00-.87-1.698 2.498 2.498 0 00-1.825-.59 2.496 2.496 0 00-2.309 2.675zm1.925-4.736a2.105 2.105 0 002.114-2.096 2.105 2.105 0 00-2.114-2.096 2.105 2.105 0 00-2.114 2.096c0 1.157.947 2.096 2.114 2.096z" fill="#000"/><path d="M44.974 26.464a2.374 2.374 0 01-2.37-2.174 2.33 2.33 0 01.563-1.717 2.35 2.35 0 011.622-.817c1.305-.1 2.454.872 2.555 2.167.05.629-.15 1.237-.563 1.716a2.354 2.354 0 01-1.807.825zm.005-4.192c-.047 0-.095.003-.145.005a1.86 1.86 0 00-1.263.637 1.8 1.8 0 00-.439 1.334c.037.487.267.932.642 1.252a1.86 1.86 0 002.608-.202 1.8 1.8 0 00.439-1.333 1.846 1.846 0 00-1.842-1.693zm.257 9.953a2.105 2.105 0 002.114-2.096 2.105 2.105 0 00-2.114-2.096 2.105 2.105 0 00-2.113 2.096c0 1.157.946 2.096 2.114 2.096z" fill="#000"/><path d="M45.238 32.491a2.374 2.374 0 01-2.37-2.174 2.33 2.33 0 01.563-1.717 2.35 2.35 0 011.622-.817c1.305-.1 2.454.872 2.555 2.167a2.33 2.33 0 01-.563 1.716 2.355 2.355 0 01-1.807.825zm.005-4.192c-.047 0-.095.003-.145.005-.491.04-.94.265-1.263.637a1.8 1.8 0 00-.438 1.334c.037.487.266.932.642 1.252a1.86 1.86 0 002.607-.202 1.8 1.8 0 00.439-1.333 1.846 1.846 0 00-1.842-1.693z" fill="#000"/><path fill-rule="evenodd" clip-rule="evenodd" d="M42.124 16.397c.542.217.798.841.597 1.402a32.122 32.122 0 000 21.812c.201.561-.055 1.184-.597 1.402-.541.218-1.175-.092-1.392-.694a34.213 34.213 0 010-23.225c.217-.605.85-.915 1.392-.697z" fill="#A93535"/><path d="M41.77 41.347c-.178 0-.358-.039-.53-.115a1.443 1.443 0 01-.755-.825 34.566 34.566 0 010-23.403 1.42 1.42 0 01.756-.823c.32-.141.67-.152.985-.026.671.267 1.002 1.03.748 1.732a31.966 31.966 0 000 21.637c.254.702-.074 1.462-.748 1.732a1.148 1.148 0 01-.457.091zm0-24.752a.765.765 0 00-.31.068.9.9 0 00-.473.522 34.025 34.025 0 000 23.049.892.892 0 00.473.521.73.73 0 00.57.019c.402-.16.603-.64.447-1.07a32.475 32.475 0 010-21.99c.153-.43-.045-.91-.446-1.07a.693.693 0 00-.262-.049z" fill="#000"/><path d="M23.533 58.164c4.545 0 8.23-12.728 8.23-28.429 0-15.7-3.685-28.428-8.23-28.428s-8.23 12.728-8.23 28.428c0 15.7 3.685 28.429 8.23 28.429z" fill="#9A7BF8"/><path d="M23.537 58.43c-4.763 0-8.493-12.603-8.493-28.69 0-16.088 3.73-28.69 8.493-28.69 4.764 0 8.494 12.602 8.494 28.69 0 16.087-3.73 28.69-8.494 28.69zm0-56.857c-4.316 0-7.965 12.899-7.965 28.166 0 15.268 3.649 28.167 7.965 28.167 4.317 0 7.966-12.9 7.966-28.166 0-15.268-3.649-28.167-7.966-28.167z" fill="#000"/><path fill-rule="evenodd" clip-rule="evenodd" d="M19.296 20.077c-3.25 0-8.927 2.448-10.848-6.257-.626-2.835-.55-7.074-2.256-7.318-2.47-.353-4.475 1.955-4.874 4.326-.275 1.633-.338 3.472-.275 4.352.531 7.394 6.666 13.06 14.14 13.06h4.24c2.422 0 4.375-2.107 4.087-4.563-.249-2.077-2.106-3.6-4.214-3.6z" fill="#9A7BF8"/><path d="M19.424 28.505h-4.24c-3.683 0-7.18-1.36-9.854-3.825a14.24 14.24 0 01-4.55-9.474c-.066-.941.008-2.806.278-4.415.417-2.479 2.515-4.92 5.172-4.54 1.432.203 1.741 2.522 2.072 4.975.116.87.235 1.768.407 2.544 1.545 7.006 5.534 6.558 8.739 6.196.663-.076 1.286-.144 1.85-.144 2.292 0 4.216 1.646 4.472 3.831a4.318 4.318 0 01-1.08 3.393 4.387 4.387 0 01-3.266 1.46zM5.742 6.737c-1.739 0-3.715 1.48-4.161 4.138-.264 1.57-.336 3.382-.272 4.291.523 7.305 6.488 12.815 13.875 12.815h4.24c1.094 0 2.14-.469 2.874-1.284a3.75 3.75 0 00.949-2.984c-.225-1.92-1.924-3.367-3.95-3.367-.534 0-1.144.069-1.791.142-3.236.364-7.667.864-9.315-6.605-.177-.797-.299-1.709-.415-2.59-.288-2.15-.584-4.377-1.622-4.524a2.678 2.678 0 00-.412-.032z" fill="#000"/><path fill-rule="evenodd" clip-rule="evenodd" d="M5.458 8.184a1.04 1.04 0 00.51-.503c.375-.796 1.226-2.69.777-2.64-.568.062-1.007 1.252-1.007 1.252s.766-3.069.15-3.131c-.615-.063-.747 2.329-.747 2.329s-.095-2.602-.531-2.586c-.439.016-.214 2.57-.214 2.57S3.54 2.716 3.249 2.824c-.517.19-.05 2.216.383 3.374.154.41.267.854.347 1.258.134.655.863 1.011 1.479.728z" fill="#FEA795"/><path d="M5.018 8.55a1.32 1.32 0 01-1.292-1.044 7.859 7.859 0 00-.333-1.217c-.013-.034-1.241-3.335-.23-3.71a.314.314 0 01.257.016c.174.086.399.474.668 1.16.024-.434.093-.812.238-.974a.398.398 0 01.28-.136c.132-.003.412-.013.61.906.085-.225.188-.411.317-.521a.499.499 0 01.391-.126c.13.013.243.081.32.194.222.314.164 1.124.045 1.879a.85.85 0 01.433-.192.354.354 0 01.338.145c.109.146.307.421-.848 2.869a1.32 1.32 0 01-1.194.752zM3.29 3.243c-.058.467.159 1.698.597 2.864.14.375.262.81.357 1.297a.766.766 0 00.41.537.797.797 0 001.08-.364c.56-1.19.787-1.855.856-2.172-.233.199-.476.657-.597.982a.262.262 0 01-.325.16.262.262 0 01-.18-.314c.307-1.226.457-2.468.349-2.785-.169.18-.372 1.118-.425 2.056a.265.265 0 01-.265.25h-.002a.265.265 0 01-.262-.252c-.026-.76-.121-1.63-.237-2.08-.059.45-.045 1.296.018 2.03a.264.264 0 01-.515.1c-.272-.878-.637-1.882-.859-2.309z" fill="#000"/><path d="M85.395 53.188c4.232 0 7.662-10.91 7.662-24.368 0-13.457-3.43-24.367-7.662-24.367-4.231 0-7.661 10.91-7.661 24.367 0 13.458 3.43 24.367 7.661 24.367z" fill="#7E3E62"/><path d="M85.397 53.451c-4.444 0-7.926-10.818-7.926-24.629 0-13.81 3.482-24.629 7.926-24.629s7.926 10.819 7.926 24.63c0 13.81-3.482 24.628-7.926 24.628zm0-48.734C81.387 4.717 78 15.756 78 28.822c0 13.067 3.387 24.105 7.397 24.105s7.397-11.038 7.397-24.105c0-13.066-3.387-24.105-7.397-24.105z" fill="#000"/><path fill-rule="evenodd" clip-rule="evenodd" d="M91.28 13.215c-1.46.59-3.212.933-5.093.933-2.528 0-4.821-.619-6.488-1.622 1.403-4.958 3.434-8.073 5.696-8.073 2.364 0 4.48 3.406 5.886 8.762z" fill="#9A7BF8"/><path d="M86.19 14.412c-2.495 0-4.849-.59-6.626-1.66a.257.257 0 01-.117-.293c1.509-5.331 3.62-8.266 5.95-8.266 2.41 0 4.647 3.265 6.142 8.958a.262.262 0 01-.156.31c-1.545.62-3.339.95-5.194.95zm-6.18-2.008c1.675.957 3.86 1.483 6.18 1.483 1.7 0 3.347-.285 4.779-.828-1.409-5.23-3.485-8.342-5.572-8.342-2.016 0-3.974 2.798-5.387 7.688z" fill="#000"/><path fill-rule="evenodd" clip-rule="evenodd" d="M81.033 55.544c-1.67 0-3.038-1.357-3.038-3.013v-1.048c0-1.656 1.369-3.014 3.038-3.014 1.67 0 3.038 1.355 3.038 3.014v1.048c0 1.658-1.368 3.013-3.038 3.013z" fill="#9A7BF8"/><path d="M81.038 55.81c-1.82 0-3.302-1.47-3.302-3.275v-1.048c0-1.806 1.482-3.276 3.302-3.276s3.302 1.47 3.302 3.276v1.048c0 1.805-1.482 3.275-3.302 3.275zm0-7.075c-1.53 0-2.774 1.234-2.774 2.752v1.048c0 1.517 1.244 2.75 2.774 2.75s2.774-1.233 2.774-2.75v-1.048c0-1.518-1.244-2.752-2.774-2.752z" fill="#000"/><path fill-rule="evenodd" clip-rule="evenodd" d="M85.524 55.544c-1.67 0-3.038-1.357-3.038-3.013v-1.048c0-1.656 1.369-3.014 3.038-3.014 1.67 0 3.038 1.355 3.038 3.014v1.048c0 1.658-1.368 3.013-3.038 3.013z" fill="#9A7BF8"/><path d="M85.529 55.81c-1.82 0-3.303-1.47-3.303-3.275v-1.048c0-1.806 1.482-3.276 3.303-3.276 1.82 0 3.302 1.47 3.302 3.276v1.048c0 1.805-1.482 3.275-3.302 3.275zm0-7.075c-1.53 0-2.774 1.234-2.774 2.752v1.048c0 1.517 1.244 2.75 2.774 2.75s2.774-1.233 2.774-2.75v-1.048c0-1.518-1.245-2.752-2.774-2.752z" fill="#000"/><path fill-rule="evenodd" clip-rule="evenodd" d="M90.28 55.544c-1.67 0-3.038-1.357-3.038-3.013v-1.048c0-1.656 1.369-3.014 3.038-3.014 1.67 0 3.038 1.355 3.038 3.014v1.048c0 1.658-1.368 3.013-3.038 3.013z" fill="#9A7BF8"/><path d="M90.285 55.81c-1.82 0-3.303-1.47-3.303-3.275v-1.048c0-1.806 1.483-3.276 3.303-3.276 1.82 0 3.302 1.47 3.302 3.276v1.048c0 1.805-1.482 3.275-3.302 3.275zm0-7.075c-1.53 0-2.774 1.234-2.774 2.752v1.048c0 1.517 1.244 2.75 2.774 2.75s2.774-1.233 2.774-2.75v-1.048c0-1.518-1.245-2.752-2.774-2.752z" fill="#000"/><path d="M92.922 25.413c5.18 0 9.378-3.871 9.378-8.647 0-4.775-4.199-8.646-9.378-8.646-5.18 0-9.379 3.871-9.379 8.646 0 4.776 4.199 8.647 9.379 8.647z" fill="#582665"/><path d="M92.926 25.679c-5.318 0-9.643-3.996-9.643-8.909s4.325-8.908 9.643-8.908c5.318 0 9.643 3.995 9.643 8.908 0 4.913-4.325 8.909-9.643 8.909zm0-17.293c-5.025 0-9.114 3.76-9.114 8.384 0 4.625 4.09 8.384 9.114 8.384 5.025 0 9.114-3.76 9.114-8.384 0-4.624-4.09-8.384-9.114-8.384z" fill="#000"/><path d="M99.395 15.456c0 .393-.043.778-.127 1.147-.877-2.177-3.15-3.728-5.818-3.728-3.003 0-5.505 1.968-6.081 4.577a5.265 5.265 0 01-.391-1.996c0-3.16 2.779-5.725 6.208-5.725 3.43 0 6.209 2.565 6.209 5.725z" fill="#000"/><path d="M87.373 17.719a.267.267 0 01-.246-.163 5.51 5.51 0 01-.409-2.096c0-3.301 2.903-5.987 6.473-5.987 3.569 0 6.472 2.686 6.472 5.987 0 .414-.045.82-.132 1.205a.266.266 0 01-.238.205.268.268 0 01-.267-.165c-.858-2.133-3.098-3.564-5.571-3.564-2.816 0-5.266 1.84-5.823 4.37a.26.26 0 01-.235.205c-.008.003-.016.003-.024.003zm5.818-7.722c-3.279 0-5.945 2.45-5.945 5.463 0 .375.043.747.122 1.106.914-2.332 3.34-3.949 6.087-3.949 2.372 0 4.55 1.219 5.672 3.108a4.35 4.35 0 00.008-.265c0-3.013-2.666-5.463-5.944-5.463z" fill="#000"/><path fill-rule="evenodd" clip-rule="evenodd" d="M99.268 16.603c-.576 2.61-3.078 4.577-6.082 4.577-2.668 0-4.94-1.55-5.817-3.728.576-2.61 3.078-4.577 6.082-4.577 2.668 0 4.94 1.55 5.817 3.728z" fill="#67CB7E"/><path d="M93.19 21.447c-2.689 0-5.124-1.565-6.062-3.894a.273.273 0 01-.013-.152c.61-2.772 3.278-4.784 6.34-4.784 2.69 0 5.125 1.564 6.063 3.893.019.05.024.102.013.152-.613 2.772-3.278 4.785-6.34 4.785zm-5.54-4.012c.88 2.091 3.097 3.49 5.54 3.49 2.788 0 5.213-1.8 5.805-4.291-.88-2.091-3.096-3.49-5.54-3.49-2.787-.003-5.212 1.797-5.804 4.291z" fill="#000"/><path d="M96.62 55.02c8.536 0 15.455-6.042 15.455-13.494s-6.919-13.494-15.455-13.494c-8.535 0-15.455 6.042-15.455 13.494S88.085 55.02 96.62 55.02z" fill="#582665"/><path d="M96.625 55.286c-8.668 0-15.72-6.17-15.72-13.756 0-7.585 7.052-13.756 15.72-13.756 8.668 0 15.719 6.17 15.719 13.756 0 7.585-7.051 13.756-15.72 13.756zm0-26.987c-8.378 0-15.191 5.934-15.191 13.231s6.813 13.232 15.19 13.232c8.378 0 15.192-5.935 15.192-13.232S105.002 28.3 96.625 28.3z" fill="#000"/><path d="M105.206 39.634c0 .498-.047.988-.142 1.464-1.213-3.576-5.007-6.188-9.5-6.188-4.901 0-8.97 3.105-9.765 7.184a7.654 7.654 0 01-.407-2.46c0-4.777 4.436-8.65 9.907-8.65 5.472 0 9.907 3.873 9.907 8.65z" fill="#000"/><path d="M85.804 42.36a.264.264 0 01-.251-.177 7.894 7.894 0 01-.42-2.544c0-4.913 4.562-8.912 10.17-8.912 5.609 0 10.172 3.999 10.172 8.912a7.75 7.75 0 01-.148 1.514.264.264 0 01-.243.21.26.26 0 01-.267-.178c-1.199-3.54-5.004-6.011-9.249-6.011-4.721 0-8.718 2.932-9.505 6.972a.263.263 0 01-.243.212c-.006.003-.011.003-.016.003zm9.5-11.108c-5.318 0-9.643 3.762-9.643 8.387 0 .48.047.956.14 1.428 1.242-3.77 5.183-6.414 9.767-6.414 4.087 0 7.791 2.187 9.365 5.431a8.2 8.2 0 00.014-.445c0-4.625-4.325-8.387-9.643-8.387z" fill="#000"/><path fill-rule="evenodd" clip-rule="evenodd" d="M105.065 41.098c-.796 4.08-4.864 7.184-9.765 7.184-4.494 0-8.287-2.612-9.5-6.188.795-4.08 4.864-7.185 9.764-7.185 4.494 0 8.288 2.613 9.501 6.189z" fill="#FEA795"/><path d="M95.304 48.55c-4.47 0-8.48-2.618-9.75-6.368a.254.254 0 01-.009-.133c.835-4.287 5.052-7.397 10.023-7.397 4.471 0 8.481 2.618 9.752 6.367.013.042.018.09.008.134-.835 4.286-5.052 7.396-10.024 7.396zm-9.228-6.47c1.223 3.503 5.007 5.945 9.228 5.945 4.695 0 8.674-2.9 9.493-6.904-1.224-3.503-5.007-5.945-9.228-5.945-4.695 0-8.674 2.9-9.493 6.904z" fill="#000"/><path d="M94.771 42.18c1.24 0 2.246-.997 2.246-2.227a2.236 2.236 0 00-2.246-2.227c-1.24 0-2.246.997-2.246 2.227a2.236 2.236 0 002.246 2.227z" fill="#fff"/><path d="M94.775 42.447c-1.384 0-2.51-1.116-2.51-2.489 0-1.373 1.126-2.489 2.51-2.489a2.502 2.502 0 012.51 2.49c0 1.372-1.125 2.488-2.51 2.488zm0-4.454c-1.093 0-1.981.88-1.981 1.965s.888 1.965 1.981 1.965c1.094 0 1.982-.88 1.982-1.965a1.974 1.974 0 00-1.982-1.965z" fill="#000"/><path d="M100.055 41.658c1.24 0 2.246-.997 2.246-2.227a2.237 2.237 0 00-2.246-2.227c-1.24 0-2.245.997-2.245 2.227a2.236 2.236 0 002.245 2.227z" fill="#fff"/><path d="M100.06 41.924a2.502 2.502 0 01-2.51-2.49c0-1.372 1.125-2.489 2.51-2.489a2.501 2.501 0 012.509 2.49 2.501 2.501 0 01-2.509 2.489zm0-4.455c-1.094 0-1.982.88-1.982 1.966 0 1.084.888 1.965 1.982 1.965 1.093 0 1.981-.88 1.981-1.965a1.974 1.974 0 00-1.981-1.966z" fill="#000"/><path d="M97.814 39.958h-.793a.264.264 0 01-.264-.262c0-.144.119-.262.264-.262h.793c.145 0 .264.118.264.262a.264.264 0 01-.264.262zm0-22.695a.379.379 0 01-.38.377.377.377 0 110-.754c.211 0 .38.167.38.377zm-5.318 0a.38.38 0 01-.381.377.377.377 0 110-.754c.211 0 .38.167.38.377zm1.4 23.322c.171 0 .31-.138.31-.307a.308.308 0 00-.31-.306.308.308 0 00-.309.306c0 .17.139.307.31.307zm6.779-.611a.308.308 0 00.309-.307.308.308 0 00-.309-.306.308.308 0 00-.309.306c0 .17.138.307.309.307zm-1.805 4.307c-.65 0-1.21-.432-1.307-1.006a.263.263 0 01.52-.086c.056.322.391.566.785.566s.732-.244.784-.566a.264.264 0 01.521.086c-.093.574-.653 1.006-1.302 1.006z" fill="#000"/><path d="M132.947 51.207c11.964 0 21.663-10.603 21.663-23.683S144.911 3.84 132.947 3.84c-11.965 0-21.664 10.604-21.664 23.684 0 13.08 9.699 23.683 21.664 23.683z" fill="#CC4C71"/><path d="M132.951 51.474c-12.092 0-21.928-10.743-21.928-23.945 0-13.203 9.836-23.946 21.928-23.946s21.928 10.743 21.928 23.946c0 13.202-9.836 23.945-21.928 23.945zm0-47.367c-11.799 0-21.399 10.507-21.399 23.422 0 12.914 9.6 23.42 21.399 23.42 11.799 0 21.399-10.506 21.399-23.42 0-12.915-9.6-23.422-21.399-23.422z" fill="#000"/><path d="M133.192 42.595c7.614 0 13.785-6.748 13.785-15.071s-6.171-15.071-13.785-15.071c-7.613 0-13.785 6.748-13.785 15.071s6.172 15.07 13.785 15.07z" fill="#0085D1"/><path d="M133.196 42.861c-7.746 0-14.049-6.877-14.049-15.333 0-8.455 6.303-15.333 14.049-15.333 7.746 0 14.05 6.878 14.05 15.333 0 8.456-6.301 15.333-14.05 15.333zm0-30.141c-7.455 0-13.521 6.641-13.521 14.808s6.066 14.81 13.521 14.81c7.456 0 13.522-6.643 13.522-14.81 0-8.166-6.066-14.808-13.522-14.808z" fill="#000"/><path d="M132.928 39.962c6.284 0 11.378-5.569 11.378-12.438 0-6.869-5.094-12.438-11.378-12.438-6.285 0-11.379 5.569-11.379 12.438 0 6.87 5.094 12.438 11.379 12.438z" fill="#fff"/><path d="M132.932 40.228c-6.42 0-11.643-5.696-11.643-12.7 0-7.003 5.223-12.7 11.643-12.7 6.42 0 11.643 5.7 11.643 12.7 0 7.002-5.223 12.7-11.643 12.7zm0-24.875c-6.129 0-11.114 5.463-11.114 12.176 0 6.715 4.985 12.175 11.114 12.175 6.129 0 11.114-5.463 11.114-12.175 0-6.716-4.985-12.176-11.114-12.176z" fill="#000"/><path d="M134.669 26.057a1.96 1.96 0 001.968-1.952 1.96 1.96 0 00-1.968-1.952 1.96 1.96 0 00-1.968 1.952 1.96 1.96 0 001.968 1.952z" fill="#000"/><path d="M134.673 26.326a2.225 2.225 0 01-2.232-2.214 2.225 2.225 0 012.232-2.214c1.231 0 2.235.993 2.235 2.214s-1.004 2.214-2.235 2.214zm0-3.906a1.7 1.7 0 00-1.704 1.69 1.7 1.7 0 001.704 1.69c.941 0 1.707-.76 1.707-1.69 0-.93-.766-1.69-1.707-1.69z" fill="#000"/><path fill-rule="evenodd" clip-rule="evenodd" d="M130.732 45.852v8.809c0 .71-.51 1.315-1.212 1.448-1.432.27-3.662.548-3.958-.262-.327-.896 2.954-1.464 2.954-1.464l.219-8.56a.993.993 0 01.999-.962c.552 0 .998.443.998.99z" fill="#B52A4E"/><path d="M127.136 56.654c-.851 0-1.62-.163-1.82-.716a.618.618 0 01.055-.542c.402-.687 2.185-1.093 2.89-1.229l.214-8.348a1.253 1.253 0 011.263-1.218c.698 0 1.263.56 1.263 1.252v8.81c0 .833-.6 1.55-1.427 1.705-.496.094-1.514.286-2.438.286zm2.599-11.529a.728.728 0 00-.734.708l-.219 8.56a.262.262 0 01-.22.251c-.99.173-2.494.6-2.737 1.014-.029.05-.023.079-.015.102.124.338 1.157.566 3.659.095.578-.11.996-.611.996-1.19v-8.812a.724.724 0 00-.73-.728z" fill="#000"/><path fill-rule="evenodd" clip-rule="evenodd" d="M137.379 45.852v8.809c0 .71.51 1.315 1.213 1.448 1.432.27 3.662.548 3.957-.262.328-.896-2.953-1.464-2.953-1.464l-.219-8.56a.993.993 0 00-.999-.962.996.996 0 00-.999.99z" fill="#B52A4E"/><path d="M140.979 56.654c-.922 0-1.941-.192-2.435-.286a1.742 1.742 0 01-1.427-1.706v-8.809c0-.691.565-1.252 1.263-1.252.687 0 1.241.535 1.263 1.216l.214 8.347c.705.137 2.488.543 2.89 1.23a.619.619 0 01.055.542c-.203.555-.972.718-1.823.718zm-2.599-11.529a.734.734 0 00-.735.728v8.81c0 .581.42 1.082.996 1.189 2.505.472 3.538.244 3.659-.094.008-.024.016-.053-.016-.103-.243-.414-1.746-.843-2.737-1.014a.262.262 0 01-.219-.251l-.219-8.56a.719.719 0 00-.729-.705z" fill="#000"/><path fill-rule="evenodd" clip-rule="evenodd" d="M189.818 42.092a1.429 1.429 0 01-.335-1.894c1.442-2.269 4.776-7.18 6.118-6.322 1.734 1.108 5.004 3.88 4.019 4.527-.986.648-3.762-2.447-4.486-1.831-.492.42-2.148 3.288-3.165 5.09a1.45 1.45 0 01-2.151.43z" fill="#A93535"/><path d="M190.713 42.663a1.72 1.72 0 01-1.054-.362 1.685 1.685 0 01-.397-2.24c1.77-2.785 4.204-6.178 5.733-6.514.286-.063.536-.023.75.113 1.152.736 4.315 3.147 4.323 4.402a.641.641 0 01-.299.563c-.66.435-1.678-.254-2.755-.985-.529-.36-1.512-1.027-1.704-.865-.339.288-1.472 2.117-3.105 5.018a1.713 1.713 0 01-1.492.87zm-.729-.773c.272.212.623.293.961.225.338-.068.629-.278.798-.577 1.738-3.08 2.822-4.818 3.223-5.161.499-.427 1.355.157 2.349.83.758.517 1.799 1.221 2.163.983.04-.026.064-.055.064-.123-.005-.789-2.441-2.916-4.079-3.964-.093-.06-.206-.074-.352-.042-1.025.225-3.043 2.573-5.4 6.283a1.16 1.16 0 00.273 1.546z" fill="#000"/><path fill-rule="evenodd" clip-rule="evenodd" d="M177.679 56.532c-4.898 0-8.494-1.622-10.988-3.438-9.106-6.64-9.809-20.206-8.911-26.453.88-6.1 3.366-11.22 7.189-14.803 3.68-3.451 8.375-5.272 13.217-5.139 9.08.255 15.997 7.08 16.818 16.599.312 3.605-2.383 6.776-6.015 7.085-3.635.312-6.832-2.363-7.144-5.966-.246-2.83-1.751-4.56-4.031-4.622l-.122-.003c-2.798 0-5.965 2.67-6.834 8.702-.605 4.208.348 11.63 3.659 14.046 2.7 1.968 7.508.377 11.066-1.305 3.295-1.556 7.234-.17 8.803 3.095 1.569 3.264.172 7.174-3.12 8.73-5.344 2.526-9.846 3.472-13.587 3.472z" fill="#FEAA33"/><path d="M177.683 56.798c-4.217 0-7.966-1.174-11.144-3.49-9.207-6.713-9.923-20.4-9.014-26.702.888-6.16 3.4-11.332 7.271-14.956 3.727-3.495 8.493-5.347 13.404-5.211 9.221.257 16.24 7.182 17.075 16.84a6.726 6.726 0 01-1.591 4.97 6.856 6.856 0 01-4.668 2.4 6.854 6.854 0 01-5.011-1.575 6.747 6.747 0 01-2.418-4.63c-.232-2.685-1.643-4.323-3.775-4.383-.04 0-.077-.003-.116-.003-3.696 0-5.966 4.258-6.573 8.476-.317 2.194-.18 5.107.357 7.604.634 2.953 1.77 5.154 3.196 6.194 2.594 1.892 7.305.32 10.797-1.331 3.422-1.617 7.527-.173 9.157 3.218a6.713 6.713 0 01.275 5.206 6.777 6.777 0 01-3.519 3.872c-4.911 2.324-9.521 3.5-13.703 3.5zm.015-49.84c-4.602 0-9.04 1.792-12.543 5.075-3.781 3.542-6.238 8.61-7.109 14.649-.893 6.194-.199 19.64 8.805 26.204 3.083 2.248 6.726 3.388 10.829 3.388 4.1 0 8.634-1.161 13.473-3.448 3.157-1.491 4.5-5.251 2.996-8.382-1.503-3.129-5.294-4.462-8.451-2.971-3.622 1.713-8.531 3.325-11.336 1.28-3.392-2.472-4.378-10.021-3.765-14.292.407-2.827 1.361-5.162 2.756-6.747 1.236-1.404 2.776-2.18 4.34-2.18.045 0 .087 0 .132.003 2.426.068 4.029 1.886 4.285 4.863a6.238 6.238 0 002.233 4.273 6.323 6.323 0 004.626 1.455c3.484-.297 6.073-3.35 5.775-6.802-.811-9.383-7.622-16.112-16.565-16.36a14.515 14.515 0 00-.481-.008z" fill="#000"/><path d="M190.145 28.822c1.532 0 2.774-1.232 2.774-2.752 0-1.52-1.242-2.75-2.774-2.75s-2.774 1.23-2.774 2.75 1.242 2.752 2.774 2.752z" fill="#fff"/><path d="M190.147 29.085c-1.675 0-3.038-1.352-3.038-3.013 0-1.662 1.363-3.014 3.038-3.014 1.675 0 3.038 1.352 3.038 3.014 0 1.66-1.363 3.013-3.038 3.013zm0-5.503c-1.384 0-2.51 1.117-2.51 2.49 0 1.373 1.126 2.489 2.51 2.489s2.51-1.116 2.51-2.49c0-1.372-1.126-2.489-2.51-2.489z" fill="#000"/><path d="M195.691 26.984c1.532 0 2.774-1.232 2.774-2.751 0-1.52-1.242-2.751-2.774-2.751s-2.774 1.232-2.774 2.75c0 1.52 1.242 2.752 2.774 2.752z" fill="#fff"/><path d="M195.695 27.25c-1.675 0-3.038-1.352-3.038-3.013 0-1.661 1.363-3.013 3.038-3.013 1.675 0 3.038 1.352 3.038 3.013 0 1.661-1.363 3.013-3.038 3.013zm0-5.502a2.501 2.501 0 00-2.509 2.49 2.501 2.501 0 002.509 2.488c1.385 0 2.51-1.116 2.51-2.489 0-1.373-1.125-2.489-2.51-2.489z" fill="#000"/><path d="M190.803 28.294a2.105 2.105 0 002.114-2.096 2.105 2.105 0 00-2.114-2.096 2.105 2.105 0 00-2.113 2.096c0 1.158.946 2.096 2.113 2.096z" fill="#000"/><path d="M190.808 28.56c-1.311 0-2.378-1.058-2.378-2.357 0-1.3 1.067-2.358 2.378-2.358a2.371 2.371 0 012.377 2.358 2.37 2.37 0 01-2.377 2.358zm0-4.191c-1.02 0-1.849.822-1.849 1.834 0 1.011.829 1.834 1.849 1.834s1.849-.823 1.849-1.834a1.843 1.843 0 00-1.849-1.834zm5.543 2.091a2.105 2.105 0 002.114-2.096 2.105 2.105 0 00-2.114-2.096 2.105 2.105 0 00-2.113 2.096c0 1.158.946 2.096 2.113 2.096z" fill="#000"/><path d="M196.355 26.727a2.371 2.371 0 01-2.377-2.358c0-1.3 1.067-2.359 2.377-2.359 1.311 0 2.378 1.059 2.378 2.358 0 1.3-1.067 2.359-2.378 2.359zm0-4.193a1.844 1.844 0 00-1.849 1.835c0 1.01.83 1.834 1.849 1.834 1.02 0 1.85-.823 1.85-1.834 0-1.012-.83-1.835-1.85-1.835z" fill="#000"/><path fill-rule="evenodd" clip-rule="evenodd" d="M193.445 20.303c0 1.52-5.548 1.52-5.548 0s1.242-3.275 2.774-3.275 2.774 1.756 2.774 3.275z" fill="#A93535"/><path d="M190.676 21.709c-.759 0-1.467-.108-1.998-.302-.858-.314-1.041-.772-1.041-1.1 0-1.635 1.327-3.537 3.039-3.537 1.712 0 3.038 1.902 3.038 3.537 0 .97-1.527 1.402-3.038 1.402zm0-4.415c-1.39 0-2.51 1.648-2.51 3.013 0 .493 1.102.878 2.51.878 1.408 0 2.509-.385 2.509-.878 0-1.365-1.12-3.013-2.509-3.013z" fill="#000"/><path fill-rule="evenodd" clip-rule="evenodd" d="M191.456 46.496a1.427 1.427 0 01-.101-1.92c1.712-2.08 5.622-6.55 6.848-5.537 1.585 1.31 4.491 4.455 3.434 4.979-1.056.524-3.434-2.883-4.227-2.358-.539.356-2.536 3.005-3.764 4.669a1.451 1.451 0 01-2.19.167z" fill="#A93535"/><path d="M192.48 47.182a1.72 1.72 0 01-1.21-.498 1.683 1.683 0 01-.118-2.271c2.1-2.552 4.929-5.626 6.488-5.775.29-.029.536.04.732.202 1.051.87 3.896 3.644 3.748 4.889a.635.635 0 01-.367.524c-.71.354-1.635-.456-2.613-1.31-.48-.42-1.376-1.203-1.585-1.064-.372.246-1.72 1.926-3.698 4.606a1.708 1.708 0 01-1.247.69 1.054 1.054 0 01-.13.007zm5.284-8.025a.83.83 0 00-.071.002c-1.044.1-3.337 2.188-6.132 5.584a1.163 1.163 0 00.082 1.57c.246.243.586.366.927.34.344-.026.658-.2.861-.477 2.103-2.85 3.393-4.444 3.831-4.735.547-.361 1.326.32 2.227 1.106.69.603 1.638 1.43 2.026 1.234.043-.02.069-.047.077-.115.093-.783-2.063-3.189-3.564-4.428a.4.4 0 00-.264-.081z" fill="#000"/><path fill-rule="evenodd" clip-rule="evenodd" d="M234.13 18.076c0-9.432-7.926-10.218-17.701-10.218s-17.7.786-17.7 10.218c0 4.066 4.116 7.577 10.073 9.223a64.474 64.474 0 00-.298 6.236c0 12.445.792 22.533 7.661 22.533 6.605 0 7.662-10.088 7.662-22.533 0-2.115-.101-4.161-.286-6.1 6.233-1.582 10.589-5.175 10.589-9.359z" fill="#90982F"/><path d="M216.17 56.334c-7.321 0-7.926-10.782-7.926-22.795 0-2.038.095-4.071.28-6.042-6.116-1.747-10.055-5.429-10.055-9.416 0-9.692 8.137-10.481 17.965-10.481 9.827 0 17.964.789 17.964 10.48 0 4.13-4.139 7.866-10.57 9.556a64.86 64.86 0 01.267 5.903c0 11.028-.613 22.795-7.925 22.795zm.264-48.21c-5.284 0-9.416.265-12.412 1.551-3.429 1.473-5.025 4.143-5.025 8.405 0 3.792 3.879 7.313 9.881 8.972a.265.265 0 01.193.277 64.035 64.035 0 00-.299 6.21c0 11.736.566 22.271 7.398 22.271 2.919 0 4.9-2.096 6.052-6.403 1.192-4.462 1.345-10.824 1.345-15.868a63.61 63.61 0 00-.286-6.076.26.26 0 01.199-.278c6.311-1.6 10.39-5.174 10.39-9.104 0-4.263-1.596-6.933-5.025-8.406-2.996-1.286-7.13-1.551-12.411-1.551z" fill="#000"/><path d="M227.432 20.149c-2.457 0-4.565-2.267-5.101-2.896.536-.628 2.644-2.895 5.101-2.895 2.462 0 4.565 2.267 5.101 2.895-.536.63-2.641 2.896-5.101 2.896z" fill="#fff"/><path d="M227.434 14.624c2.164 0 4.066 1.871 4.753 2.634-.687.762-2.589 2.633-4.753 2.633-2.163 0-4.065-1.87-4.752-2.633.687-.765 2.589-2.634 4.752-2.634zm0-.524c-3.006 0-5.442 3.158-5.442 3.158s2.436 3.157 5.442 3.157c3.007 0 5.443-3.157 5.443-3.157s-2.436-3.158-5.443-3.158z" fill="#000"/><path d="M227.433 17.953a.657.657 0 01-.587-.949.658.658 0 01.587-.356c.365 0 .658.293.658.652a.646.646 0 01-.293.543.638.638 0 01-.365.11z" fill="#000"/><path d="M227.435 16.912c.217 0 .394.175.394.39a.391.391 0 01-.394.39.393.393 0 01-.394-.39c0-.063.013-.123.045-.178a.389.389 0 01.349-.212zm0-.524a.926.926 0 00-.925.914c0 .506.412.914.922.914a.921.921 0 00.922-.914.913.913 0 00-.919-.914z" fill="#000"/><path d="M206.033 20.149c-2.457 0-4.565-2.267-5.101-2.896.536-.628 2.644-2.895 5.101-2.895 2.463 0 4.565 2.267 5.102 2.895-.537.63-2.642 2.896-5.102 2.896z" fill="#fff"/><path d="M206.036 14.624c2.163 0 4.065 1.871 4.752 2.634-.687.762-2.589 2.633-4.752 2.633-2.164 0-4.066-1.87-4.753-2.633.687-.765 2.589-2.634 4.753-2.634zm0-.524c-3.007 0-5.443 3.158-5.443 3.158s2.436 3.157 5.443 3.157c3.006 0 5.442-3.157 5.442-3.157s-2.436-3.158-5.442-3.158z" fill="#000"/><path d="M206.034 17.953a.657.657 0 01-.587-.949.657.657 0 01.587-.356c.364 0 .657.293.657.652a.646.646 0 01-.293.543.635.635 0 01-.364.11z" fill="#000"/><path d="M206.036 16.912c.216 0 .393.175.393.39a.393.393 0 11-.742-.178.389.389 0 01.349-.212zm0-.524a.925.925 0 00-.925.914c0 .506.412.914.922.914a.92.92 0 00.922-.914.913.913 0 00-.919-.914zm10.387 4.051c-1.133 0-2.01-1.1-2.047-1.15a.26.26 0 01.045-.367.266.266 0 01.37.044c.008.01.774.98 1.677.946.479-.018.928-.33 1.329-.93a.268.268 0 01.367-.073.262.262 0 01.074.364c-.502.749-1.091 1.14-1.751 1.163-.021.003-.042.003-.064.003z" fill="#000"/><path d="M218.745 19.431c-.771 0-1.149-.639-1.247-1.027a.261.261 0 01.193-.317c.14-.036.286.05.32.19.034.133.246.782 1.001.596.14-.036.285.05.32.192a.26.26 0 01-.193.317c-.14.034-.272.05-.394.05zm-4.887 0c-.121 0-.251-.015-.394-.05a.261.261 0 01-.192-.316.263.263 0 01.319-.192c.756.186.967-.463 1.002-.597a.265.265 0 01.322-.189.26.26 0 01.19.317c-.098.39-.478 1.027-1.247 1.027z" fill="#000"/><path d="M269.531 9.167c-2.848-.629-10.237-1.614-17.175 22.88-.119-13.133.531-23.666-7.658-23.666-4.233 0-7.662 10.91-7.662 24.367s3.429 24.368 7.662 24.368c0 0 8.52 1.566 17.494-16.562.948 10.035 2.055 17.872 7.339 17.348 4.211-.417 7.662-10.91 7.662-24.368 0-13.456-2.906-23.319-7.662-24.367z" fill="#0085D1"/><path d="M269.052 58.191c-1.012 0-1.91-.314-2.673-.938-2.764-2.255-3.646-8.423-4.357-15.76-2.602 5.08-6.652 11.4-11.804 14.37-3.146 1.812-5.27 1.558-5.537 1.516-4.433-.036-7.905-10.842-7.905-24.629 0-13.81 3.482-24.63 7.926-24.63 7.812 0 7.852 9.221 7.905 20.894.002.403.002.812.005 1.223 2.869-9.595 6.126-16.066 9.693-19.242 3.315-2.955 6.1-2.342 7.289-2.08 4.779 1.053 7.867 10.719 7.867 24.624 0 13.37-3.468 24.189-7.899 24.629a5.625 5.625 0 01-.51.023zm-6.856-17.895a.267.267 0 01.265.238c.718 7.612 1.535 14.094 4.253 16.316.79.645 1.702.904 2.795.797 4.093-.407 7.424-11.22 7.424-24.106 0-13.648-2.927-23.112-7.455-24.11-1.11-.244-3.707-.818-6.822 1.957-3.701 3.299-7.08 10.276-10.044 20.736a.263.263 0 01-.288.188.265.265 0 01-.23-.256c-.011-1.027-.013-2.041-.018-3.034-.053-11.828-.09-20.372-7.377-20.372-4.01 0-7.397 11.039-7.397 24.105 0 13.067 3.387 24.105 7.397 24.105.016 0 .032.003.048.006.082.015 8.451 1.276 17.209-16.42a.273.273 0 01.24-.15z" fill="#000"/><path d="M241.793 45.173s.251 5.885 3.871 6.184c2.581.212 4.031-3.063 5.376-6.399-5.59 2.133-9.247.215-9.247.215z" fill="#fff"/><path d="M245.907 51.63c-.088 0-.172-.002-.262-.01-1.593-.13-2.811-1.3-3.522-3.382a12.154 12.154 0 01-.591-3.053.258.258 0 01.121-.233.264.264 0 01.264-.01c.035.018 3.628 1.834 9.028-.226a.268.268 0 01.282.06.262.262 0 01.059.28c-1.181 2.94-2.645 6.575-5.379 6.575zm-3.81-6.039c.143 1.326.798 5.275 3.593 5.505 2.209.184 3.545-2.415 4.887-5.688-4.319 1.48-7.397.608-8.48.183z" fill="#000"/><path d="M248.27 43.727c1.532 0 2.774-1.232 2.774-2.751 0-1.52-1.242-2.751-2.774-2.751s-2.774 1.232-2.774 2.751c0 1.52 1.242 2.751 2.774 2.751z" fill="#fff"/><path d="M248.274 43.994c-1.662 0-3.023-1.334-3.038-2.985a2.978 2.978 0 01.869-2.138 3.036 3.036 0 012.14-.904h.029c1.661 0 3.022 1.334 3.038 2.985a2.978 2.978 0 01-.869 2.138 3.037 3.037 0 01-2.14.904h-.029zm.002-5.503h-.024a2.5 2.5 0 00-1.767.747 2.462 2.462 0 00-.718 1.766 2.46 2.46 0 00.752 1.753 2.504 2.504 0 001.781.713 2.5 2.5 0 001.767-.747 2.463 2.463 0 00.719-1.766 2.506 2.506 0 00-2.51-2.466z" fill="#000"/><path d="M242.706 41.946c1.532 0 2.774-1.232 2.774-2.751 0-1.52-1.242-2.752-2.774-2.752s-2.774 1.232-2.774 2.752c0 1.519 1.242 2.75 2.774 2.75z" fill="#fff"/><path d="M242.707 42.212c-.8 0-1.553-.307-2.126-.862a2.986 2.986 0 01-.912-2.123 2.982 2.982 0 01.869-2.138 3.036 3.036 0 012.14-.904h.029c1.662 0 3.023 1.334 3.038 2.985a2.978 2.978 0 01-.869 2.138 3.034 3.034 0 01-2.14.904h-.029zm-2.507-2.99c.006.666.275 1.286.753 1.753a2.519 2.519 0 003.548-.034c.47-.474.724-1.103.719-1.766a2.464 2.464 0 00-.753-1.753 2.503 2.503 0 00-1.781-.713 2.5 2.5 0 00-1.767.747 2.455 2.455 0 00-.719 1.766z" fill="#000"/><path d="M244.455 42.454l.809 1.826-2.114.02 1.305-1.846z" fill="#fff"/><path d="M243.154 44.567a.266.266 0 01-.233-.139.263.263 0 01.019-.272l1.302-1.848a.262.262 0 01.243-.11.27.27 0 01.217.155l.811 1.826a.255.255 0 01-.021.25.266.266 0 01-.219.12l-2.119.018c.003 0 .003 0 0 0zm1.252-1.577l-.74 1.048 1.2-.01-.46-1.038zm3.206.219a2.105 2.105 0 002.113-2.097 2.105 2.105 0 00-2.113-2.096 2.105 2.105 0 00-2.114 2.096c0 1.158.947 2.097 2.114 2.097z" fill="#000"/><path d="M247.616 43.475a2.372 2.372 0 01-2.377-2.335 2.332 2.332 0 01.681-1.674c.447-.45 1.038-.7 1.675-.708h.024c1.3 0 2.364 1.043 2.378 2.335a2.372 2.372 0 01-2.354 2.382h-.027zm-1.849-2.34a1.843 1.843 0 001.849 1.816h.019a1.844 1.844 0 001.831-1.853 1.844 1.844 0 00-1.85-1.816h-.018a1.843 1.843 0 00-1.831 1.853zm-3.722.294a2.105 2.105 0 002.113-2.096 2.105 2.105 0 00-2.113-2.096 2.105 2.105 0 00-2.114 2.096c0 1.158.947 2.096 2.114 2.096z" fill="#000"/><path d="M242.049 41.695a2.363 2.363 0 01-1.664-.676 2.336 2.336 0 01-.713-1.66 2.374 2.374 0 012.356-2.382h.024c1.3 0 2.365 1.042 2.378 2.334a2.372 2.372 0 01-2.354 2.382c-.011.002-.019.002-.027.002zm0-4.192h-.018a1.845 1.845 0 00-1.831 1.852c.005.49.201.949.555 1.292a1.85 1.85 0 001.294.524h.019a1.844 1.844 0 001.831-1.852 1.844 1.844 0 00-1.85-1.816z" fill="#000"/><path fill-rule="evenodd" clip-rule="evenodd" d="M346.492 53.188s-.848 4.76 0 5.4c.848.64 7.165 1.36 7.429.48.264-.881-3.131-1.04-4.565-2-1.435-.959-.479-3.88-.479-3.88h-2.385z" fill="#FEA795"/><path d="M352.044 59.74c-2.074 0-5.091-.474-5.712-.943-.906-.684-.306-4.502-.1-5.654a.263.263 0 01.259-.218h2.388c.085 0 .164.04.214.108.05.068.064.154.037.235-.008.026-.877 2.744.375 3.582.592.396 1.585.66 2.463.893 1.067.283 1.907.506 2.155.949.08.141.095.296.051.45-.059.194-.23.336-.524.43-.356.118-.932.168-1.606.168zm-5.329-6.288c-.367 2.164-.494 4.603-.063 4.928.61.459 4.777 1.025 6.473.773.467-.068.547-.17.549-.173 0-.01 0-.018-.01-.034-.14-.249-1.078-.498-1.831-.697-.917-.244-1.958-.519-2.624-.964-1.284-.86-.893-2.995-.679-3.836h-1.815v.003z" fill="#000"/><path fill-rule="evenodd" clip-rule="evenodd" d="M321.391 53.972s-.848 4.76 0 5.4c.848.639 7.165 1.36 7.429.48.264-.881-3.131-1.041-4.565-2-1.435-.959-.478-3.88-.478-3.88h-2.386z" fill="#FEA795"/><path d="M326.946 60.526c-2.074 0-5.091-.474-5.712-.943-.906-.684-.306-4.501-.1-5.654a.263.263 0 01.259-.218h2.388a.26.26 0 01.251.343c-.008.027-.877 2.744.375 3.582.592.396 1.585.66 2.462.894 1.068.283 1.908.505 2.156.948a.573.573 0 01.05.451c-.058.194-.229.335-.523.43-.356.118-.932.167-1.606.167zm-5.329-6.288c-.367 2.164-.494 4.604-.063 4.928.61.46 4.776 1.025 6.473.774.467-.069.546-.17.549-.173 0-.01 0-.019-.011-.035-.14-.248-1.077-.497-1.83-.697-.917-.243-1.958-.518-2.624-.964-1.284-.86-.893-2.994-.679-3.835h-1.815v.002z" fill="#000"/><path fill-rule="evenodd" clip-rule="evenodd" d="M346.146 24.364c-5.255-11.51-9.416-19.493-14.742-18.34-3.854.833-8.068 10.978-11.941 22.27-4.346 12.677-7.099 28.036 3.699 28.036 7.325 0 4.755-10.743 6.604-15.197 1.604-3.862 7.205-4.35 8.718-.786 2.114 4.978.732 15.197 7.535 15.197 9.58 0 7.181-15.72.127-31.18zm-11.207 7.84c-1.693.238-3.323-1.34-3.638-3.527-.314-2.188.803-4.158 2.497-4.396 1.691-.241 3.321 1.338 3.635 3.526.314 2.188-.803 4.156-2.494 4.397z" fill="#A93535"/><path d="M323.166 56.596c-2.658 0-4.665-.917-5.973-2.727-2.095-2.9-3.443-9.705 2.026-25.654 5.078-14.803 8.819-21.726 12.134-22.444 5.572-1.205 9.749 6.902 15.038 18.488 2.777 6.086 4.732 11.948 5.648 16.952.996 5.437.69 9.59-.885 12.013-1.115 1.714-2.84 2.584-5.13 2.584-4.946 0-5.773-5.214-6.502-9.815-.33-2.08-.642-4.046-1.276-5.542-.6-1.41-1.952-2.25-3.622-2.25h-.019c-2.023.007-3.825 1.2-4.589 3.034-.562 1.357-.705 3.34-.858 5.436-.336 4.654-.716 9.925-5.992 9.925zm9.231-50.413a4.39 4.39 0 00-.933.102c-4.034.872-8.636 13.03-11.748 22.1-2.439 7.112-5.952 19.84-2.095 25.18 1.202 1.664 3.067 2.51 5.545 2.51 4.785 0 5.131-4.797 5.463-9.435.154-2.14.302-4.163.896-5.6.843-2.032 2.835-3.35 5.075-3.358h.021c1.892 0 3.427.961 4.111 2.573.661 1.553.975 3.55 1.311 5.662.729 4.609 1.484 9.372 5.981 9.372 2.097 0 3.675-.789 4.686-2.345 2.925-4.496 1.039-15.668-4.8-28.465-4.716-10.329-8.75-18.296-13.513-18.296zm2.208 26.31c-1.696 0-3.249-1.608-3.561-3.775-.161-1.116.027-2.214.526-3.094.512-.904 1.292-1.47 2.195-1.598.751-.108 1.504.102 2.177.602.93.692 1.57 1.837 1.757 3.147.336 2.327-.885 4.43-2.718 4.693a2.597 2.597 0 01-.376.026zm-.459-7.97c-.103 0-.204.008-.307.021-.737.105-1.379.58-1.809 1.337-.444.78-.608 1.763-.465 2.764.293 2.041 1.791 3.521 3.339 3.304 1.545-.22 2.563-2.06 2.269-4.1-.169-1.174-.734-2.196-1.55-2.804-.463-.343-.967-.522-1.477-.522z" fill="#000"/><path d="M327.129 21.748a.247.247 0 01-.119-.029.263.263 0 01-.119-.35l.129-.255c.241-.48.708-.794 1.245-.841a1.533 1.533 0 011.376.608l.341.45a.262.262 0 01-.053.367.267.267 0 01-.37-.052l-.341-.45a1.012 1.012 0 00-.906-.402 1.01 1.01 0 00-.819.556l-.129.254a.26.26 0 01-.235.144zm8.718 0a.247.247 0 01-.119-.029.263.263 0 01-.119-.35l.129-.255c.241-.48.708-.794 1.245-.841a1.536 1.536 0 011.376.608l.341.45a.262.262 0 01-.053.367.267.267 0 01-.37-.052l-.341-.45a1.012 1.012 0 00-.906-.402 1.01 1.01 0 00-.819.556l-.129.254a.26.26 0 01-.235.144z" fill="#000"/><path fill-rule="evenodd" clip-rule="evenodd" d="M323.537 27.527s-2.378 8.34-.774 10.616c1.601 2.275.156-1.897.774-4.234.618-2.337 2.169-4.928 2.169-4.928" fill="#A93535"/><path d="M323.401 39.07c-.256 0-.507-.283-.853-.773-1.654-2.35.639-10.49.737-10.837a.264.264 0 01.325-.18.26.26 0 01.182.322c-.005.02-.595 2.101-.983 4.43-.505 3.03-.444 5.091.169 5.964a4.7 4.7 0 00.307.398c.002-.262-.037-.689-.069-1.053-.093-1.027-.217-2.437.066-3.498.621-2.348 2.135-4.89 2.198-4.997a.264.264 0 01.362-.091.26.26 0 01.092.359c-.015.026-1.537 2.586-2.142 4.863-.259.972-.138 2.329-.05 3.317.097 1.11.142 1.616-.22 1.747a.243.243 0 01-.121.03z" fill="#000"/><path d="M23.396 15.294c2.347 0 4.25-1.755 4.25-3.92s-1.903-3.92-4.25-3.92c-2.348 0-4.251 1.755-4.251 3.92s1.903 3.92 4.25 3.92z" fill="#FEA795"/><path d="M23.4 15.56c-2.491 0-4.515-1.876-4.515-4.182 0-2.305 2.026-4.181 4.515-4.181s4.515 1.876 4.515 4.181c0 2.306-2.024 4.182-4.515 4.182zm0-7.84c-2.198 0-3.987 1.64-3.987 3.658s1.789 3.658 3.987 3.658c2.198 0 3.987-1.64 3.987-3.658 0-2.017-1.789-3.657-3.987-3.657z" fill="#000"/><path d="M20.734 10.684a.193.193 0 01-.173-.278.195.195 0 01.173-.107c.107 0 .194.086.194.193a.184.184 0 01-.087.158.176.176 0 01-.107.034z" fill="#000"/><path d="M20.74 10.041a.46.46 0 00-.46.456c0 .252.206.456.46.456a.455.455 0 100-.912zm5.299.643a.193.193 0 01-.173-.278.196.196 0 01.173-.107c.107 0 .194.086.194.193a.184.184 0 01-.087.158.187.187 0 01-.107.034z" fill="#000"/><path d="M26.045 10.041a.46.46 0 00-.46.456c0 .252.206.456.46.456a.455.455 0 100-.912z" fill="#000"/><path fill-rule="evenodd" clip-rule="evenodd" d="M25.15 10.829c0 1.103-.769 1.999-1.717 1.999-.949 0-1.717-.896-1.717-2h3.434z" fill="#A93535"/><path d="M23.437 13.094c-1.09 0-1.981-1.014-1.981-2.261 0-.144.119-.262.264-.262h3.434c.146 0 .265.118.265.262 0 1.247-.888 2.261-1.982 2.261zm-1.434-2c.105.834.71 1.476 1.434 1.476.727 0 1.33-.642 1.438-1.475h-2.872zm224.205 37.814c-2.539 0-4.003-.844-4.085-.89a.263.263 0 01-.092-.36.267.267 0 01.362-.091c.026.015 2.734 1.559 7.154.345a.262.262 0 11.14.506c-1.313.36-2.481.49-3.479.49z" fill="#000"/><path fill-rule="evenodd" clip-rule="evenodd" d="M120.601 10.685c-.566.343-1.213.288-1.406-.118l-2.013-4.258-2.367-5.012 3.416 4.376 2.903 3.718c.278.356.032.95-.533 1.294z" fill="#B52A4E"/><path d="M119.852 11.179c-.122 0-.238-.016-.349-.05a.85.85 0 01-.541-.445l-4.381-9.27a.264.264 0 01.447-.272l6.319 8.093a.848.848 0 01.153.681c-.068.377-.354.75-.758.996a1.725 1.725 0 01-.89.267zm-3.781-7.845l3.369 7.13c.037.078.111.133.216.165.228.068.537.005.811-.163.275-.167.473-.414.516-.642a.316.316 0 00-.051-.264l-4.861-6.226z" fill="#000"/><path d="M114.752 2.419c.601 0 1.088-.484 1.088-1.08 0-.596-.487-1.08-1.088-1.08-.601 0-1.089.484-1.089 1.08 0 .596.488 1.08 1.089 1.08z" fill="#B52A4E"/><path d="M114.759 2.684a1.346 1.346 0 01-1.318-1.656c.084-.348.301-.641.61-.83a1.345 1.345 0 011.022-.16 1.345 1.345 0 01.999 1.62 1.338 1.338 0 01-.61.83 1.376 1.376 0 01-.703.196zm-.005-2.159a.83.83 0 00-.428.121.801.801 0 00-.37.506.805.805 0 00.098.618.808.808 0 00.51.367c.214.05.435.016.623-.097a.81.81 0 00-.238-1.488.713.713 0 00-.195-.027z" fill="#000"/><path d="M136.517 24.63c.657 0 1.189-.527 1.189-1.179 0-.65-.532-1.179-1.189-1.179-.656 0-1.188.528-1.188 1.18 0 .65.532 1.178 1.188 1.178z" fill="#fff"/></svg>