<svg width="2159" height="948" viewBox="0 0 2159 948" fill="none" xmlns="http://www.w3.org/2000/svg">
    <path d="M1119.66 139.766C1699.93 -34.3687 1976.09 20.621 2041.64 69.8826C2121.54 142.439 2252.81 219.353 2055.65 139.765C1820.09 44.679 1597.51 104.824 1499.45 166.688C1401.39 228.551 1435.63 345.019 1582.47 297.861C1741.42 246.809 1961.74 300.534 2055.65 326.501L2055.65 435.335C1952.4 399.057 1658.63 382.408 1309.56 606.033C960.479 829.658 291.07 927.188 0 948L-2.98957e-05 606.033L-4.14634e-05 473.714C77.4802 466.076 235.243 425.941 246.45 326.502C257.657 227.062 86.8193 160.578 -7.06581e-05 139.766L-8.28768e-05 6.66755e-05C131.44 119.144 539.388 313.9 1119.66 139.766Z"
          fill="#BFDDF9"/>
</svg>
